<svg xmlns="http://www.w3.org/2000/svg" xmlns:xlink="http://www.w3.org/1999/xlink" viewBox="0 0 520 320" font-family="'Microsoft JhengHei','Noto Sans TC',sans-serif">
<rect width="520" height="320" fill="#f2ece2"/>
<rect x="0" y="205" width="520" height="73" fill="#c9a86a" opacity="0.35"/>
<!-- ball cross section with air pushing out -->
<circle cx="300" cy="140" r="70" fill="#fff8dc" stroke="#d0b060" stroke-width="3"/>
<g fill="#f4a878" opacity="0.5"><circle cx="285" cy="130" r="12"/><circle cx="320" cy="145" r="12"/><circle cx="300" cy="165" r="12"/><circle cx="330" cy="120" r="10"/></g>
<g stroke="#e0894a" stroke-width="2.5"><line x1="300" y1="140" x2="300" y2="78" marker-end="url(#a4b)"/><line x1="300" y1="140" x2="358" y2="120" marker-end="url(#a4b)"/><line x1="300" y1="140" x2="248" y2="165" marker-end="url(#a4b)"/></g>
<defs><marker id="a4b" markerWidth="9" markerHeight="9" refX="5" refY="3" orient="auto"><path d="M0 0 L6 3 L0 6 z" fill="#e0894a"/></marker></defs>
<text x="300" y="230" text-anchor="middle" font-size="11" fill="#c0602a">空氣受熱膨脹往外頂</text>
<!-- bear -->
<g transform="translate(390,130)"><image xlink:href="../characters/bear.svg" href="../characters/bear.svg" x="0" y="0" width="92" height="92"/></g>
<circle cx="45" cy="40" r="22" fill="#6b4f3a"/><text x="45" y="47" text-anchor="middle" font-size="19" fill="#fff" font-weight="bold">4</text>
<rect x="0" y="278" width="520" height="42" fill="#6b4f3a"/>
<text x="14" y="297" font-size="13" fill="#fff">📖 第4頁：是球裡空氣受熱膨脹頂回去的。</text>
<text x="14" y="314" font-size="12" fill="#f4d9a8">🐻：「空氣熱脹，不是熱水跑進去！」</text>
</svg>
