<svg xmlns="http://www.w3.org/2000/svg" xmlns:xlink="http://www.w3.org/1999/xlink" viewBox="0 0 520 320" font-family="'Microsoft JhengHei','Noto Sans TC',sans-serif">
<rect width="520" height="320" fill="#eaf1f7"/>
<rect x="0" y="0" width="520" height="278" fill="#ffffff" opacity="0.18"/>
<ellipse cx="235" cy="250" rx="210" ry="26" fill="#00000010"/>
<g transform="translate(0,-26)"><rect x="0" y="236" width="520" height="104" fill="#eef4fb"/><text x="20" y="40" font-size="16" fill="#cddff0">✻</text><text x="56" y="68" font-size="16" fill="#cddff0">✻</text><text x="92" y="96" font-size="16" fill="#cddff0">✻</text><text x="128" y="124" font-size="16" fill="#cddff0">✻</text><text x="164" y="152" font-size="16" fill="#cddff0">✻</text><text x="200" y="40" font-size="16" fill="#cddff0">✻</text><text x="236" y="68" font-size="16" fill="#cddff0">✻</text><text x="272" y="96" font-size="16" fill="#cddff0">✻</text><text x="308" y="124" font-size="16" fill="#cddff0">✻</text><text x="344" y="152" font-size="16" fill="#cddff0">✻</text><text x="380" y="40" font-size="16" fill="#cddff0">✻</text><text x="416" y="68" font-size="16" fill="#cddff0">✻</text><text x="452" y="96" font-size="16" fill="#cddff0">✻</text><text x="488" y="124" font-size="16" fill="#cddff0">✻</text><ellipse cx="150" cy="170" rx="52" ry="38" fill="#9ccb7a" stroke="#5a8a3a" stroke-width="2"/><ellipse cx="122" cy="182" rx="30" ry="22" fill="#addc8b"/><ellipse cx="178" cy="180" rx="32" ry="22" fill="#addc8b"/><rect x="141" y="180" width="18" height="56" fill="#b98b5a"/><text x="180" y="120" text-anchor="middle" font-size="12" fill="#3a5b7c">寒流，公園好安靜</text></g>
<g transform="translate(0,-14)"><image xlink:href="../characters/fox.svg" href="../characters/fox.svg" x="402" y="120" width="80" height="80"/></g>
<circle cx="40" cy="40" r="22" fill="#6b4f3a"/><text x="40" y="47" text-anchor="middle" font-size="19" fill="#fff" font-weight="bold">1</text>
<rect x="0" y="278" width="520" height="42" fill="#6b4f3a"/>
<text x="14" y="297" font-size="13" fill="#fff">📖 第1頁：夏天到處都是的動物，全都不見了。</text>
<text x="14" y="314" font-size="12" fill="#f4d9a8">🦊：「青蛙、蟬、瓢蟲都去哪了？」</text>
</svg>
