<svg xmlns="http://www.w3.org/2000/svg" xmlns:xlink="http://www.w3.org/1999/xlink" viewBox="0 0 520 320" font-family="'Microsoft JhengHei','Noto Sans TC',sans-serif">
<rect width="520" height="320" fill="#eaf1f7"/>
<rect x="0" y="236" width="520" height="104" fill="#eef4fb"/><text x="20" y="40" font-size="16" fill="#cddff0">✻</text><text x="56" y="68" font-size="16" fill="#cddff0">✻</text><text x="92" y="96" font-size="16" fill="#cddff0">✻</text><text x="128" y="124" font-size="16" fill="#cddff0">✻</text><text x="164" y="152" font-size="16" fill="#cddff0">✻</text><text x="200" y="40" font-size="16" fill="#cddff0">✻</text><text x="236" y="68" font-size="16" fill="#cddff0">✻</text><text x="272" y="96" font-size="16" fill="#cddff0">✻</text><text x="308" y="124" font-size="16" fill="#cddff0">✻</text><text x="344" y="152" font-size="16" fill="#cddff0">✻</text><text x="380" y="40" font-size="16" fill="#cddff0">✻</text><text x="416" y="68" font-size="16" fill="#cddff0">✻</text><text x="452" y="96" font-size="16" fill="#cddff0">✻</text><text x="488" y="124" font-size="16" fill="#cddff0">✻</text><ellipse cx="120" cy="225" rx="18" ry="13" fill="#7bbf5a" stroke="#4f8a3a" stroke-width="2"/><circle cx="112" cy="214" r="6" fill="#7bbf5a" stroke="#4f8a3a" stroke-width="1.5"/><circle cx="128" cy="214" r="6" fill="#7bbf5a" stroke="#4f8a3a" stroke-width="1.5"/><circle cx="112" cy="213" r="2" fill="#000"/><circle cx="128" cy="213" r="2" fill="#000"/><path d="M168 110 q12 -12 24 0 q12 -12 24 0" fill="none" stroke="#5a6b7c" stroke-width="3"/><path d="M208 96 q12 -12 24 0 q12 -12 24 0" fill="none" stroke="#5a6b7c" stroke-width="3"/><path d="M248 106 q12 -12 24 0 q12 -12 24 0" fill="none" stroke="#5a6b7c" stroke-width="3"/><path d="M192 128 q12 -12 24 0 q12 -12 24 0" fill="none" stroke="#5a6b7c" stroke-width="3"/><path d="M232 124 q12 -12 24 0 q12 -12 24 0" fill="none" stroke="#5a6b7c" stroke-width="3"/><text x="180" y="180" text-anchor="middle" font-size="11" fill="#3a5b7c">各有過冬妙招</text>
<image xlink:href="../characters/bear.svg" href="../characters/bear.svg" x="398" y="150" width="74" height="74"/>
<circle cx="40" cy="40" r="22" fill="#6b4f3a"/><text x="40" y="47" text-anchor="middle" font-size="19" fill="#fff" font-weight="bold">4</text>
<rect x="0" y="278" width="520" height="42" fill="#6b4f3a"/>
<text x="14" y="297" font-size="13" fill="#fff">📖 第4頁：冬眠、遷徙、換毛、儲糧，各有各的辦法。</text>
<text x="14" y="314" font-size="12" fill="#f4d9a8">🐻：「辦法都配合牠的身體和食物。」</text>
</svg>
