<svg xmlns="http://www.w3.org/2000/svg" xmlns:xlink="http://www.w3.org/1999/xlink" viewBox="0 0 520 320" font-family="'Microsoft JhengHei','Noto Sans TC',sans-serif">
<rect width="520" height="320" fill="#eef7ee"/>
<ellipse cx="110" cy="170" rx="52" ry="38" fill="#9ccb7a" stroke="#5a8a3a" stroke-width="2"/><ellipse cx="82" cy="182" rx="30" ry="22" fill="#addc8b"/><ellipse cx="138" cy="180" rx="32" ry="22" fill="#addc8b"/><rect x="101" y="180" width="18" height="56" fill="#b98b5a"/><ellipse cx="210" cy="225" rx="60" ry="24" fill="#bfe0f5" stroke="#7fb0d6" stroke-width="2"/><ellipse cx="200" cy="222" rx="18" ry="13" fill="#7bbf5a" stroke="#4f8a3a" stroke-width="2"/><circle cx="192" cy="211" r="6" fill="#7bbf5a" stroke="#4f8a3a" stroke-width="1.5"/><circle cx="208" cy="211" r="6" fill="#7bbf5a" stroke="#4f8a3a" stroke-width="1.5"/><circle cx="192" cy="210" r="2" fill="#000"/><circle cx="208" cy="210" r="2" fill="#000"/><circle cx="275" cy="150" r="16" fill="#eaf4fb" stroke="#5a6b7c" stroke-width="3"/><line x1="287" y1="162" x2="301" y2="176" stroke="#5a6b7c" stroke-width="5" stroke-linecap="round"/>
<image xlink:href="../characters/drop.svg" href="../characters/drop.svg" x="398" y="150" width="74" height="74"/>
<circle cx="40" cy="40" r="22" fill="#6b4f3a"/><text x="40" y="47" text-anchor="middle" font-size="19" fill="#fff" font-weight="bold">6</text>
<rect x="0" y="278" width="520" height="42" fill="#6b4f3a"/>
<text x="14" y="297" font-size="13" fill="#fff">📖 第6頁：當棲息地偵探，只觀察、不帶走。</text>
<text x="14" y="314" font-size="12" fill="#f4d9a8">💧「看完把動物留在原地，記得洗手！」</text>
</svg>
