<svg xmlns="http://www.w3.org/2000/svg" xmlns:xlink="http://www.w3.org/1999/xlink" viewBox="0 0 520 320" font-family="'Microsoft JhengHei','Noto Sans TC',sans-serif">
<rect width="520" height="320" fill="#eaf4fb"/>
<rect x="0" y="0" width="520" height="278" fill="#dbeaf5" opacity="0.6"/>
<ellipse cx="260" cy="250" rx="230" ry="24" fill="#00000010"/>
<!-- generations of beaks getting longer -->
<g text-anchor="middle" font-size="11" fill="#5a4632">
  <g transform="translate(210,120)"><circle r="15" fill="#b3763f" stroke="#8a5a2b"/><path d="M13 0 l12 2 l-12 3z" fill="#e0a52a"/><text y="34">第1代</text></g>
  <g transform="translate(280,120)"><circle r="15" fill="#b3763f" stroke="#8a5a2b"/><path d="M13 0 l20 2 l-20 3z" fill="#e0a52a"/><text y="34">第3代</text></g>
  <g transform="translate(360,120)"><circle r="15" fill="#b3763f" stroke="#8a5a2b"/><path d="M13 0 l30 2 l-30 3z" fill="#e0a52a"/><text y="34">很多代後</text></g>
  <path d="M228 118 h30 M298 118 h44" stroke="#e0952a" stroke-width="2" marker-end="url(#g)"/>
  <defs><marker id="g" markerWidth="9" markerHeight="9" refX="6" refY="4" orient="auto"><path d="M0 0 L6 4 L0 8 z" fill="#e0952a"/></marker></defs>
</g>
<g transform="translate(45,105)"><image xlink:href="../characters/monster.svg" href="../characters/monster.svg" x="0" y="0" width="90" height="90"/></g>
<g transform="translate(410,180)"><image xlink:href="../characters/bear.svg" href="../characters/bear.svg" x="0" y="0" width="80" height="80"/></g>
<circle cx="40" cy="40" r="22" fill="#6b4f3a"/><text x="40" y="47" text-anchor="middle" font-size="19" fill="#fff" font-weight="bold">5</text>
<rect x="0" y="278" width="520" height="42" fill="#6b4f3a"/>
<text x="14" y="297" font-size="13" fill="#fff">📖 第5頁：不是想變就變，是很多代慢慢適應。</text>
<text x="14" y="314" font-size="12" fill="#f4d9a8">👾「牠自己變長的！」🐻「是遺傳與適應喔！」</text>
</svg>
