<svg xmlns="http://www.w3.org/2000/svg" xmlns:xlink="http://www.w3.org/1999/xlink" viewBox="0 0 520 320" font-family="'Microsoft JhengHei','Noto Sans TC',sans-serif">
<rect width="520" height="320" fill="#eaf4fb"/>
<rect x="0" y="0" width="520" height="278" fill="#cfe8c4" opacity="0.5"/>
<rect x="0" y="200" width="520" height="78" fill="#8fce7e" opacity="0.5"/>
<ellipse cx="260" cy="250" rx="230" ry="24" fill="#00000010"/>
<!-- pond -->
<ellipse cx="400" cy="235" rx="90" ry="26" fill="#8fc7e6" opacity="0.7"/>
<!-- sparrow on ground -->
<g transform="translate(210,200)">
  <circle cx="0" cy="0" r="18" fill="#b3763f" stroke="#8a5a2b" stroke-width="2"/>
  <path d="M16 -2 l16 3 l-16 5 z" fill="#e0a52a" stroke="#b07d14"/>
  <circle cx="-5" cy="-4" r="3" fill="#fff"/><circle cx="-5" cy="-4" r="1.5" fill="#000"/>
</g>
<circle cx="188" cy="228" r="4" fill="#c8a15a"/><circle cx="200" cy="232" r="4" fill="#c8a15a"/>
<!-- egret -->
<g transform="translate(400,150)">
  <ellipse cx="0" cy="30" rx="16" ry="24" fill="#fff" stroke="#c8d2d8" stroke-width="2"/>
  <path d="M0 6 q4 -20 6 -30" stroke="#fff" stroke-width="6" fill="none"/>
  <circle cx="6" cy="-26" r="8" fill="#fff" stroke="#c8d2d8"/>
  <path d="M12 -26 l30 3 l-30 4z" fill="#f0b429" stroke="#b07d14"/>
</g>
<!-- fox with binoculars -->
<g transform="translate(50,120)"><image xlink:href="../characters/fox.svg" href="../characters/fox.svg" x="0" y="0" width="86" height="86"/></g>
<circle cx="40" cy="40" r="22" fill="#6b4f3a"/><text x="40" y="47" text-anchor="middle" font-size="19" fill="#fff" font-weight="bold">1</text>
<rect x="0" y="278" width="520" height="42" fill="#6b4f3a"/>
<text x="14" y="297" font-size="13" fill="#fff">📖 第1頁：都是鳥，嘴巴卻長得不一樣。</text>
<text x="14" y="314" font-size="12" fill="#f4d9a8">🦊：「一個短短胖胖、一個又長又尖！」</text>
</svg>
