<svg xmlns="http://www.w3.org/2000/svg" xmlns:xlink="http://www.w3.org/1999/xlink" viewBox="0 0 520 320" font-family="'Microsoft JhengHei','Noto Sans TC',sans-serif">
<rect width="520" height="320" fill="#eef4ee"/>
<rect x="0" y="205" width="520" height="73" fill="#8ab090" opacity="0.35"/>
<!-- weather record table -->
<rect x="270" y="100" width="190" height="110" rx="6" fill="#fff" stroke="#7aa080" stroke-width="2"/>
<line x1="270" y1="125" x2="460" y2="125" stroke="#c0d0c0"/>
<line x1="335" y1="100" x2="335" y2="210" stroke="#c0d0c0"/><line x1="400" y1="100" x2="400" y2="210" stroke="#c0d0c0"/>
<text x="300" y="118" font-size="9" fill="#3a6a4a">日期</text><text x="360" y="118" font-size="9" fill="#3a6a4a">雨量</text><text x="428" y="118" font-size="9" fill="#3a6a4a">風向</text>
<text x="300" y="148" font-size="9" fill="#666">週一</text><text x="360" y="148" font-size="9" fill="#666">5mm</text><text x="426" y="148" font-size="9" fill="#666">北</text>
<text x="300" y="172" font-size="9" fill="#666">週二</text><text x="360" y="172" font-size="9" fill="#666">0mm</text><text x="424" y="172" font-size="9" fill="#666">東北</text>
<!-- drop -->
<g transform="translate(55,130)"><image xlink:href="../characters/drop.svg" href="../characters/drop.svg" x="0" y="0" width="90" height="90"/></g>
<circle cx="45" cy="40" r="22" fill="#6b4f3a"/><text x="45" y="47" text-anchor="middle" font-size="19" fill="#fff" font-weight="bold">5</text>
<rect x="0" y="278" width="520" height="42" fill="#6b4f3a"/>
<text x="14" y="297" font-size="13" fill="#fff">📖 第5頁：每天固定時間地點記錄、整理表格。</text>
<text x="14" y="314" font-size="12" fill="#f4d9a8">💧：「打雷大雨要進室內喔！」</text>
</svg>
