<svg xmlns="http://www.w3.org/2000/svg" xmlns:xlink="http://www.w3.org/1999/xlink" viewBox="0 0 520 320" font-family="'Microsoft JhengHei','Noto Sans TC',sans-serif">
<rect width="520" height="320" fill="#eef4f4"/>
<rect x="0" y="0" width="520" height="278" fill="#f0f5f7" opacity="0.6"/>
<ellipse cx="260" cy="252" rx="230" ry="22" fill="#00000010"/>
<!-- static paper towel in cup, water climbing, no one touching -->
<path d="M330 200 h80 l-8 55 h-64 Z" fill="#dbeefb" stroke="#7fb0d6" stroke-width="2"/>
<ellipse cx="370" cy="200" rx="40" ry="7" fill="#bfe0f5" stroke="#7fb0d6"/>
<rect x="360" y="95" width="20" height="120" fill="#f4f4f0" stroke="#d8d8d0"/>
<rect x="360" y="150" width="20" height="65" fill="#c8a0e0" opacity="0.7"/>
<path d="M390 210 v-60" stroke="#8a4ac0" stroke-width="2" marker-end="url(#u)"/>
<defs><marker id="u" markerWidth="9" markerHeight="9" refX="4" refY="2" orient="auto"><path d="M0 8 L4 0 L8 8 z" fill="#8a4ac0"/></marker></defs>
<text x="410" y="150" font-size="10" fill="#8a4ac0">沒人碰也會爬</text>
<!-- monster -->
<g transform="translate(50,150)"><image xlink:href="../characters/monster.svg" href="../characters/monster.svg" x="0" y="0" width="92" height="92"/></g>
<text x="150" y="120" font-size="16">❓</text>
<circle cx="40" cy="40" r="22" fill="#6b4f3a"/><text x="40" y="47" text-anchor="middle" font-size="19" fill="#fff" font-weight="bold">6</text>
<rect x="0" y="278" width="520" height="42" fill="#6b4f3a"/>
<text x="14" y="297" font-size="13" fill="#fff">📖 第6頁：是水自動沿細縫爬，不是用力吸。</text>
<text x="14" y="314" font-size="12" fill="#f4d9a8">👾「紙巾用力吸的啦！」🐻「放著不動也自己爬喔！」</text>
</svg>
