<svg xmlns="http://www.w3.org/2000/svg" xmlns:xlink="http://www.w3.org/1999/xlink" viewBox="0 0 520 320" font-family="'Microsoft JhengHei','Noto Sans TC',sans-serif">
<rect width="520" height="320" fill="#eef4f4"/>
<rect x="0" y="0" width="520" height="278" fill="#f0f5f7" opacity="0.6"/>
<ellipse cx="260" cy="252" rx="230" ry="22" fill="#00000010"/>
<!-- water basin with three tubes -->
<rect x="250" y="210" width="220" height="40" fill="#bfe0f5" stroke="#7fb0d6" stroke-width="2"/>
<rect x="290" y="130" width="24" height="90" fill="none" stroke="#9aa4ac" stroke-width="2"/>
<rect x="292" y="185" width="20" height="35" fill="#8fbfe0"/>
<text x="302" y="245" text-anchor="middle" font-size="9" fill="#6a747e">粗</text>
<rect x="350" y="130" width="16" height="90" fill="none" stroke="#9aa4ac" stroke-width="2"/>
<rect x="352" y="165" width="12" height="55" fill="#8fbfe0"/>
<text x="358" y="245" text-anchor="middle" font-size="9" fill="#6a747e">中</text>
<rect x="410" y="130" width="9" height="90" fill="none" stroke="#9aa4ac" stroke-width="2"/>
<rect x="411" y="140" width="7" height="80" fill="#8fbfe0"/>
<text x="414" y="245" text-anchor="middle" font-size="9" fill="#c0392b">細·最高</text>
<!-- beetle -->
<g transform="translate(45,150)"><image xlink:href="../characters/beetle.svg" href="../characters/beetle.svg" x="0" y="0" width="92" height="92"/></g>
<circle cx="40" cy="40" r="22" fill="#6b4f3a"/><text x="40" y="47" text-anchor="middle" font-size="19" fill="#fff" font-weight="bold">4</text>
<rect x="0" y="278" width="520" height="42" fill="#6b4f3a"/>
<text x="14" y="297" font-size="13" fill="#fff">📖 第4頁：縫隙越細，水爬得越高。</text>
<text x="14" y="314" font-size="12" fill="#f4d9a8">🪲：「細管子裡的水爬得比較高！」</text>
</svg>
