<svg xmlns="http://www.w3.org/2000/svg" xmlns:xlink="http://www.w3.org/1999/xlink" viewBox="0 0 520 320" font-family="'Microsoft JhengHei','Noto Sans TC',sans-serif">
<rect width="520" height="320" fill="#d6e2e0"/>
<rect x="0" y="0" width="520" height="278" fill="#e0e8e6" opacity="0.6"/>
<ellipse cx="260" cy="252" rx="230" ry="22" fill="#00000010"/>
<!-- mountain with fog + person -->
<path d="M280 220 L360 110 L440 220 Z" fill="#8a9a7a" opacity="0.6"/>
<path d="M340 180 L400 100 L460 180 Z" fill="#7a8a6a" opacity="0.6"/>
<g fill="#e8eef2" opacity="0.85"><ellipse cx="380" cy="165" rx="60" ry="24"/><ellipse cx="345" cy="175" rx="34" ry="16"/></g>
<circle cx="360" cy="195" r="9" fill="#6b4f3a"/><rect x="354" y="204" width="12" height="18" fill="#8a6a4a"/>
<text x="420" y="145" font-size="10" fill="#3a7a8a">雲＝溼溼的霧</text>
<!-- monster -->
<g transform="translate(50,150)"><image xlink:href="../characters/monster.svg" href="../characters/monster.svg" x="0" y="0" width="92" height="92"/></g>
<text x="150" y="120" font-size="16">❓</text>
<circle cx="40" cy="40" r="22" fill="#6b4f3a"/><text x="40" y="47" text-anchor="middle" font-size="19" fill="#fff" font-weight="bold">6</text>
<rect x="0" y="278" width="520" height="42" fill="#6b4f3a"/>
<text x="14" y="297" font-size="13" fill="#fff">📖 第6頁：雲不是棉花，是小水滴（和霧一樣）。</text>
<text x="14" y="314" font-size="12" fill="#f4d9a8">👾「雲是棉花做的！」🐻「走進山上的雲，是霧喔！」</text>
</svg>
