<svg xmlns="http://www.w3.org/2000/svg" xmlns:xlink="http://www.w3.org/1999/xlink" viewBox="0 0 520 320" font-family="'Microsoft JhengHei','Noto Sans TC',sans-serif">
<rect width="520" height="320" fill="#dcecf7"/>
<rect x="0" y="0" width="520" height="278" fill="#e6f0f7" opacity="0.6"/>
<ellipse cx="260" cy="252" rx="230" ry="22" fill="#00000010"/>
<!-- cloud with droplets + vapor rising -->
<g fill="#ffffff" stroke="#c8d8e4" stroke-width="2"><ellipse cx="360" cy="110" rx="55" ry="30"/><ellipse cx="320" cy="120" rx="34" ry="20"/></g>
<g fill="#8fbfe0"><circle cx="345" cy="112" r="3"/><circle cx="370" cy="116" r="3"/><circle cx="355" cy="104" r="3"/></g>
<g stroke="#a8cbe0" stroke-width="3" fill="none"><path d="M330 200 q-6 -30 4 -50" marker-end="url(#a)"/><path d="M370 200 q6 -30 -4 -50" marker-end="url(#a)"/></g>
<defs><marker id="a" markerWidth="10" markerHeight="10" refX="4" refY="2" orient="auto"><path d="M0 8 L4 0 L8 8 z" fill="#a8cbe0"/></marker></defs>
<text x="410" y="120" font-size="10" fill="#3a7a9a">小水滴</text>
<!-- drop character -->
<g transform="translate(50,150)"><image xlink:href="../characters/drop.svg" href="../characters/drop.svg" x="0" y="0" width="92" height="92"/></g>
<circle cx="40" cy="40" r="22" fill="#6b4f3a"/><text x="40" y="47" text-anchor="middle" font-size="19" fill="#fff" font-weight="bold">3</text>
<rect x="0" y="278" width="520" height="42" fill="#6b4f3a"/>
<text x="14" y="297" font-size="13" fill="#fff">📖 第3頁：水蒸氣升高遇冷，凝結成小水滴就是雲。</text>
<text x="14" y="314" font-size="12" fill="#f4d9a8">💧：「雲是好多小水滴變成的！」</text>
</svg>
