<svg xmlns="http://www.w3.org/2000/svg" xmlns:xlink="http://www.w3.org/1999/xlink" viewBox="0 0 520 320" font-family="'Microsoft JhengHei','Noto Sans TC',sans-serif">
<rect width="520" height="320" fill="#fff4ea"/>
<rect x="0" y="0" width="520" height="278" fill="#ffffff" opacity="0.18"/>
<ellipse cx="235" cy="250" rx="210" ry="26" fill="#00000010"/>
<g transform="translate(0,-26)"><path d="M80 160 h60 l-6 90 h-48 z" fill="#dbeefb" stroke="#7fb0d6" stroke-width="2" opacity="0.85"/><path d="M84 200 h51 l-6 49 h-48 z" fill="#e8dcc4"/><path d="M140 160 h60 l-6 90 h-48 z" fill="#dbeefb" stroke="#7fb0d6" stroke-width="2" opacity="0.85"/><path d="M144 200 h51 l-6 49 h-48 z" fill="#e8dcc4"/><path d="M200 160 h60 l-6 90 h-48 z" fill="#dbeefb" stroke="#7fb0d6" stroke-width="2" opacity="0.85"/><path d="M204 200 h51 l-6 49 h-48 z" fill="#e8dcc4"/><text x="180" y="150" text-anchor="middle" font-size="12" fill="#c0392b">全部一起用？</text></g>
<g transform="translate(0,-14)"><image xlink:href="../characters/monster.svg" href="../characters/monster.svg" x="326" y="120" width="80" height="80"/><image xlink:href="../characters/bear.svg" href="../characters/bear.svg" x="414" y="120" width="80" height="80"/></g>
<circle cx="40" cy="40" r="22" fill="#6b4f3a"/><text x="40" y="47" text-anchor="middle" font-size="19" fill="#fff" font-weight="bold">4</text>
<rect x="0" y="278" width="520" height="42" fill="#6b4f3a"/>
<text x="14" y="297" font-size="13" fill="#fff">📖 第4頁：迷思怪獸只想快、不想搞懂。</text>
<text x="14" y="314" font-size="12" fill="#f4d9a8">👾「全部一起用最快！」🐻「那就不知道是誰的功勞！」</text>
</svg>
