<svg xmlns="http://www.w3.org/2000/svg" xmlns:xlink="http://www.w3.org/1999/xlink" viewBox="0 0 520 320" font-family="'Microsoft JhengHei','Noto Sans TC',sans-serif">
<rect width="520" height="320" fill="#fff4ea"/>
<path d="M70 160 h60 l-6 90 h-48 z" fill="#dbeefb" stroke="#7fb0d6" stroke-width="2" opacity="0.85"/><path d="M74 200 h51 l-6 49 h-48 z" fill="#dbeefb"/><path d="M140 160 h60 l-6 90 h-48 z" fill="#dbeefb" stroke="#7fb0d6" stroke-width="2" opacity="0.85"/><path d="M144 200 h51 l-6 49 h-48 z" fill="#dbeefb"/><path d="M210 160 h60 l-6 90 h-48 z" fill="#dbeefb" stroke="#7fb0d6" stroke-width="2" opacity="0.85"/><path d="M214 200 h51 l-6 49 h-48 z" fill="#dbeefb"/><text x="190" y="150" text-anchor="middle" font-size="12" fill="#a8531e">公平測試</text>
<image xlink:href="../characters/fox.svg" href="../characters/fox.svg" x="322" y="150" width="74" height="74"/><image xlink:href="../characters/drop.svg" href="../characters/drop.svg" x="410" y="150" width="74" height="74"/>
<circle cx="40" cy="40" r="22" fill="#6b4f3a"/><text x="40" y="47" text-anchor="middle" font-size="19" fill="#fff" font-weight="bold">6</text>
<rect x="0" y="278" width="520" height="42" fill="#6b4f3a"/>
<text x="14" y="297" font-size="13" fill="#fff">📖 第6頁：用公平測試，抓出讓糖溶快的祕密。</text>
<text x="14" y="314" font-size="12" fill="#f4d9a8">🦊「熱水那杯先溶完！」💧「用溫水就好、別燙到！」</text>
</svg>
