<svg xmlns="http://www.w3.org/2000/svg" xmlns:xlink="http://www.w3.org/1999/xlink" viewBox="0 0 520 320" font-family="'Microsoft JhengHei','Noto Sans TC',sans-serif">
<rect width="520" height="320" fill="#eaf6ee"/>
<rect x="0" y="0" width="520" height="278" fill="#ffffff" opacity="0.18"/>
<ellipse cx="235" cy="250" rx="210" ry="26" fill="#00000010"/>
<g transform="translate(0,-26)"><ellipse cx="180" cy="220" rx="90" ry="36" fill="#bfe0f5" stroke="#7fb0d6" stroke-width="2"/><ellipse cx="150" cy="214" rx="20" ry="13" fill="#4f8a52" stroke="#2f6b3a" stroke-width="2"/><path d="M142 211 h16 M150 205 v18" stroke="#2f6b3a" stroke-width="1.5"/><circle cx="172" cy="212" r="6" fill="#4f8a52"/><circle cx="174" cy="211" r="1.5" fill="#c0392b"/><ellipse cx="220" cy="220" rx="20" ry="13" fill="#4f8a52" stroke="#2f6b3a" stroke-width="2"/><path d="M212 217 h16 M220 211 v18" stroke="#2f6b3a" stroke-width="1.5"/><circle cx="242" cy="218" r="6" fill="#4f8a52"/><circle cx="244" cy="217" r="1.5" fill="#c0392b"/><text x="180" y="150" text-anchor="middle" font-size="12" fill="#c0392b">冒出好多烏龜</text></g>
<g transform="translate(0,-14)"><image xlink:href="../characters/fox.svg" href="../characters/fox.svg" x="402" y="120" width="80" height="80"/></g>
<circle cx="40" cy="40" r="22" fill="#6b4f3a"/><text x="40" y="47" text-anchor="middle" font-size="19" fill="#fff" font-weight="bold">2</text>
<rect x="0" y="278" width="520" height="42" fill="#6b4f3a"/>
<text x="14" y="297" font-size="13" fill="#fff">📖 第2頁：青蛙聲不見了，冒出好多陌生的烏龜。</text>
<text x="14" y="314" font-size="12" fill="#f4d9a8">🦊：「池塘好像壞掉了……」</text>
</svg>
