<svg xmlns="http://www.w3.org/2000/svg" xmlns:xlink="http://www.w3.org/1999/xlink" viewBox="0 0 520 320" font-family="'Microsoft JhengHei','Noto Sans TC',sans-serif">
<rect width="520" height="320" fill="#fff4e9"/>
<rect x="0" y="0" width="520" height="278" fill="#ffffff" opacity="0.18"/>
<ellipse cx="235" cy="250" rx="210" ry="26" fill="#00000010"/>
<g transform="translate(0,-26)"><g fill="#c07a3a"><rect x="168" y="146" width="8" height="8"/><rect x="162" y="162" width="8" height="8"/><rect x="146" y="168" width="8" height="8"/><rect x="130" y="162" width="8" height="8"/><rect x="124" y="146" width="8" height="8"/><rect x="130" y="130" width="8" height="8"/><rect x="146" y="124" width="8" height="8"/><rect x="162" y="130" width="8" height="8"/></g><circle cx="150" cy="150" r="22" fill="#c07a3a"/><circle cx="150" cy="150" r="7" fill="#fff"/><g fill="#c07a3a"><rect x="212" y="171" width="8" height="8"/><rect x="207" y="182" width="8" height="8"/><rect x="196" y="187" width="8" height="8"/><rect x="185" y="182" width="8" height="8"/><rect x="180" y="171" width="8" height="8"/><rect x="185" y="160" width="8" height="8"/><rect x="196" y="155" width="8" height="8"/><rect x="207" y="160" width="8" height="8"/></g><circle cx="200" cy="175" r="16" fill="#c07a3a"/><circle cx="200" cy="175" r="7" fill="#fff"/><text x="175" y="220" text-anchor="middle" font-size="12" fill="#c0392b">永動機做不成</text></g>
<g transform="translate(0,-14)"><image xlink:href="../characters/monster.svg" href="../characters/monster.svg" x="326" y="120" width="80" height="80"/><image xlink:href="../characters/bear.svg" href="../characters/bear.svg" x="414" y="120" width="80" height="80"/></g>
<circle cx="40" cy="40" r="22" fill="#6b4f3a"/><text x="40" y="47" text-anchor="middle" font-size="19" fill="#fff" font-weight="bold">5</text>
<rect x="0" y="278" width="520" height="42" fill="#6b4f3a"/>
<text x="14" y="297" font-size="13" fill="#fff">📖 第5頁：能量會有一部分變熱散失，永動機做不成。</text>
<text x="14" y="314" font-size="12" fill="#f4d9a8">👾「永動機萬歲！」🐻「沒有白吃的能量喔。」</text>
</svg>
