<svg xmlns="http://www.w3.org/2000/svg" xmlns:xlink="http://www.w3.org/1999/xlink" viewBox="0 0 520 320" font-family="'Microsoft JhengHei','Noto Sans TC',sans-serif">
<rect width="520" height="320" fill="#fff4e9"/>
<rect x="0" y="0" width="520" height="278" fill="#ffffff" opacity="0.18"/>
<ellipse cx="235" cy="250" rx="210" ry="26" fill="#00000010"/>
<g transform="translate(0,-26)"><path d="M40 120 C120 120 150 200 250 200 C330 200 350 110 440 110 C500 110 510 190 500 190" fill="none" stroke="#b98b5a" stroke-width="7"/><rect x="30" y="100" width="30" height="16" rx="4" fill="#c0392b"/><circle cx="38" cy="118" r="4" fill="#333"/><circle cx="54" cy="118" r="4" fill="#333"/><text x="200" y="230" text-anchor="middle" font-size="11" fill="#a8531e">雲霄飛車忽快忽慢</text></g>
<g transform="translate(0,-14)"><image xlink:href="../characters/fox.svg" href="../characters/fox.svg" x="402" y="120" width="80" height="80"/></g>
<circle cx="40" cy="40" r="22" fill="#6b4f3a"/><text x="40" y="47" text-anchor="middle" font-size="19" fill="#fff" font-weight="bold">3</text>
<rect x="0" y="278" width="520" height="42" fill="#6b4f3a"/>
<text x="14" y="297" font-size="13" fill="#fff">📖 第3頁：高高在上和往下衝，感覺完全不同。</text>
<text x="14" y="314" font-size="12" fill="#f4d9a8">🦊：「能量是不是也在變身？」</text>
</svg>
