<svg xmlns="http://www.w3.org/2000/svg" xmlns:xlink="http://www.w3.org/1999/xlink" viewBox="0 0 520 320" font-family="'Microsoft JhengHei','Noto Sans TC',sans-serif">
<rect width="520" height="320" fill="#fff4e9"/>
<rect x="0" y="0" width="520" height="278" fill="#ffffff" opacity="0.18"/>
<ellipse cx="235" cy="250" rx="210" ry="26" fill="#00000010"/>
<g transform="translate(0,-26)"><rect x="120" y="128" width="60" height="18" rx="5" fill="#c0392b"/><rect x="134" y="116" width="32" height="14" rx="4" fill="#c0392b"/><circle cx="134" cy="148" r="8" fill="#333"/><circle cx="166" cy="148" r="8" fill="#333"/><g fill="#c07a3a"><rect x="254" y="146" width="8" height="8"/><rect x="249" y="159" width="8" height="8"/><rect x="236" y="164" width="8" height="8"/><rect x="223" y="159" width="8" height="8"/><rect x="218" y="146" width="8" height="8"/><rect x="223" y="133" width="8" height="8"/><rect x="236" y="128" width="8" height="8"/><rect x="249" y="133" width="8" height="8"/></g><circle cx="240" cy="150" r="18" fill="#c07a3a"/><circle cx="240" cy="150" r="7" fill="#fff"/><text x="200" y="200" text-anchor="middle" font-size="12" fill="#c07a3a">馬達熱熱的</text></g>
<g transform="translate(0,-14)"><image xlink:href="../characters/beetle.svg" href="../characters/beetle.svg" x="402" y="120" width="80" height="80"/></g>
<circle cx="40" cy="40" r="22" fill="#6b4f3a"/><text x="40" y="47" text-anchor="middle" font-size="19" fill="#fff" font-weight="bold">2</text>
<rect x="0" y="278" width="520" height="42" fill="#6b4f3a"/>
<text x="14" y="297" font-size="13" fill="#fff">📖 第2頁：能量說不定變成了熱跑掉了。</text>
<text x="14" y="314" font-size="12" fill="#f4d9a8">🪲：「摸摸看馬達，是不是熱的？」</text>
</svg>
