<svg xmlns="http://www.w3.org/2000/svg" xmlns:xlink="http://www.w3.org/1999/xlink" viewBox="0 0 520 320" font-family="'Microsoft JhengHei','Noto Sans TC',sans-serif">
<rect width="520" height="320" fill="#fff4e9"/>
<circle cx="80" cy="60" r="22" fill="#f4b400"/><g stroke="#f4b400" stroke-width="3" stroke-linecap="round"><line x1="106" y1="60" x2="114" y2="60"/><line x1="98" y1="78" x2="104" y2="84"/><line x1="80" y1="86" x2="80" y2="94"/><line x1="62" y1="78" x2="56" y2="84"/><line x1="54" y1="60" x2="46" y2="60"/><line x1="62" y1="42" x2="56" y2="36"/><line x1="80" y1="34" x2="80" y2="26"/><line x1="98" y1="42" x2="104" y2="36"/></g><rect x="0" y="236" width="520" height="104" fill="#e0d3b8"/><rect x="0" y="236" width="520" height="8" fill="#00000018"/><rect x="160" y="208" width="60" height="18" rx="5" fill="#c0392b"/><rect x="174" y="196" width="32" height="14" rx="4" fill="#c0392b"/><circle cx="174" cy="228" r="8" fill="#333"/><circle cx="206" cy="228" r="8" fill="#333"/><path d="M94 236 l6 -30 h40 l6 30 z" fill="#c98a5a"/><rect x="92" y="196" width="56" height="12" rx="3" fill="#a86f3f"/><path d="M120 196 v-46" stroke="#5aa469" stroke-width="6"/><path d="M120 164 q-22 -8 -30 -26 q20 3 30 20" fill="#5aa469"/><path d="M120 156 q22 -8 30 -26 q-20 3 -30 20" fill="#5aa469"/>
<image xlink:href="../characters/drop.svg" href="../characters/drop.svg" x="398" y="150" width="74" height="74"/>
<circle cx="40" cy="40" r="22" fill="#6b4f3a"/><text x="40" y="47" text-anchor="middle" font-size="19" fill="#fff" font-weight="bold">6</text>
<rect x="0" y="278" width="520" height="42" fill="#6b4f3a"/>
<text x="14" y="297" font-size="13" fill="#fff">📖 第6頁：能量從太陽出發，一路變身進入生活。</text>
<text x="14" y="314" font-size="12" fill="#f4d9a8">💧「彈性位能變動能，記錄跑多遠！」</text>
</svg>
