<svg xmlns="http://www.w3.org/2000/svg" xmlns:xlink="http://www.w3.org/1999/xlink" viewBox="0 0 520 320" font-family="'Microsoft JhengHei','Noto Sans TC',sans-serif">
<rect width="520" height="320" fill="#e6f2f7"/>
<rect x="0" y="0" width="520" height="278" fill="#dff1f8" opacity="0.5"/>
<ellipse cx="260" cy="252" rx="230" ry="22" fill="#00000010"/>
<!-- basin -->
<path d="M250 150 h190 v80 a14 14 0 0 1 -14 14 h-162 a14 14 0 0 1 -14 -14 Z" fill="#dff1f8" stroke="#7fb0d6" stroke-width="2"/>
<ellipse cx="345" cy="150" rx="95" ry="12" fill="#cfe8f2" stroke="#7fb0d6"/>
<!-- pencil floats -->
<rect x="280" y="146" width="50" height="8" rx="3" fill="#e0b84a" stroke="#a8862a" transform="rotate(-8 305 150)"/>
<text x="300" y="138" font-size="10" fill="#1f9d55">鉛筆浮</text>
<!-- eraser sinks -->
<rect x="386" y="210" width="22" height="14" rx="2" fill="#f0a0b0" stroke="#c07080"/>
<text x="397" y="240" font-size="10" fill="#c0392b">橡皮擦沉</text>
<!-- fox -->
<g transform="translate(55,135)"><image xlink:href="../characters/fox.svg" href="../characters/fox.svg" x="0" y="0" width="90" height="90"/></g>
<circle cx="40" cy="40" r="22" fill="#6b4f3a"/><text x="40" y="47" text-anchor="middle" font-size="19" fill="#fff" font-weight="bold">1</text>
<rect x="0" y="278" width="520" height="42" fill="#6b4f3a"/>
<text x="14" y="297" font-size="13" fill="#fff">📖 第1頁：什麼東西會浮？什麼會沉？</text>
<text x="14" y="314" font-size="12" fill="#f4d9a8">🦊：「有沒有辦法先猜對呀？」</text>
</svg>
