<svg xmlns="http://www.w3.org/2000/svg" xmlns:xlink="http://www.w3.org/1999/xlink" viewBox="0 0 520 320" font-family="'Microsoft JhengHei','Noto Sans TC',sans-serif">
<rect width="520" height="320" fill="#e6f2f7"/>
<rect x="0" y="0" width="520" height="278" fill="#dff1f8" opacity="0.5"/>
<ellipse cx="260" cy="252" rx="230" ry="22" fill="#00000010"/>
<line x1="320" y1="70" x2="320" y2="250" stroke="#cfe0e6" stroke-width="2" stroke-dasharray="5 4"/>
<!-- ball sinks left -->
<text x="235" y="95" text-anchor="middle" font-size="12" font-weight="bold" fill="#c0392b">球→沉</text>
<path d="M180 105 h110 l-10 120 h-90 Z" fill="#dff1f8" stroke="#7fb0d6" stroke-width="2"/>
<ellipse cx="235" cy="105" rx="55" ry="8" fill="#cfe8f2" stroke="#7fb0d6"/>
<circle cx="235" cy="205" r="15" fill="#c9cdd2" stroke="#8a8f96" stroke-width="2"/>
<!-- boat floats right -->
<text x="400" y="95" text-anchor="middle" font-size="12" font-weight="bold" fill="#1f9d55">船→浮</text>
<path d="M345 105 h110 l-10 120 h-90 Z" fill="#dff1f8" stroke="#7fb0d6" stroke-width="2"/>
<ellipse cx="400" cy="105" rx="55" ry="8" fill="#cfe8f2" stroke="#7fb0d6"/>
<line x1="345" y1="135" x2="455" y2="135" stroke="#9fcbe4" stroke-width="2"/>
<path d="M372 126 h56 l-10 20 h-36 Z" fill="#c9cdd2" stroke="#8a8f96" stroke-width="2"/>
<text x="400" y="120" text-anchor="middle" font-size="14">💨</text>
<!-- drop character -->
<g transform="translate(45,145)"><image xlink:href="../characters/drop.svg" href="../characters/drop.svg" x="0" y="0" width="90" height="90"/></g>
<circle cx="40" cy="40" r="22" fill="#6b4f3a"/><text x="40" y="47" text-anchor="middle" font-size="19" fill="#fff" font-weight="bold">5</text>
<rect x="0" y="278" width="520" height="42" fill="#6b4f3a"/>
<text x="14" y="297" font-size="13" fill="#fff">📖 第5頁：同一張鋁箔，換形狀就不一樣。</text>
<text x="14" y="314" font-size="12" fill="#f4d9a8">💧：「做成船裝了空氣就浮起來！」</text>
</svg>
