<svg xmlns="http://www.w3.org/2000/svg" xmlns:xlink="http://www.w3.org/1999/xlink" viewBox="0 0 520 320" font-family="'Microsoft JhengHei','Noto Sans TC',sans-serif">
<rect width="520" height="320" fill="#eaf5e6"/>
<rect x="0" y="0" width="520" height="278" fill="#c9e8bf" opacity="0.5"/>
<ellipse cx="260" cy="250" rx="230" ry="24" fill="#00000010"/>
<!-- wilting flower -> fruit -->
<g transform="translate(250,150)">
  <path d="M-30 -20 q6 -14 18 -6 M30 -22 q-6 -14 -18 -6" stroke="#d6699b" stroke-width="2" fill="none"/>
  <circle cx="0" cy="20" r="42" fill="#e2554d" stroke="#a8352d" stroke-width="2"/>
  <circle cx="-12" cy="10" r="6" fill="#fbe6b0" stroke="#c9a24a"/>
  <circle cx="12" cy="12" r="6" fill="#fbe6b0" stroke="#c9a24a"/>
  <circle cx="0" cy="30" r="6" fill="#fbe6b0" stroke="#c9a24a"/>
  <circle cx="-16" cy="30" r="6" fill="#fbe6b0" stroke="#c9a24a"/>
  <circle cx="16" cy="30" r="6" fill="#fbe6b0" stroke="#c9a24a"/>
  <line x1="0" y1="62" x2="0" y2="95" stroke="#4d8c4d" stroke-width="6"/>
</g>
<!-- drop -->
<g transform="translate(380,120)"><image xlink:href="../characters/drop.svg" href="../characters/drop.svg" x="0" y="0" width="84" height="84"/></g>
<circle cx="40" cy="40" r="22" fill="#6b4f3a"/><text x="40" y="47" text-anchor="middle" font-size="19" fill="#fff" font-weight="bold">6</text>
<rect x="0" y="278" width="520" height="42" fill="#6b4f3a"/>
<text x="14" y="297" font-size="13" fill="#fff">📖 第6頁：花謝了，果實和種子誕生。</text>
<text x="14" y="314" font-size="12" fill="#f4d9a8">💧「先開花，才會結果喔！」</text>
</svg>
