<svg xmlns="http://www.w3.org/2000/svg" viewBox="0 0 520 320" font-family="'Microsoft JhengHei','Noto Sans TC',sans-serif">
  <rect width="520" height="320" fill="#fffdf9"/>
  <!-- surface + block + spring scale -->
  <rect x="90" y="200" width="240" height="16" fill="#b5794a"/>
  <g stroke="#8a5a30" stroke-width="2"><line x1="110" y1="200" x2="106" y2="192"/><line x1="150" y1="200" x2="146" y2="192"/><line x1="210" y1="200" x2="206" y2="192"/><line x1="270" y1="200" x2="266" y2="192"/></g>
  <rect x="150" y="165" width="70" height="35" rx="4" fill="#e8a94a" stroke="#c98a3a" stroke-width="2"/>
  <!-- spring scale -->
  <rect x="230" y="175" width="46" height="16" rx="4" fill="#cfe4f5" stroke="#2f7fc1" stroke-width="2"/>
  <line x1="220" y1="183" x2="230" y2="183" stroke="#6b4f3a" stroke-width="3"/>
  <defs><marker id="p6" markerWidth="9" markerHeight="9" refX="6" refY="3" orient="auto"><path d="M0,0 L7,3 L0,6 Z" fill="#2f7fc1"/></marker></defs>
  <line x1="278" y1="183" x2="320" y2="183" stroke="#2f7fc1" stroke-width="3" marker-end="url(#p6)"/>
  <text x="300" y="175" font-size="11" fill="#2f7fc1">拉</text>
  <!-- fox + drop -->
  <image href="../characters/fox.svg" x="60" y="90" width="72" height="72"/>
  <image href="../characters/drop.svg" x="400" y="150" width="80" height="80"/>
  <rect x="0" y="278" width="520" height="42" fill="#6b4f3a"/>
  <text x="16" y="298" font-size="14" fill="#fff">📖 第6頁：用實驗，找出哪種表面摩擦力最大。</text>
  <text x="16" y="314" font-size="12" fill="#f4d9a8">🦊「砂紙上要用最大的力！」💧「其他條件都要一樣才公平！」</text>
</svg>
