<svg xmlns="http://www.w3.org/2000/svg" xmlns:xlink="http://www.w3.org/1999/xlink" viewBox="0 0 520 320" font-family="'Microsoft JhengHei','Noto Sans TC',sans-serif">
<rect width="520" height="320" fill="#e8e4d8"/>
<rect x="0" y="205" width="520" height="73" fill="#b0a890" opacity="0.5"/>
<!-- earth with thick coat sweating -->
<circle cx="320" cy="140" r="46" fill="#e08a6a"/>
<path d="M286 130 a18 16 0 0 1 36 3 a14 12 0 0 1 26 -2" fill="#a06838"/>
<circle cx="306" cy="140" r="4" fill="#333"/><circle cx="334" cy="140" r="4" fill="#333"/>
<path d="M306 156 q14 8 28 0" fill="none" stroke="#234" stroke-width="2"/>
<circle cx="320" cy="140" r="46" fill="none" stroke="#e0a878" stroke-width="14" opacity="0.7"/>
<path d="M360 128 q4 8 0 12 q-4 -4 0 -12z" fill="#5aa0e0"/>
<!-- factory & car smoke -->
<rect x="120" y="150" width="24" height="40" fill="#888"/>
<g fill="#aaa" opacity="0.8"><circle cx="132" cy="142" r="8"/><circle cx="145" cy="132" r="7"/><circle cx="158" cy="124" r="6"/></g>
<rect x="180" y="168" width="36" height="20" rx="4" fill="#c05a4a"/><circle cx="188" cy="190" r="6" fill="#333"/><circle cx="210" cy="190" r="6" fill="#333"/>
<g fill="#aaa" opacity="0.7"><circle cx="222" cy="166" r="6"/><circle cx="232" cy="158" r="5"/></g>
<text x="250" y="215" text-anchor="middle" font-size="11" fill="#a0602a">CO₂ 太多、外套變厚</text>
<circle cx="45" cy="40" r="22" fill="#6b4f3a"/><text x="45" y="47" text-anchor="middle" font-size="19" fill="#fff" font-weight="bold">3</text>
<rect x="0" y="278" width="520" height="42" fill="#6b4f3a"/>
<text x="14" y="297" font-size="13" fill="#fff">📖 第3頁：人類排太多二氧化碳，外套越變越厚。</text>
<text x="14" y="314" font-size="12" fill="#f4d9a8">🐻：「留住太多熱，地球就發燒了。」</text>
</svg>
