<svg xmlns="http://www.w3.org/2000/svg" xmlns:xlink="http://www.w3.org/1999/xlink" viewBox="0 0 520 320" font-family="'Microsoft JhengHei','Noto Sans TC',sans-serif">
<rect width="520" height="320" fill="#eef4ef"/>
<rect x="0" y="0" width="520" height="278" fill="#ffffff" opacity="0.18"/>
<ellipse cx="235" cy="250" rx="210" ry="26" fill="#00000010"/>
<g transform="translate(0,-26)"><path d="M104 236 l6 -30 h40 l6 30 z" fill="#c98a5a"/><rect x="102" y="196" width="56" height="12" rx="3" fill="#a86f3f"/><path d="M130 196 v-46" stroke="#5aa469" stroke-width="6"/><path d="M130 164 q-22 -8 -30 -26 q20 3 30 20" fill="#5aa469"/><path d="M130 156 q22 -8 30 -26 q-20 3 -30 20" fill="#5aa469"/><path d="M214 236 l6 -30 h40 l6 30 z" fill="#c98a5a"/><rect x="212" y="196" width="56" height="12" rx="3" fill="#a86f3f"/><path d="M240 196 v-70" stroke="#c9b24a" stroke-width="5"/><path d="M240 140 q-10 -4 -16 3" fill="#cdb24a"/><path d="M240 136 q10 -4 16 3" fill="#cdb24a"/><text x="150" y="150" text-anchor="middle" font-size="10" fill="#c98f00">有光</text><text x="260" y="150" text-anchor="middle" font-size="10" fill="#5a5a52">遮光</text></g>
<g transform="translate(0,-14)"><image xlink:href="../characters/drop.svg" href="../characters/drop.svg" x="402" y="120" width="80" height="80"/></g>
<circle cx="40" cy="40" r="22" fill="#6b4f3a"/><text x="40" y="47" text-anchor="middle" font-size="19" fill="#fff" font-weight="bold">6</text>
<rect x="0" y="278" width="520" height="42" fill="#6b4f3a"/>
<text x="14" y="297" font-size="13" fill="#fff">📖 第6頁：只改一個變因，讓證據帶我們找到答案。</text>
<text x="14" y="314" font-size="12" fill="#f4d9a8">💧「水、種子、溫度都一樣，只改光！」</text>
</svg>
