<svg xmlns="http://www.w3.org/2000/svg" viewBox="0 0 520 320" font-family="'Microsoft JhengHei','Noto Sans TC',sans-serif">
  <rect width="520" height="320" fill="#eef8ee"/>
  <!-- tuning fork touching water -->
  <path d="M240 120 L240 170 M260 120 L260 170 M240 170 L260 170 L250 200 L250 230" stroke="#9aa4ad" stroke-width="6" fill="none"/>
  <path d="M225 145 q-8 -6 -14 0 M285 145 q8 -6 14 0" stroke="#c0392b" stroke-width="2" fill="none"/>
  <!-- water with splash -->
  <rect x="200" y="230" width="120" height="30" rx="4" fill="#cfe4f5" stroke="#2f7fc1" stroke-width="2"/>
  <path d="M248 230 q-6 -12 0 -20 M255 230 q6 -12 12 -18" stroke="#2f7fc1" stroke-width="2" fill="none"/>
  <text x="260" y="285" text-anchor="middle" font-size="11" fill="#2f7fc1">音叉振動濺起水花</text>
  <image href="../characters/drop.svg" x="40" y="130" width="82" height="82"/>
  <image href="../characters/beetle.svg" x="400" y="140" width="76" height="76"/>
  <rect x="0" y="278" width="520" height="42" fill="#6b4f3a"/>
  <text x="16" y="298" font-size="14" fill="#fff">📖 第5頁：看不見的聲音，被看見了！</text>
  <text x="16" y="314" font-size="12" fill="#f4d9a8">💧「音叉在振動！」🪲「真空中聽不到聲音喔！」</text>
</svg>
