<svg xmlns="http://www.w3.org/2000/svg" xmlns:xlink="http://www.w3.org/1999/xlink" viewBox="0 0 520 320" font-family="'Microsoft JhengHei','Noto Sans TC',sans-serif">
<rect width="520" height="320" fill="#eaf4fb"/>
<rect x="0" y="0" width="520" height="278" fill="#ffffff" opacity="0.18"/>
<ellipse cx="235" cy="250" rx="210" ry="26" fill="#00000010"/>
<g transform="translate(0,-26)"><rect x="122" y="124" width="76" height="52" rx="5" fill="#33414f" stroke="#222"/><rect x="128" y="130" width="64" height="40" rx="2" fill="#bfe0f5"/><rect x="152" y="176" width="16" height="8" fill="#222"/><circle cx="250" cy="120" r="26" fill="#cfe0ee"/><path d="M250 120 m0 -20 a20 20 0 0 1 20 20" fill="none" stroke="#7fb0d6" stroke-width="8"/><path d="M250 120 m0 20 a20 20 0 0 1 -20 -20" fill="none" stroke="#7fb0d6" stroke-width="8"/><circle cx="250" cy="120" r="10" fill="#fff"/><text x="190" y="205" text-anchor="middle" font-size="10" fill="#2f5b7c">看天氣圖·待安全處</text></g>
<g transform="translate(0,-14)"><image xlink:href="../characters/fox.svg" href="../characters/fox.svg" x="326" y="120" width="80" height="80"/><image xlink:href="../characters/drop.svg" href="../characters/drop.svg" x="414" y="120" width="80" height="80"/></g>
<circle cx="40" cy="40" r="22" fill="#6b4f3a"/><text x="40" y="47" text-anchor="middle" font-size="19" fill="#fff" font-weight="bold">6</text>
<rect x="0" y="278" width="520" height="42" fill="#6b4f3a"/>
<text x="14" y="297" font-size="13" fill="#fff">📖 第6頁：了解颱風，是為了保護自己。</text>
<text x="14" y="314" font-size="12" fill="#f4d9a8">🦊「我會看天氣圖了！」💧「颱風天待在安全室內喔！」</text>
</svg>
