<svg xmlns="http://www.w3.org/2000/svg" xmlns:xlink="http://www.w3.org/1999/xlink" viewBox="0 0 520 320" font-family="'Microsoft JhengHei','Noto Sans TC',sans-serif">
<rect width="520" height="320" fill="#eef4ef"/>
<circle cx="90" cy="70" r="22" fill="#f4b400"/><g stroke="#f4b400" stroke-width="3" stroke-linecap="round"><line x1="116" y1="70" x2="124" y2="70"/><line x1="108" y1="88" x2="114" y2="94"/><line x1="90" y1="96" x2="90" y2="104"/><line x1="72" y1="88" x2="66" y2="94"/><line x1="64" y1="70" x2="56" y2="70"/><line x1="72" y1="52" x2="66" y2="46"/><line x1="90" y1="44" x2="90" y2="36"/><line x1="108" y1="52" x2="114" y2="46"/></g><path d="M154 236 l6 -30 h40 l6 30 z" fill="#c98a5a"/><rect x="152" y="196" width="56" height="12" rx="3" fill="#a86f3f"/><path d="M180 196 v-46" stroke="#5aa469" stroke-width="6"/><path d="M180 164 q-22 -8 -30 -26 q20 3 30 20" fill="#5aa469"/><path d="M180 156 q22 -8 30 -26 q-20 3 -30 20" fill="#5aa469"/><text x="180" y="150" text-anchor="middle" font-size="10" fill="#2f6b4a">會不會是陽光？(假設)</text>
<image xlink:href="../characters/fox.svg" href="../characters/fox.svg" x="398" y="150" width="74" height="74"/>
<circle cx="40" cy="40" r="22" fill="#6b4f3a"/><text x="40" y="47" text-anchor="middle" font-size="19" fill="#fff" font-weight="bold">3</text>
<rect x="0" y="278" width="520" height="42" fill="#6b4f3a"/>
<text x="14" y="297" font-size="13" fill="#fff">📖 第3頁：會不會是陽光的關係？</text>
<text x="14" y="314" font-size="12" fill="#f4d9a8">🦊：「我猜是光！可以來驗證。」</text>
</svg>
