<svg xmlns="http://www.w3.org/2000/svg" xmlns:xlink="http://www.w3.org/1999/xlink" viewBox="0 0 520 320" font-family="'Microsoft JhengHei','Noto Sans TC',sans-serif">
<rect width="520" height="320" fill="#eef4ef"/>
<rect x="0" y="0" width="520" height="278" fill="#ffffff" opacity="0.18"/>
<ellipse cx="235" cy="250" rx="210" ry="26" fill="#00000010"/>
<g transform="translate(0,-26)"><path d="M124 236 l6 -30 h40 l6 30 z" fill="#c98a5a"/><rect x="122" y="196" width="56" height="12" rx="3" fill="#a86f3f"/><path d="M150 196 q-6 -30 -14 -44" stroke="#c9b24a" stroke-width="5" fill="none"/><path d="M142 166 q-14 -2 -20 6" fill="#c9b24a"/><circle cx="240" cy="150" r="16" fill="#eaf4fb" stroke="#5a6b7c" stroke-width="3"/><line x1="252" y1="162" x2="266" y2="176" stroke="#5a6b7c" stroke-width="5" stroke-linecap="round"/><text x="190" y="200" text-anchor="middle" font-size="11" fill="#2f6b4a">觀察·推論·解釋</text></g>
<g transform="translate(0,-14)"><image xlink:href="../characters/beetle.svg" href="../characters/beetle.svg" x="402" y="120" width="80" height="80"/></g>
<circle cx="40" cy="40" r="22" fill="#6b4f3a"/><text x="40" y="47" text-anchor="middle" font-size="19" fill="#fff" font-weight="bold">4</text>
<rect x="0" y="278" width="520" height="42" fill="#6b4f3a"/>
<text x="14" y="297" font-size="13" fill="#fff">📖 第4頁：看到的、猜到的、原因要分清楚。</text>
<text x="14" y="314" font-size="12" fill="#f4d9a8">🪲：「別把猜測當成事實！」</text>
</svg>
