<svg xmlns="http://www.w3.org/2000/svg" viewBox="0 0 520 320" font-family="'Microsoft JhengHei','Noto Sans TC',sans-serif">
  <rect width="520" height="320" fill="#fdf1e8"/>
  <!-- cup with three spoons, metal butter dripping -->
  <path d="M150 230 L310 230 L294 150 L166 150 Z" fill="#fce3d2" stroke="#e8743b" stroke-width="2"/><ellipse cx="230" cy="150" rx="64" ry="10" fill="#f7c9b0"/>
  <path d="M210 145 q-6 -12 4 -22 M230 143 q-6 -12 4 -22" stroke="#e8b4a0" stroke-width="2.5" fill="none"/>
  <!-- metal spoon w/ dripping butter -->
  <rect x="196" y="80" width="8" height="78" rx="3" fill="#9aa4ad"/>
  <path d="M193 96 q7 8 14 0 q-2 12 -7 18 q-5 -6 -7 -18" fill="#f4c542"/><circle cx="200" cy="128" r="3.5" fill="#f4c542"/>
  <text x="200" y="74" text-anchor="middle" font-size="10" fill="#c0392b">金屬先融!</text>
  <!-- plastic + wood with intact butter -->
  <rect x="222" y="80" width="8" height="78" rx="3" fill="#e08bbf"/><rect x="220" y="98" width="12" height="10" rx="3" fill="#f4d97a"/>
  <rect x="248" y="80" width="8" height="78" rx="3" fill="#b98a5a"/><rect x="246" y="98" width="12" height="10" rx="3" fill="#f4d97a"/>
  <!-- fox cheering + drop timer -->
  <image href="../characters/fox.svg" x="330" y="120" width="80" height="80"/>
  <text x="370" y="115" font-size="16">🎉</text>
  <image href="../characters/drop.svg" x="420" y="140" width="76" height="76"/>
  <text x="458" y="135" font-size="13">⏱️</text>
  <!-- caption -->
  <rect x="0" y="278" width="520" height="42" fill="#6b4f3a"/>
  <text x="16" y="298" font-size="14" fill="#fff">📖 第6頁：湯匙導熱大賽，金屬湯匙的奶油先融化。</text>
  <text x="16" y="314" font-size="12" fill="#f4d9a8">🦊「金屬先融化了！」💧「其他條件都一樣才公平喔！」</text>
</svg>
