<svg xmlns="http://www.w3.org/2000/svg" xmlns:xlink="http://www.w3.org/1999/xlink" viewBox="0 0 520 320" font-family="'Microsoft JhengHei','Noto Sans TC',sans-serif">
<rect width="520" height="320" fill="#eef4ef"/>
<path d="M114 236 l6 -30 h40 l6 30 z" fill="#c98a5a"/><rect x="112" y="196" width="56" height="12" rx="3" fill="#a86f3f"/><path d="M140 196 v-46" stroke="#5aa469" stroke-width="6"/><path d="M140 164 q-22 -8 -30 -26 q20 3 30 20" fill="#5aa469"/><path d="M140 156 q22 -8 30 -26 q-20 3 -30 20" fill="#5aa469"/><path d="M224 236 l6 -30 h40 l6 30 z" fill="#c98a5a"/><rect x="222" y="196" width="56" height="12" rx="3" fill="#a86f3f"/><path d="M250 196 q-6 -30 -14 -44" stroke="#c9b24a" stroke-width="5" fill="none"/><path d="M242 166 q-14 -2 -20 6" fill="#c9b24a"/><text x="195" y="150" text-anchor="middle" font-size="11" fill="#2f6b4a">同樣綠豆，差好多？</text>
<image xlink:href="../characters/fox.svg" href="../characters/fox.svg" x="398" y="150" width="74" height="74"/>
<circle cx="40" cy="40" r="22" fill="#6b4f3a"/><text x="40" y="47" text-anchor="middle" font-size="19" fill="#fff" font-weight="bold">1</text>
<rect x="0" y="278" width="520" height="42" fill="#6b4f3a"/>
<text x="14" y="297" font-size="13" fill="#fff">📖 第1頁：同樣的綠豆，長得差好多。</text>
<text x="14" y="314" font-size="12" fill="#f4d9a8">🦊：「一定是阿明比較笨！」</text>
</svg>
