<svg xmlns="http://www.w3.org/2000/svg" xmlns:xlink="http://www.w3.org/1999/xlink" viewBox="0 0 520 320" font-family="'Microsoft JhengHei','Noto Sans TC',sans-serif">
<rect width="520" height="320" fill="#eaf4fb"/>
<rect x="0" y="0" width="520" height="278" fill="#ffffff" opacity="0.18"/>
<ellipse cx="235" cy="250" rx="210" ry="26" fill="#00000010"/>
<g transform="translate(0,-26)"><circle cx="180" cy="150" r="50" fill="#cfe0ee"/><path d="M180 150 m0 -44 a44 44 0 0 1 44 44" fill="none" stroke="#7fb0d6" stroke-width="8"/><path d="M180 150 m0 44 a44 44 0 0 1 -44 -44" fill="none" stroke="#7fb0d6" stroke-width="8"/><circle cx="180" cy="150" r="10" fill="#fff"/><text x="180" y="215" text-anchor="middle" font-size="12" fill="#2f5b7c">像個大漩渦</text></g>
<g transform="translate(0,-14)"><image xlink:href="../characters/fox.svg" href="../characters/fox.svg" x="402" y="120" width="80" height="80"/></g>
<circle cx="40" cy="40" r="22" fill="#6b4f3a"/><text x="40" y="47" text-anchor="middle" font-size="19" fill="#fff" font-weight="bold">3</text>
<rect x="0" y="278" width="520" height="42" fill="#6b4f3a"/>
<text x="14" y="297" font-size="13" fill="#fff">📖 第3頁：從天上看，颱風像個大漩渦。</text>
<text x="14" y="314" font-size="12" fill="#f4d9a8">🦊：「中間那個洞是什麼？」</text>
</svg>
