<svg xmlns="http://www.w3.org/2000/svg" xmlns:xlink="http://www.w3.org/1999/xlink" viewBox="0 0 520 320" font-family="'Microsoft JhengHei','Noto Sans TC',sans-serif">
<rect width="520" height="320" fill="#eaf4fb"/>
<rect x="0" y="0" width="520" height="278" fill="#ffffff" opacity="0.18"/>
<ellipse cx="235" cy="250" rx="210" ry="26" fill="#00000010"/>
<g transform="translate(0,-26)"><g><ellipse cx="180" cy="105" rx="55" ry="29" fill="#c9d3da"/><ellipse cx="144" cy="115" rx="31" ry="19" fill="#c9d3da"/><ellipse cx="216" cy="115" rx="34" ry="19" fill="#c9d3da"/></g><g stroke="#2f7fc1" stroke-width="3" stroke-linecap="round"><line x1="135" y1="135" x2="130" y2="153"/><line x1="153" y1="135" x2="148" y2="153"/><line x1="171" y1="135" x2="166" y2="153"/><line x1="189" y1="135" x2="184" y2="153"/><line x1="207" y1="135" x2="202" y2="153"/></g><text x="180" y="210" text-anchor="middle" font-size="12" fill="#2f5b7c">狂風暴雨</text></g>
<g transform="translate(0,-14)"><image xlink:href="../characters/fox.svg" href="../characters/fox.svg" x="402" y="120" width="80" height="80"/></g>
<circle cx="40" cy="40" r="22" fill="#6b4f3a"/><text x="40" y="47" text-anchor="middle" font-size="19" fill="#fff" font-weight="bold">2</text>
<rect x="0" y="278" width="520" height="42" fill="#6b4f3a"/>
<text x="14" y="297" font-size="13" fill="#fff">📖 第2頁：狂風暴雨好可怕。</text>
<text x="14" y="314" font-size="12" fill="#f4d9a8">🦊：「颱風怎麼這麼有力氣？」</text>
</svg>
