<svg xmlns="http://www.w3.org/2000/svg" xmlns:xlink="http://www.w3.org/1999/xlink" viewBox="0 0 520 320" font-family="'Microsoft JhengHei','Noto Sans TC',sans-serif">
<rect width="520" height="320" fill="#eaf4fb"/>
<circle cx="150" cy="130" r="40" fill="#cfe0ee"/><path d="M150 130 m0 -34 a34 34 0 0 1 34 34" fill="none" stroke="#7fb0d6" stroke-width="8"/><path d="M150 130 m0 34 a34 34 0 0 1 -34 -34" fill="none" stroke="#7fb0d6" stroke-width="8"/><circle cx="150" cy="130" r="10" fill="#fff"/><rect x="0" y="230" width="520" height="110" fill="#7fbfe6"/><path d="M0 230 q30 -8 60 0 t60 0 t60 0 t60 0 t60 0 t60 0 t60 0 t60 0 t60 0" fill="none" stroke="#5aa3d6" stroke-width="2"/><text x="180" y="205" text-anchor="middle" font-size="11" fill="#2f5b7c">溫暖海洋是燃料</text>
<image xlink:href="../characters/bear.svg" href="../characters/bear.svg" x="322" y="150" width="74" height="74"/><image xlink:href="../characters/beetle.svg" href="../characters/beetle.svg" x="410" y="150" width="74" height="74"/>
<circle cx="40" cy="40" r="22" fill="#6b4f3a"/><text x="40" y="47" text-anchor="middle" font-size="19" fill="#fff" font-weight="bold">5</text>
<rect x="0" y="278" width="520" height="42" fill="#6b4f3a"/>
<text x="14" y="297" font-size="13" fill="#fff">📖 第5頁：颱風是溫暖海洋餵大的。</text>
<text x="14" y="314" font-size="12" fill="#f4d9a8">🐻「溫暖海水是燃料！」🪲「颱風也是台灣重要雨水來源！」</text>
</svg>
