<svg xmlns="http://www.w3.org/2000/svg" xmlns:xlink="http://www.w3.org/1999/xlink" viewBox="0 0 520 320" font-family="'Microsoft JhengHei','Noto Sans TC',sans-serif">
<rect width="520" height="320" fill="#eef7ee"/>
<text x="150" y="160" font-size="34">🐛</text><path d="M230 116 C264 136 264 180 230 190 C196 180 196 136 230 116 Z" fill="#a9d6a0" stroke="#4f9a52" stroke-width="2"/><path d="M230 120 L230 186" stroke="#2f7d3a" stroke-width="2"/><path d="M230 136 q16 4 24 16 M230 136 q-16 4 -24 16 M230 156 q16 4 24 16 M230 156 q-16 4 -24 16" stroke="#4f9a52" stroke-width="1.4" fill="none"/><text x="190" y="205" text-anchor="middle" font-size="12" fill="#4a6b32">飼養蠶寶寶</text>
<image xlink:href="../characters/fox.svg" href="../characters/fox.svg" x="322" y="150" width="74" height="74"/><image xlink:href="../characters/drop.svg" href="../characters/drop.svg" x="410" y="150" width="74" height="74"/>
<circle cx="40" cy="40" r="22" fill="#6b4f3a"/><text x="40" y="47" text-anchor="middle" font-size="19" fill="#fff" font-weight="bold">6</text>
<rect x="0" y="278" width="520" height="42" fill="#6b4f3a"/>
<text x="14" y="297" font-size="13" fill="#fff">📖 第6頁：親手觀察昆蟲的變身魔術。</text>
<text x="14" y="314" font-size="12" fill="#f4d9a8">🦊「排對順序了！」💧「每天換新鮮桑葉、好好照顧喔！」</text>
</svg>
