<svg xmlns="http://www.w3.org/2000/svg" xmlns:xlink="http://www.w3.org/1999/xlink" viewBox="0 0 520 320" font-family="'Microsoft JhengHei','Noto Sans TC',sans-serif">
<rect width="520" height="320" fill="#eef0e4"/>
<rect x="0" y="0" width="520" height="278" fill="#e2e6d2" opacity="0.6"/>
<ellipse cx="260" cy="252" rx="230" ry="22" fill="#00000010"/>
<!-- dead-leaf butterfly flying, showing wing -->
<g transform="translate(330,150)">
  <path d="M0 0 q40 -40 70 -10 q10 40 -30 60 q-40 -10 -40 -50 Z" fill="#c99a5a" stroke="#8a6a30" stroke-width="2"/>
  <path d="M0 0 q-40 -40 -70 -10 q-10 40 30 60 q40 -10 40 -50 Z" fill="#b98a4a" stroke="#8a6a30" stroke-width="2"/>
  <line x1="0" y1="-6" x2="0" y2="40" stroke="#5a4020" stroke-width="2"/>
</g>
<path d="M280 230 q10 20 30 26" stroke="#8a6a30" stroke-width="1.5" fill="none" stroke-dasharray="3 3"/>
<text x="270" y="255" font-size="11" fill="#8a6a30">飛起來才發現是蝶</text>
<!-- fox -->
<g transform="translate(50,140)"><image xlink:href="../characters/fox.svg" href="../characters/fox.svg" x="0" y="0" width="90" height="90"/></g>
<circle cx="40" cy="40" r="22" fill="#6b4f3a"/><text x="40" y="47" text-anchor="middle" font-size="19" fill="#fff" font-weight="bold">3</text>
<rect x="0" y="278" width="520" height="42" fill="#6b4f3a"/>
<text x="14" y="297" font-size="13" fill="#fff">📖 第3頁：連枯葉都是假的！</text>
<text x="14" y="314" font-size="12" fill="#f4d9a8">🦊：「這些蟲太會演了吧！」</text>
</svg>
