<svg xmlns="http://www.w3.org/2000/svg" xmlns:xlink="http://www.w3.org/1999/xlink" viewBox="0 0 520 320" font-family="'Microsoft JhengHei','Noto Sans TC',sans-serif">
<rect width="520" height="320" fill="#e6efdc"/>
<rect x="0" y="0" width="520" height="278" fill="#d6e6c6" opacity="0.6"/>
<ellipse cx="260" cy="252" rx="230" ry="22" fill="#00000010"/>
<!-- big branch that is actually a stick insect -->
<path d="M250 120 L470 240" stroke="#9a7a4a" stroke-width="16" stroke-linecap="round"/>
<g transform="translate(360,180) rotate(28)">
  <rect x="-40" y="-4" width="80" height="8" rx="4" fill="#a2824e" stroke="#7a5a2a" stroke-width="1.2"/>
  <circle cx="-40" cy="0" r="5" fill="#a2824e" stroke="#7a5a2a"/>
  <line x1="-44" y1="-2" x2="-64" y2="-8" stroke="#7a5a2a" stroke-width="1.2"/>
  <g stroke="#7a5a2a" stroke-width="1.2"><line x1="-14" y1="4" x2="-22" y2="16"/><line x1="4" y1="4" x2="2" y2="18"/><line x1="22" y1="4" x2="32" y2="14"/></g>
</g>
<text x="330" y="140" font-size="16">❗</text>
<!-- fox startled -->
<g transform="translate(50,140)"><image xlink:href="../characters/fox.svg" href="../characters/fox.svg" x="0" y="0" width="90" height="90"/></g>
<circle cx="40" cy="40" r="22" fill="#6b4f3a"/><text x="40" y="47" text-anchor="middle" font-size="19" fill="#fff" font-weight="bold">1</text>
<rect x="0" y="278" width="520" height="42" fill="#6b4f3a"/>
<text x="14" y="297" font-size="13" fill="#fff">📖 第1頁：那根樹枝居然會走路！</text>
<text x="14" y="314" font-size="12" fill="#f4d9a8">🦊：「啊——樹枝會走路！」</text>
</svg>
