<svg xmlns="http://www.w3.org/2000/svg" xmlns:xlink="http://www.w3.org/1999/xlink" viewBox="0 0 520 320" font-family="'Microsoft JhengHei','Noto Sans TC',sans-serif">
<rect width="520" height="320" fill="#eef7ee"/>
<rect x="0" y="0" width="520" height="278" fill="#ffffff" opacity="0.18"/>
<ellipse cx="235" cy="250" rx="210" ry="26" fill="#00000010"/>
<g transform="translate(0,-26)"><path d="M150 116 C184 136 184 180 150 190 C116 180 116 136 150 116 Z" fill="#a9d6a0" stroke="#4f9a52" stroke-width="2"/><path d="M150 120 L150 186" stroke="#2f7d3a" stroke-width="2"/><path d="M150 136 q16 4 24 16 M150 136 q-16 4 -24 16 M150 156 q16 4 24 16 M150 156 q-16 4 -24 16" stroke="#4f9a52" stroke-width="1.4" fill="none"/><circle cx="175" cy="150" r="9" fill="#8bbf5a" stroke="#4f8a3a" stroke-width="1.5"/><circle cx="162" cy="150" r="9" fill="#8bbf5a" stroke="#4f8a3a" stroke-width="1.5"/><circle cx="149" cy="150" r="9" fill="#8bbf5a" stroke="#4f8a3a" stroke-width="1.5"/><circle cx="136" cy="150" r="9" fill="#8bbf5a" stroke="#4f8a3a" stroke-width="1.5"/><circle cx="123" cy="150" r="9" fill="#8bbf5a" stroke="#4f8a3a" stroke-width="1.5"/><text x="160" y="205" text-anchor="middle" font-size="12" fill="#4a6b32">餵胖胖毛毛蟲</text></g>
<g transform="translate(0,-14)"><image xlink:href="../characters/fox.svg" href="../characters/fox.svg" x="402" y="120" width="80" height="80"/></g>
<circle cx="40" cy="40" r="22" fill="#6b4f3a"/><text x="40" y="47" text-anchor="middle" font-size="19" fill="#fff" font-weight="bold">1</text>
<rect x="0" y="278" width="520" height="42" fill="#6b4f3a"/>
<text x="14" y="297" font-size="13" fill="#fff">📖 第1頁：小狐同學認養了一隻毛毛蟲。</text>
<text x="14" y="314" font-size="12" fill="#f4d9a8">🦊：「小胖，多吃一點！」</text>
</svg>
