<svg xmlns="http://www.w3.org/2000/svg" xmlns:xlink="http://www.w3.org/1999/xlink" viewBox="0 0 520 320" font-family="'Microsoft JhengHei','Noto Sans TC',sans-serif">
<rect width="520" height="320" fill="#fff4ea"/>
<rect x="0" y="0" width="520" height="278" fill="#ffffff" opacity="0.18"/>
<ellipse cx="235" cy="250" rx="210" ry="26" fill="#00000010"/>
<g transform="translate(0,-26)"><rect x="120" y="140" width="26" height="26" rx="3" fill="#dbeefb" stroke="#7fb0d6" stroke-width="2"/><path d="M200 160 h60 l-6 90 h-48 z" fill="#dbeefb" stroke="#7fb0d6" stroke-width="2" opacity="0.85"/><path d="M204 196 h52 l-6 54 h-48 z" fill="#dbeefb"/><g fill="#c9a24a" opacity="0.6"><circle cx="230" cy="190" r="2.4"/><circle cx="227" cy="192" r="2.4"/><circle cx="235" cy="184" r="2.4"/><circle cx="227" cy="201" r="2.4"/><circle cx="227" cy="176" r="2.4"/><circle cx="241" cy="205" r="2.4"/></g><text x="120" y="185" text-anchor="middle" font-size="11" fill="#2f7fc1">融化(冰)</text><text x="230" y="275" text-anchor="middle" font-size="11" fill="#c98f00">溶解(糖)</text></g>
<g transform="translate(0,-14)"><image xlink:href="../characters/bear.svg" href="../characters/bear.svg" x="402" y="120" width="80" height="80"/></g>
<circle cx="40" cy="40" r="22" fill="#6b4f3a"/><text x="40" y="47" text-anchor="middle" font-size="19" fill="#fff" font-weight="bold">4</text>
<rect x="0" y="278" width="520" height="42" fill="#6b4f3a"/>
<text x="14" y="297" font-size="13" fill="#fff">📖 第4頁：融化靠熱，溶解靠水。</text>
<text x="14" y="314" font-size="12" fill="#f4d9a8">🐻：「冷水也能溶糖，那是溶解不是融化。」</text>
</svg>
