<svg xmlns="http://www.w3.org/2000/svg" xmlns:xlink="http://www.w3.org/1999/xlink" viewBox="0 0 520 320" font-family="'Microsoft JhengHei','Noto Sans TC',sans-serif">
<rect width="520" height="320" fill="#fff4ea"/>
<path d="M100 160 h60 l-6 90 h-48 z" fill="#dbeefb" stroke="#7fb0d6" stroke-width="2" opacity="0.85"/><path d="M104 196 h52 l-6 54 h-48 z" fill="#e8dcc4"/><g fill="#c9a24a" opacity="0.6"><circle cx="130" cy="190" r="2.4"/><circle cx="127" cy="191" r="2.4"/><circle cx="134" cy="185" r="2.4"/><circle cx="128" cy="199" r="2.4"/><circle cx="127" cy="177" r="2.4"/><circle cx="140" cy="203" r="2.4"/><circle cx="113" cy="181" r="2.4"/><circle cx="153" cy="191" r="2.4"/></g><path d="M210 160 h60 l-6 90 h-48 z" fill="#dbeefb" stroke="#7fb0d6" stroke-width="2" opacity="0.85"/><path d="M214 196 h52 l-6 54 h-48 z" fill="#dbeefb"/><rect x="220" y="238" width="40" height="12" fill="#c9a877"/><text x="130" y="275" text-anchor="middle" font-size="11" fill="#2f7d3a">鹽溶</text><text x="240" y="275" text-anchor="middle" font-size="11" fill="#c0392b">沙沉</text>
<image xlink:href="../characters/beetle.svg" href="../characters/beetle.svg" x="398" y="150" width="74" height="74"/>
<circle cx="40" cy="40" r="22" fill="#6b4f3a"/><text x="40" y="47" text-anchor="middle" font-size="19" fill="#fff" font-weight="bold">3</text>
<rect x="0" y="278" width="520" height="42" fill="#6b4f3a"/>
<text x="14" y="297" font-size="13" fill="#fff">📖 第3頁：糖鹽會溶，沙子米糠不會。</text>
<text x="14" y="314" font-size="12" fill="#f4d9a8">🪲：「這是可溶和不可溶！」</text>
</svg>
