<svg xmlns="http://www.w3.org/2000/svg" xmlns:xlink="http://www.w3.org/1999/xlink" viewBox="0 0 520 320" font-family="'Microsoft JhengHei','Noto Sans TC',sans-serif">
<rect width="520" height="320" fill="#fff4ea"/>
<rect x="0" y="0" width="520" height="278" fill="#ffffff" opacity="0.18"/>
<ellipse cx="235" cy="250" rx="210" ry="26" fill="#00000010"/>
<g transform="translate(0,-26)"><rect x="120" y="210" width="120" height="30" rx="4" fill="#fff" stroke="#d8c48a"/><rect x="130" y="214" width="14" height="14" rx="3" fill="#fff" stroke="#c9a24a" stroke-width="2"/><rect x="152" y="214" width="14" height="14" rx="3" fill="#fff" stroke="#c9a24a" stroke-width="2"/><rect x="174" y="214" width="14" height="14" rx="3" fill="#fff" stroke="#c9a24a" stroke-width="2"/><rect x="196" y="214" width="14" height="14" rx="3" fill="#fff" stroke="#c9a24a" stroke-width="2"/><text x="180" y="265" text-anchor="middle" font-size="12" fill="#c98f00">蒸發後糖結晶回來</text></g>
<g transform="translate(0,-14)"><image xlink:href="../characters/monster.svg" href="../characters/monster.svg" x="326" y="120" width="80" height="80"/><image xlink:href="../characters/bear.svg" href="../characters/bear.svg" x="414" y="120" width="80" height="80"/></g>
<circle cx="40" cy="40" r="22" fill="#6b4f3a"/><text x="40" y="47" text-anchor="middle" font-size="19" fill="#fff" font-weight="bold">5</text>
<rect x="0" y="278" width="520" height="42" fill="#6b4f3a"/>
<text x="14" y="297" font-size="13" fill="#fff">📖 第5頁：水蒸發後，糖又出現了。</text>
<text x="14" y="314" font-size="12" fill="#f4d9a8">👾「糖消失了啦！」🐻「蒸發後糖就回來了！」</text>
</svg>
