<svg xmlns="http://www.w3.org/2000/svg" xmlns:xlink="http://www.w3.org/1999/xlink" viewBox="0 0 520 320" font-family="'Microsoft JhengHei','Noto Sans TC',sans-serif">
<rect width="520" height="320" fill="#fff4ea"/>
<path d="M60 160 h60 l-6 90 h-48 z" fill="#dbeefb" stroke="#7fb0d6" stroke-width="2" opacity="0.85"/><path d="M64 200 h51 l-6 49 h-48 z" fill="#e8dcc4"/><path d="M130 160 h60 l-6 90 h-48 z" fill="#dbeefb" stroke="#7fb0d6" stroke-width="2" opacity="0.85"/><path d="M134 200 h51 l-6 49 h-48 z" fill="#dbeefb"/><path d="M200 160 h60 l-6 90 h-48 z" fill="#dbeefb" stroke="#7fb0d6" stroke-width="2" opacity="0.85"/><path d="M204 200 h51 l-6 49 h-48 z" fill="#f6e9cf"/><circle cx="300" cy="150" r="16" fill="#eaf4fb" stroke="#5a6b7c" stroke-width="3"/><line x1="312" y1="162" x2="326" y2="176" stroke="#5a6b7c" stroke-width="5" stroke-linecap="round"/>
<image xlink:href="../characters/drop.svg" href="../characters/drop.svg" x="398" y="150" width="74" height="74"/>
<circle cx="40" cy="40" r="22" fill="#6b4f3a"/><text x="40" y="47" text-anchor="middle" font-size="19" fill="#fff" font-weight="bold">6</text>
<rect x="0" y="278" width="520" height="42" fill="#6b4f3a"/>
<text x="14" y="297" font-size="13" fill="#fff">📖 第6頁：當溶解偵探，分兩隊、看糖現身。</text>
<text x="14" y="314" font-size="12" fill="#f4d9a8">💧「用食材做、不亂嚐、玻璃小心！」</text>
</svg>
