<svg xmlns="http://www.w3.org/2000/svg" xmlns:xlink="http://www.w3.org/1999/xlink" viewBox="0 0 520 320" font-family="'Microsoft JhengHei','Noto Sans TC',sans-serif">
<rect width="520" height="320" fill="#eef8ee"/>
<path d="M120 86 C154 106 154 150 120 160 C86 150 86 106 120 86 Z" fill="#a9d6a0" stroke="#4f9a52" stroke-width="2"/><path d="M120 90 L120 156" stroke="#2f7d3a" stroke-width="2"/><path d="M120 106 q16 4 24 16 M120 106 q-16 4 -24 16 M120 126 q16 4 24 16 M120 126 q-16 4 -24 16" stroke="#4f9a52" stroke-width="1.4" fill="none"/><line x1="240" y1="90" x2="240" y2="150" stroke="#4f9a52" stroke-width="6" stroke-linecap="round"/><text x="240" y="175" text-anchor="middle" font-size="12" fill="#4a6b32">寬葉 vs 松針</text>
<image xlink:href="../characters/monster.svg" href="../characters/monster.svg" x="322" y="150" width="74" height="74"/><image xlink:href="../characters/bear.svg" href="../characters/bear.svg" x="410" y="150" width="74" height="74"/>
<circle cx="40" cy="40" r="22" fill="#6b4f3a"/><text x="40" y="47" text-anchor="middle" font-size="19" fill="#fff" font-weight="bold">5</text>
<rect x="0" y="278" width="520" height="42" fill="#6b4f3a"/>
<text x="14" y="297" font-size="13" fill="#fff">📖 第5頁：葉子的形狀，其實跟怎麼活得好有關。</text>
<text x="14" y="314" font-size="12" fill="#f4d9a8">👾「葉子亂長的啦！」🐻「松樹縮成針葉是為了少流失水分！」</text>
</svg>
