<svg xmlns="http://www.w3.org/2000/svg" xmlns:xlink="http://www.w3.org/1999/xlink" viewBox="0 0 520 320" font-family="'Microsoft JhengHei','Noto Sans TC',sans-serif">
<rect width="520" height="320" fill="#eef8ee"/>
<rect x="0" y="0" width="520" height="278" fill="#ffffff" opacity="0.18"/>
<ellipse cx="235" cy="250" rx="210" ry="26" fill="#00000010"/>
<g transform="translate(0,-26)"><path d="M120 86 C154 106 154 150 120 160 C86 150 86 106 120 86 Z" fill="#bfe3b6" stroke="#4f9a52" stroke-width="2"/><path d="M120 90 L120 156" stroke="#2f7d3a" stroke-width="2"/><path d="M120 106 q16 4 24 16 M120 106 q-16 4 -24 16 M120 126 q16 4 24 16 M120 126 q-16 4 -24 16" stroke="#4f9a52" stroke-width="1.4" fill="none"/><path d="M220 86 C254 106 254 150 220 160 C186 150 186 106 220 86 Z" fill="#bfe3b6" stroke="#4f9a52" stroke-width="2"/><path d="M220 90 L220 156" stroke="#2f7d3a" stroke-width="2"/><path d="M212 94 q-3 34 2 60 M228 94 q3 34 -2 60" stroke="#4f9a52" stroke-width="1.4" fill="none"/><path d="M94 236 l6 -30 h40 l6 30 z" fill="#c98a5a"/><rect x="92" y="196" width="56" height="12" rx="3" fill="#a86f3f"/><path d="M120 196 v-24" stroke="#5aa469" stroke-width="5"/><path d="M120 178 q-12 -6 -18 2" fill="#5aa469"/><path d="M120 174 q12 -6 18 2" fill="#5aa469"/><path d="M194 236 l6 -30 h40 l6 30 z" fill="#c98a5a"/><rect x="192" y="196" width="56" height="12" rx="3" fill="#a86f3f"/><path d="M220 196 v-24" stroke="#5aa469" stroke-width="5"/><path d="M220 178 q-12 -6 -18 2" fill="#5aa469"/><path d="M220 174 q12 -6 18 2" fill="#5aa469"/></g>
<g transform="translate(0,-14)"><image xlink:href="../characters/beetle.svg" href="../characters/beetle.svg" x="402" y="120" width="80" height="80"/></g>
<circle cx="40" cy="40" r="22" fill="#6b4f3a"/><text x="40" y="47" text-anchor="middle" font-size="19" fill="#fff" font-weight="bold">4</text>
<rect x="0" y="278" width="520" height="42" fill="#6b4f3a"/>
<text x="14" y="297" font-size="13" fill="#fff">📖 第4頁：密碼從種子發芽時就寫好了。</text>
<text x="14" y="314" font-size="12" fill="#f4d9a8">🪲：「一片子葉還是兩片，早就決定啦！」</text>
</svg>
