<svg xmlns="http://www.w3.org/2000/svg" xmlns:xlink="http://www.w3.org/1999/xlink" viewBox="0 0 520 320" font-family="'Microsoft JhengHei','Noto Sans TC',sans-serif">
<rect width="520" height="320" fill="#eef8ee"/>
<path d="M170 86 C204 106 204 150 170 160 C136 150 136 106 170 86 Z" fill="#a9d6a0" stroke="#4f9a52" stroke-width="2"/><path d="M170 90 L170 156" stroke="#2f7d3a" stroke-width="2"/><path d="M170 106 q16 4 24 16 M170 106 q-16 4 -24 16 M170 126 q16 4 24 16 M170 126 q-16 4 -24 16" stroke="#4f9a52" stroke-width="1.4" fill="none"/><text x="170" y="200" text-anchor="middle" font-size="12" fill="#4a6b32">葉脈＝血管＋骨架</text>
<image xlink:href="../characters/bear.svg" href="../characters/bear.svg" x="398" y="150" width="74" height="74"/>
<circle cx="40" cy="40" r="22" fill="#6b4f3a"/><text x="40" y="47" text-anchor="middle" font-size="19" fill="#fff" font-weight="bold">3</text>
<rect x="0" y="278" width="520" height="42" fill="#6b4f3a"/>
<text x="14" y="297" font-size="13" fill="#fff">📖 第3頁：葉脈負責運送水分養分，還撐住葉片。</text>
<text x="14" y="314" font-size="12" fill="#f4d9a8">🐻：「網狀脈、平行脈，是植物的第一個密碼。」</text>
</svg>
