<svg xmlns="http://www.w3.org/2000/svg" xmlns:xlink="http://www.w3.org/1999/xlink" viewBox="0 0 520 320" font-family="'Microsoft JhengHei','Noto Sans TC',sans-serif">
<rect width="520" height="320" fill="#eef8ee"/>
<rect x="0" y="0" width="520" height="278" fill="#ffffff" opacity="0.18"/>
<ellipse cx="235" cy="250" rx="210" ry="26" fill="#00000010"/>
<g transform="translate(0,-26)"><circle cx="430" cy="58" r="22" fill="#f4b400"/><g stroke="#f4b400" stroke-width="3" stroke-linecap="round"><line x1="456" y1="58" x2="464" y2="58"/><line x1="448" y1="76" x2="454" y2="82"/><line x1="430" y1="84" x2="430" y2="92"/><line x1="412" y1="76" x2="406" y2="82"/><line x1="404" y1="58" x2="396" y2="58"/><line x1="412" y1="40" x2="406" y2="34"/><line x1="430" y1="32" x2="430" y2="24"/><line x1="448" y1="40" x2="454" y2="34"/></g><path d="M200 86 C234 106 234 150 200 160 C166 150 166 106 200 86 Z" fill="#a9d6a0" stroke="#4f9a52" stroke-width="2"/><path d="M200 90 L200 156" stroke="#2f7d3a" stroke-width="2"/><path d="M200 106 q16 4 24 16 M200 106 q-16 4 -24 16 M200 126 q16 4 24 16 M200 126 q-16 4 -24 16" stroke="#4f9a52" stroke-width="1.4" fill="none"/><text x="200" y="180" text-anchor="middle" font-size="12" fill="#4a6b32">對著光看，葉脈現形</text></g>
<g transform="translate(0,-14)"><image xlink:href="../characters/fox.svg" href="../characters/fox.svg" x="402" y="120" width="80" height="80"/></g>
<circle cx="40" cy="40" r="22" fill="#6b4f3a"/><text x="40" y="47" text-anchor="middle" font-size="19" fill="#fff" font-weight="bold">2</text>
<rect x="0" y="278" width="520" height="42" fill="#6b4f3a"/>
<text x="14" y="297" font-size="13" fill="#fff">📖 第2頁：對著光一看，葉子裡有一條條的線！</text>
<text x="14" y="314" font-size="12" fill="#f4d9a8">🦊：「有的像蜘蛛網，有的像斑馬線！」</text>
</svg>
