<svg xmlns="http://www.w3.org/2000/svg" xmlns:xlink="http://www.w3.org/1999/xlink" viewBox="0 0 520 320" font-family="'Microsoft JhengHei','Noto Sans TC',sans-serif">
<rect width="520" height="320" fill="#eef8ee"/>
<rect x="0" y="236" width="520" height="104" fill="#bfe3a8"/><rect x="0" y="236" width="520" height="8" fill="#00000018"/><path d="M120 166 C154 186 154 230 120 240 C86 230 86 186 120 166 Z" fill="#a9d6a0" stroke="#4f9a52" stroke-width="2"/><path d="M120 170 L120 236" stroke="#2f7d3a" stroke-width="2"/><path d="M120 186 q16 4 24 16 M120 186 q-16 4 -24 16 M120 206 q16 4 24 16 M120 206 q-16 4 -24 16" stroke="#4f9a52" stroke-width="1.4" fill="none"/><path d="M185 171 C219 191 219 235 185 245 C151 235 151 191 185 171 Z" fill="#a9d6a0" stroke="#4f9a52" stroke-width="2"/><path d="M185 175 L185 241" stroke="#2f7d3a" stroke-width="2"/><path d="M177 179 q-3 34 2 60 M193 179 q3 34 -2 60" stroke="#4f9a52" stroke-width="1.4" fill="none"/><circle cx="255" cy="150" r="16" fill="#eaf4fb" stroke="#5a6b7c" stroke-width="3"/><line x1="267" y1="162" x2="281" y2="176" stroke="#5a6b7c" stroke-width="5" stroke-linecap="round"/>
<image xlink:href="../characters/fox.svg" href="../characters/fox.svg" x="322" y="150" width="74" height="74"/><image xlink:href="../characters/drop.svg" href="../characters/drop.svg" x="410" y="150" width="74" height="74"/>
<circle cx="40" cy="40" r="22" fill="#6b4f3a"/><text x="40" y="47" text-anchor="middle" font-size="19" fill="#fff" font-weight="bold">6</text>
<rect x="0" y="278" width="520" height="42" fill="#6b4f3a"/>
<text x="14" y="297" font-size="13" fill="#fff">📖 第6頁：當個植物偵探，破解每片葉子的密碼！</text>
<text x="14" y="314" font-size="12" fill="#f4d9a8">🦊「這片是網狀脈、鋸齒緣！」💧「撿地上的就好，碰完要洗手喔。」</text>
</svg>
