<svg xmlns="http://www.w3.org/2000/svg" xmlns:xlink="http://www.w3.org/1999/xlink" viewBox="0 0 520 320" font-family="'Microsoft JhengHei','Noto Sans TC',sans-serif">
<rect width="520" height="320" fill="#eef8ee"/>
<rect x="0" y="0" width="520" height="278" fill="#ffffff" opacity="0.18"/>
<ellipse cx="235" cy="250" rx="210" ry="26" fill="#00000010"/>
<g transform="translate(0,-26)"><ellipse cx="95" cy="170" rx="52" ry="38" fill="#9ccb7a" stroke="#5a8a3a" stroke-width="2"/><ellipse cx="67" cy="182" rx="30" ry="22" fill="#addc8b"/><ellipse cx="123" cy="180" rx="32" ry="22" fill="#addc8b"/><rect x="86" y="180" width="18" height="56" fill="#b98b5a"/><rect x="0" y="236" width="520" height="104" fill="#bfe3a8"/><rect x="0" y="236" width="520" height="8" fill="#00000018"/><path d="M180 171 C214 191 214 235 180 245 C146 235 146 191 180 171 Z" fill="#a9d6a0" stroke="#4f9a52" stroke-width="2"/><path d="M180 175 L180 241" stroke="#2f7d3a" stroke-width="2"/><path d="M180 191 q16 4 24 16 M180 191 q-16 4 -24 16 M180 211 q16 4 24 16 M180 211 q-16 4 -24 16" stroke="#4f9a52" stroke-width="1.4" fill="none"/><path d="M235 176 C269 196 269 240 235 250 C201 240 201 196 235 176 Z" fill="#a9d6a0" stroke="#4f9a52" stroke-width="2"/><path d="M235 180 L235 246" stroke="#2f7d3a" stroke-width="2"/><path d="M227 184 q-3 34 2 60 M243 184 q3 34 -2 60" stroke="#4f9a52" stroke-width="1.4" fill="none"/><path d="M285 171 C319 191 319 235 285 245 C251 235 251 191 285 171 Z" fill="#a9d6a0" stroke="#4f9a52" stroke-width="2"/><path d="M285 175 L285 241" stroke="#2f7d3a" stroke-width="2"/><path d="M285 191 q16 4 24 16 M285 191 q-16 4 -24 16 M285 211 q16 4 24 16 M285 211 q-16 4 -24 16" stroke="#4f9a52" stroke-width="1.4" fill="none"/></g>
<g transform="translate(0,-14)"><image xlink:href="../characters/fox.svg" href="../characters/fox.svg" x="402" y="120" width="80" height="80"/></g>
<circle cx="40" cy="40" r="22" fill="#6b4f3a"/><text x="40" y="47" text-anchor="middle" font-size="19" fill="#fff" font-weight="bold">1</text>
<rect x="0" y="278" width="520" height="42" fill="#6b4f3a"/>
<text x="14" y="297" font-size="13" fill="#fff">📖 第1頁：每一片葉子都長得不一樣，好特別。</text>
<text x="14" y="314" font-size="12" fill="#f4d9a8">🦊：「怎麼每片葉子都不同呀？」</text>
</svg>
