<svg xmlns="http://www.w3.org/2000/svg" xmlns:xlink="http://www.w3.org/1999/xlink" viewBox="0 0 520 320" font-family="'Microsoft JhengHei','Noto Sans TC',sans-serif">
<rect width="520" height="320" fill="#eef4ea"/>
<rect x="0" y="0" width="520" height="278" fill="#eef2e6" opacity="0.6"/>
<ellipse cx="260" cy="252" rx="230" ry="22" fill="#00000010"/>
<!-- leaf with water drop magnifying veins -->
<path d="M280 200 q60 -50 130 -18 q18 46 -30 70 q-70 20 -100 -20 Z" fill="#8fce6f" stroke="#5a9a3a" stroke-width="2"/>
<g stroke="#5a9a3a" stroke-width="1.5"><path d="M300 200 q40 -20 90 -6"/><path d="M320 180 l-6 30 M350 176 l-4 34"/></g>
<!-- water drop -->
<ellipse cx="350" cy="185" rx="26" ry="20" fill="#bfe0f5" stroke="#7fb0d6" stroke-width="2" opacity="0.85"/>
<g stroke="#3a7a2a" stroke-width="2.5"><path d="M338 185 h24 M350 175 v20"/></g>
<text x="410" y="160" font-size="10" fill="#3a7a5a">水珠放大葉脈</text>
<!-- drop character -->
<g transform="translate(50,150)"><image xlink:href="../characters/drop.svg" href="../characters/drop.svg" x="0" y="0" width="92" height="92"/></g>
<circle cx="40" cy="40" r="22" fill="#6b4f3a"/><text x="40" y="47" text-anchor="middle" font-size="19" fill="#fff" font-weight="bold">5</text>
<rect x="0" y="278" width="520" height="42" fill="#6b4f3a"/>
<text x="14" y="297" font-size="13" fill="#fff">📖 第5頁：一滴水就是天然的凸透鏡。</text>
<text x="14" y="314" font-size="12" fill="#f4d9a8">💧：「水滴也能放大喔！」</text>
</svg>
