<svg xmlns="http://www.w3.org/2000/svg" xmlns:xlink="http://www.w3.org/1999/xlink" viewBox="0 0 520 320" font-family="'Microsoft JhengHei','Noto Sans TC',sans-serif">
<rect width="520" height="320" fill="#efe4ec"/>
<rect x="0" y="205" width="520" height="73" fill="#c9b878" opacity="0.3"/>
<!-- monster -->
<g transform="translate(40,140)"><image xlink:href="../characters/monster.svg" href="../characters/monster.svg" x="0" y="0" width="92" height="92"/></g>
<text x="150" y="118" font-size="24" fill="#a24a8a" font-weight="bold">?!</text>
<!-- day-night clock showing respiration all day -->
<circle cx="290" cy="135" r="60" fill="#fff" stroke="#c08a4a" stroke-width="3"/>
<path d="M290 135 L290 75 A60 60 0 0 1 290 195 Z" fill="#ffe9a8"/>
<path d="M290 135 L290 195 A60 60 0 0 1 290 75 Z" fill="#c8cbe0"/>
<circle cx="255" cy="100" r="9" fill="#ffd24a"/><circle cx="325" cy="170" r="9" fill="#dfe0f0"/>
<text x="290" y="140" text-anchor="middle" font-size="11" fill="#a0602a" font-weight="bold">呼吸</text>
<text x="290" y="153" text-anchor="middle" font-size="10" fill="#a0602a">日夜都做</text>
<!-- bear -->
<g transform="translate(390,140)"><image xlink:href="../characters/bear.svg" href="../characters/bear.svg" x="0" y="0" width="92" height="92"/></g>
<circle cx="45" cy="40" r="22" fill="#6b4f3a"/><text x="45" y="47" text-anchor="middle" font-size="19" fill="#fff" font-weight="bold">6</text>
<rect x="0" y="278" width="520" height="42" fill="#6b4f3a"/>
<text x="14" y="297" font-size="13" fill="#fff">📖 第6頁：呼吸日夜都做，光合才只在白天。</text>
<text x="14" y="314" font-size="12" fill="#f4d9a8">👾「白天光合、晚上才呼吸！」🐻「呼吸一整天都在做喔！」</text>
</svg>
