<svg xmlns="http://www.w3.org/2000/svg" xmlns:xlink="http://www.w3.org/1999/xlink" viewBox="0 0 520 320" font-family="'Microsoft JhengHei','Noto Sans TC',sans-serif">
<rect width="520" height="320" fill="#2a2a4a"/>
<rect x="0" y="205" width="520" height="73" fill="#1a1a30"/>
<!-- moon & window -->
<rect x="350" y="50" width="140" height="150" fill="#3a3a5a" stroke="#5a5a7a" stroke-width="3"/>
<circle cx="440" cy="95" r="20" fill="#f0f0c0"/>
<g fill="#fff"><circle cx="380" cy="80" r="2"/><circle cx="470" cy="140" r="2"/></g>
<!-- potted plant -->
<path d="M250 175 l6 30 q0 6 8 6 l30 0 q8 0 8 -6 l6 -30z" fill="#c9784a"/>
<line x1="278" y1="120" x2="278" y2="176" stroke="#4a7030" stroke-width="5"/>
<ellipse cx="278" cy="108" rx="30" ry="18" fill="#6ba03a"/>
<ellipse cx="255" cy="130" rx="18" ry="10" fill="#7bb046"/>
<!-- fox -->
<g transform="translate(60,130)"><image xlink:href="../characters/fox.svg" href="../characters/fox.svg" x="0" y="0" width="96" height="96"/></g>
<circle cx="45" cy="40" r="22" fill="#c0a060"/><text x="45" y="47" text-anchor="middle" font-size="19" fill="#fff" font-weight="bold">1</text>
<rect x="0" y="278" width="520" height="42" fill="#3a2a4a"/>
<text x="14" y="297" font-size="13" fill="#fff">📖 第1頁：睡前，小狐擔心晚上盆栽會搶空氣。</text>
<text x="14" y="314" font-size="12" fill="#f4d9a8">🦊：「它是好朋友還是壞朋友？」</text>
</svg>
