<svg xmlns="http://www.w3.org/2000/svg" xmlns:xlink="http://www.w3.org/1999/xlink" viewBox="0 0 520 320" font-family="'Microsoft JhengHei','Noto Sans TC',sans-serif">
<rect width="520" height="320" fill="#f3f8ee"/>
<rect x="0" y="0" width="520" height="278" fill="#ffffff" opacity="0.18"/>
<ellipse cx="235" cy="250" rx="210" ry="26" fill="#00000010"/>
<g transform="translate(0,-26)"><circle cx="162" cy="150" r="9" fill="#f6c9de"/><circle cx="156" cy="160" r="9" fill="#f6c9de"/><circle cx="144" cy="160" r="9" fill="#f6c9de"/><circle cx="138" cy="150" r="9" fill="#f6c9de"/><circle cx="144" cy="140" r="9" fill="#f6c9de"/><circle cx="156" cy="140" r="9" fill="#f6c9de"/><circle cx="150" cy="150" r="8" fill="#e0a84e"/><line x1="150" y1="168" x2="150" y2="206" stroke="#5aa469" stroke-width="4"/><ellipse cx="220" cy="130" rx="12" ry="8" fill="#f2c14e" stroke="#333" stroke-width="1.5"/><line x1="217" y1="123" x2="217" y2="137" stroke="#333" stroke-width="2"/><line x1="223" y1="123" x2="223" y2="137" stroke="#333" stroke-width="2"/><ellipse cx="214" cy="122" rx="8" ry="5" fill="#fff" opacity="0.8"/><text x="185" y="205" text-anchor="middle" font-size="12" fill="#c98f00">蜜蜂傳粉</text></g>
<g transform="translate(0,-14)"><image xlink:href="../characters/beetle.svg" href="../characters/beetle.svg" x="402" y="120" width="80" height="80"/></g>
<circle cx="40" cy="40" r="22" fill="#6b4f3a"/><text x="40" y="47" text-anchor="middle" font-size="19" fill="#fff" font-weight="bold">3</text>
<rect x="0" y="278" width="520" height="42" fill="#6b4f3a"/>
<text x="14" y="297" font-size="13" fill="#fff">📖 第3頁：蟲媒花靠昆蟲傳粉，風媒花靠風。</text>
<text x="14" y="314" font-size="12" fill="#f4d9a8">🪲：「花的長相配合傳粉方式！」</text>
</svg>
