<svg xmlns="http://www.w3.org/2000/svg" xmlns:xlink="http://www.w3.org/1999/xlink" viewBox="0 0 520 320" font-family="'Microsoft JhengHei','Noto Sans TC',sans-serif">
<rect width="520" height="320" fill="#e4f0d6"/>
<rect x="0" y="205" width="520" height="73" fill="#c9a86a" opacity="0.4"/>
<!-- table -->
<rect x="250" y="200" width="230" height="14" fill="#c9905a"/>
<!-- glass with celery -->
<path d="M330 150 L326 205 q0 8 10 8 L378 213 q10 0 10 -8 L384 150 z" fill="#cfeaf2" stroke="#88b8c8" stroke-width="2"/>
<path d="M328 175 L386 175 L382 205 q0 8 -10 8 L336 213 q-10 0 -10 -8 z" fill="#a6d4e4" opacity="0.6"/>
<rect x="350" y="95" width="8" height="60" fill="#8fbf50"/>
<ellipse cx="345" cy="92" rx="20" ry="11" fill="#7bb046" transform="rotate(-22 345 92)"/>
<ellipse cx="365" cy="90" rx="20" ry="11" fill="#7bb046" transform="rotate(22 365 90)"/>
<!-- fox -->
<g transform="translate(70,130)"><image xlink:href="../characters/fox.svg" href="../characters/fox.svg" x="0" y="0" width="96" height="96"/></g>
<circle cx="45" cy="40" r="22" fill="#6b4f3a"/><text x="45" y="47" text-anchor="middle" font-size="19" fill="#fff" font-weight="bold">1</text>
<rect x="0" y="278" width="520" height="42" fill="#6b4f3a"/>
<text x="14" y="297" font-size="13" fill="#fff">📖 第1頁：芹菜插在水杯裡保鮮，小狐好奇起來。</text>
<text x="14" y="314" font-size="12" fill="#f4d9a8">🦊：「根泡在水裡，水怎麼跑到葉子？」</text>
</svg>
