<svg xmlns="http://www.w3.org/2000/svg" xmlns:xlink="http://www.w3.org/1999/xlink" viewBox="0 0 520 320" font-family="'Microsoft JhengHei','Noto Sans TC',sans-serif">
<rect width="520" height="320" fill="#efe2ec"/>
<rect x="0" y="205" width="520" height="73" fill="#c9a86a" opacity="0.4"/>
<rect x="180" y="205" width="180" height="12" fill="#c9905a"/>
<!-- monster -->
<g transform="translate(40,140)"><image xlink:href="../characters/monster.svg" href="../characters/monster.svg" x="0" y="0" width="92" height="92"/></g>
<text x="150" y="115" font-size="24" fill="#a24a8a" font-weight="bold">?!</text>
<!-- celery only bottom in red water -->
<path d="M240 155 L236 205 q0 8 10 8 L286 213 q10 0 10 -8 L292 155 z" fill="#f4c6cf" stroke="#c98a96" stroke-width="2"/>
<path d="M238 178 L294 178 L288 205 q0 8 -10 8 L246 213 q-10 0 -10 -8 z" fill="#e57a8c" opacity="0.7"/>
<rect x="262" y="88" width="8" height="68" fill="#8fbf50"/>
<line x1="265" y1="155" x2="265" y2="92" stroke="#d63a52" stroke-width="2"/>
<ellipse cx="256" cy="86" rx="20" ry="11" fill="#7bb046" transform="rotate(-22 256 86)"/>
<ellipse cx="276" cy="84" rx="20" ry="11" fill="#7bb046" transform="rotate(22 276 84)"/>
<text x="266" y="235" text-anchor="middle" font-size="11" fill="#b0405a">只有下端泡水</text>
<!-- bear -->
<g transform="translate(390,140)"><image xlink:href="../characters/bear.svg" href="../characters/bear.svg" x="0" y="0" width="92" height="92"/></g>
<circle cx="45" cy="40" r="22" fill="#6b4f3a"/><text x="45" y="47" text-anchor="middle" font-size="19" fill="#fff" font-weight="bold">6</text>
<rect x="0" y="278" width="520" height="42" fill="#6b4f3a"/>
<text x="14" y="297" font-size="13" fill="#fff">📖 第6頁：植物主要靠根喝水，不是葉子。</text>
<text x="14" y="314" font-size="12" fill="#f4d9a8">👾「葉子喝雨水啦！」🐻「下端泡水，紅色卻往上跑喔！」</text>
</svg>
