<svg xmlns="http://www.w3.org/2000/svg" xmlns:xlink="http://www.w3.org/1999/xlink" viewBox="0 0 520 320" font-family="'Microsoft JhengHei','Noto Sans TC',sans-serif">
<rect width="520" height="320" fill="#e2f0ea"/>
<rect x="0" y="205" width="520" height="73" fill="#a9754a" opacity="0.35"/>
<!-- plant with flow path -->
<rect x="290" y="120" width="12" height="115" fill="#5f9432"/>
<ellipse cx="296" cy="100" rx="42" ry="24" fill="#7bb046"/>
<ellipse cx="255" cy="135" rx="30" ry="15" fill="#6ba03a" transform="rotate(-18 255 135)"/>
<g stroke="#8a5a34" stroke-width="4" fill="none"><path d="M296 235 q-20 24 -36 50"/><path d="M296 235 q20 24 36 50"/></g>
<path d="M285 235 L285 118" stroke="#3a8ad0" stroke-width="4" fill="none" marker-end="url(#u5)"/>
<defs><marker id="u5" markerWidth="12" markerHeight="12" refX="4" refY="2" orient="auto"><path d="M0 8 L4 0 L8 8 z" fill="#3a8ad0"/></marker></defs>
<g stroke="#a8cbe0" stroke-width="3" fill="none"><path d="M280 92 q-6 -18 4 -32"/><path d="M312 92 q6 -18 -4 -30"/></g>
<text x="345" y="90" font-size="11" fill="#5a8ab0">蒸散</text>
<!-- drop -->
<g transform="translate(60,135)"><image xlink:href="../characters/drop.svg" href="../characters/drop.svg" x="0" y="0" width="90" height="90"/></g>
<circle cx="45" cy="40" r="22" fill="#6b4f3a"/><text x="45" y="47" text-anchor="middle" font-size="19" fill="#fff" font-weight="bold">5</text>
<rect x="0" y="278" width="520" height="42" fill="#6b4f3a"/>
<text x="14" y="297" font-size="13" fill="#fff">📖 第5頁：水從根到莖到葉，再蒸散出去。</text>
<text x="14" y="314" font-size="12" fill="#f4d9a8">💧：「葉子把水蒸散，像在流汗！」</text>
</svg>
