<svg xmlns="http://www.w3.org/2000/svg" xmlns:xlink="http://www.w3.org/1999/xlink" viewBox="0 0 520 320" font-family="'Microsoft JhengHei','Noto Sans TC',sans-serif">
<rect width="520" height="320" fill="#f6e6e8"/>
<rect x="0" y="205" width="520" height="73" fill="#c9a86a" opacity="0.4"/>
<rect x="40" y="205" width="230" height="12" fill="#c9905a"/>
<!-- glass red water -->
<path d="M120 140 L114 205 q0 10 12 10 L176 215 q12 0 12 -10 L182 140 z" fill="#f4c6cf" stroke="#c98a96" stroke-width="2"/>
<path d="M117 168 L185 168 L179 205 q0 10 -12 10 L126 215 q-12 0 -12 -10 z" fill="#e57a8c" opacity="0.75"/>
<rect x="146" y="80" width="8" height="62" fill="#8fbf50"/>
<ellipse cx="140" cy="78" rx="20" ry="11" fill="#7bb046" transform="rotate(-22 140 78)"/>
<ellipse cx="162" cy="76" rx="20" ry="11" fill="#7bb046" transform="rotate(22 162 76)"/>
<text x="150" y="240" text-anchor="middle" font-size="12" fill="#b0405a">紅色素水</text>
<!-- bear -->
<g transform="translate(300,120)"><image xlink:href="../characters/bear.svg" href="../characters/bear.svg" x="0" y="0" width="100" height="100"/></g>
<circle cx="45" cy="40" r="22" fill="#6b4f3a"/><text x="45" y="47" text-anchor="middle" font-size="19" fill="#fff" font-weight="bold">2</text>
<rect x="0" y="278" width="520" height="42" fill="#6b4f3a"/>
<text x="14" y="297" font-size="13" fill="#fff">📖 第2頁：把芹菜插進紅色素水，放窗邊等明天。</text>
<text x="14" y="314" font-size="12" fill="#f4d9a8">🐻：「把芹菜插進紅水裡等等看！」</text>
</svg>
