<svg xmlns="http://www.w3.org/2000/svg" xmlns:xlink="http://www.w3.org/1999/xlink" viewBox="0 0 520 320" font-family="'Microsoft JhengHei','Noto Sans TC',sans-serif">
<rect width="520" height="320" fill="#f3f8ee"/>
<rect x="0" y="0" width="520" height="278" fill="#ffffff" opacity="0.18"/>
<ellipse cx="235" cy="250" rx="210" ry="26" fill="#00000010"/>
<g transform="translate(0,-26)"><rect x="0" y="236" width="520" height="104" fill="#bfe3a8"/><rect x="0" y="236" width="520" height="8" fill="#00000018"/><circle cx="172" cy="150" r="9" fill="#f6c9de"/><circle cx="166" cy="160" r="9" fill="#f6c9de"/><circle cx="154" cy="160" r="9" fill="#f6c9de"/><circle cx="148" cy="150" r="9" fill="#f6c9de"/><circle cx="154" cy="140" r="9" fill="#f6c9de"/><circle cx="166" cy="140" r="9" fill="#f6c9de"/><circle cx="160" cy="150" r="8" fill="#e0a84e"/><line x1="160" y1="168" x2="160" y2="206" stroke="#5aa469" stroke-width="4"/><ellipse cx="230" cy="120" rx="12" ry="8" fill="#f2c14e" stroke="#333" stroke-width="1.5"/><line x1="227" y1="113" x2="227" y2="127" stroke="#333" stroke-width="2"/><line x1="233" y1="113" x2="233" y2="127" stroke="#333" stroke-width="2"/><ellipse cx="224" cy="112" rx="8" ry="5" fill="#fff" opacity="0.8"/><text x="180" y="205" text-anchor="middle" font-size="12" fill="#4a6b32">菜園的黃花與蜜蜂</text></g>
<g transform="translate(0,-14)"><image xlink:href="../characters/fox.svg" href="../characters/fox.svg" x="402" y="120" width="80" height="80"/></g>
<circle cx="40" cy="40" r="22" fill="#6b4f3a"/><text x="40" y="47" text-anchor="middle" font-size="19" fill="#fff" font-weight="bold">1</text>
<rect x="0" y="278" width="520" height="42" fill="#6b4f3a"/>
<text x="14" y="297" font-size="13" fill="#fff">📖 第1頁：阿嬤說：「這朵花以後會變成小黃瓜喔。」</text>
<text x="14" y="314" font-size="12" fill="#f4d9a8">🦊：「花怎麼會變成黃瓜？」</text>
</svg>
