<svg xmlns="http://www.w3.org/2000/svg" xmlns:xlink="http://www.w3.org/1999/xlink" viewBox="0 0 520 320" font-family="'Microsoft JhengHei','Noto Sans TC',sans-serif">
<rect width="520" height="320" fill="#eef4dd"/>
<rect x="0" y="205" width="520" height="73" fill="#c9a86a" opacity="0.4"/>
<rect x="250" y="205" width="230" height="12" fill="#c9905a"/>
<!-- celery with red lines, bigger -->
<path d="M330 150 L326 205 q0 8 10 8 L378 213 q10 0 10 -8 L384 150 z" fill="#f4c6cf" stroke="#c98a96" stroke-width="2"/>
<rect x="350" y="80" width="10" height="72" fill="#8fbf50"/>
<line x1="353" y1="150" x2="353" y2="86" stroke="#d63a52" stroke-width="2.5"/>
<line x1="357" y1="150" x2="357" y2="90" stroke="#d63a52" stroke-width="2.5"/>
<ellipse cx="340" cy="78" rx="24" ry="13" fill="#7bb046" transform="rotate(-22 340 78)"/>
<ellipse cx="368" cy="76" rx="24" ry="13" fill="#7bb046" transform="rotate(22 368 76)"/>
<g stroke="#d63a52" stroke-width="1.5"><path d="M355 90 l-16 -10"/><path d="M355 90 l16 -10"/></g>
<!-- fox surprised -->
<g transform="translate(60,130)"><image xlink:href="../characters/fox.svg" href="../characters/fox.svg" x="0" y="0" width="96" height="96"/></g>
<text x="185" y="120" font-size="24" fill="#d63a52" font-weight="bold">!</text>
<circle cx="45" cy="40" r="22" fill="#6b4f3a"/><text x="45" y="47" text-anchor="middle" font-size="19" fill="#fff" font-weight="bold">3</text>
<rect x="0" y="278" width="520" height="42" fill="#6b4f3a"/>
<text x="14" y="297" font-size="13" fill="#fff">📖 第3頁：隔天，芹菜莖葉出現紅色的線！</text>
<text x="14" y="314" font-size="12" fill="#f4d9a8">🦊：「哇！莖裡有紅線！」</text>
</svg>
