<svg xmlns="http://www.w3.org/2000/svg" xmlns:xlink="http://www.w3.org/1999/xlink" viewBox="0 0 520 320" font-family="'Microsoft JhengHei','Noto Sans TC',sans-serif">
<rect width="520" height="320" fill="#eaf1fb"/>
<rect x="0" y="0" width="520" height="278" fill="#eef1f5" opacity="0.6"/>
<ellipse cx="260" cy="252" rx="230" ry="22" fill="#00000010"/>
<!-- white light splitting diagram -->
<rect x="180" y="150" width="90" height="12" fill="#f0f0f0" stroke="#ccc"/>
<text x="200" y="140" font-size="13" fill="#888" font-weight="bold">白光</text>
<polygon points="270,120 270,200 320,190 305,140" fill="#d8ecf7" stroke="#7fb0d6" stroke-width="2"/>
<g stroke-width="6">
  <line x1="320" y1="165" x2="470" y2="120" stroke="#e23b3b"/>
  <line x1="320" y1="167" x2="470" y2="140" stroke="#f0821e"/>
  <line x1="320" y1="169" x2="470" y2="160" stroke="#f2c60f"/>
  <line x1="320" y1="171" x2="470" y2="180" stroke="#4caf50"/>
  <line x1="320" y1="173" x2="470" y2="200" stroke="#3a7bd5"/>
  <line x1="320" y1="175" x2="470" y2="220" stroke="#7b41c9"/>
</g>
<!-- bear -->
<g transform="translate(45,150)"><image xlink:href="../characters/bear.svg" href="../characters/bear.svg" x="0" y="0" width="92" height="92"/></g>
<circle cx="40" cy="40" r="22" fill="#6b4f3a"/><text x="40" y="47" text-anchor="middle" font-size="19" fill="#fff" font-weight="bold">3</text>
<rect x="0" y="278" width="520" height="42" fill="#6b4f3a"/>
<text x="14" y="297" font-size="13" fill="#fff">📖 第3頁：白光其實是很多色光混在一起。</text>
<text x="14" y="314" font-size="12" fill="#f4d9a8">🐻：「顏色本來就藏在陽光裡！」</text>
</svg>
