<svg xmlns="http://www.w3.org/2000/svg" xmlns:xlink="http://www.w3.org/1999/xlink" viewBox="0 0 520 320" font-family="'Microsoft JhengHei','Noto Sans TC',sans-serif">
<rect width="520" height="320" fill="#eaf1fb"/>
<rect x="0" y="0" width="520" height="278" fill="#d6e6f7" opacity="0.6"/>
<ellipse cx="260" cy="252" rx="230" ry="22" fill="#00000010"/>
<!-- sun behind -->
<circle cx="60" cy="70" r="22" fill="#f7d84a"/><text x="42" y="110" font-size="11" fill="#c9a10a">太陽在背後</text>
<!-- spray + small rainbow -->
<rect x="250" y="185" width="16" height="24" fill="#77c" stroke="#556"/>
<g opacity="0.9">
  <path d="M290 240 A55 55 0 0 1 360 190" fill="none" stroke="#e23b3b" stroke-width="5"/>
  <path d="M294 246 A47 47 0 0 1 356 200" fill="none" stroke="#f2c60f" stroke-width="5"/>
  <path d="M298 252 A39 39 0 0 1 352 210" fill="none" stroke="#4caf50" stroke-width="5"/>
  <path d="M302 258 A31 31 0 0 1 348 220" fill="none" stroke="#7b41c9" stroke-width="5"/>
</g>
<g fill="#9fd0ec"><circle cx="320" cy="235" r="2.5"/><circle cx="335" cy="225" r="2.5"/><circle cx="325" cy="250" r="2.5"/></g>
<!-- drop character -->
<g transform="translate(120,140)"><image xlink:href="../characters/drop.svg" href="../characters/drop.svg" x="0" y="0" width="90" height="90"/></g>
<circle cx="40" cy="40" r="22" fill="#6b4f3a"/><text x="40" y="47" text-anchor="middle" font-size="19" fill="#fff" font-weight="bold">6</text>
<rect x="0" y="278" width="520" height="42" fill="#6b4f3a"/>
<text x="14" y="297" font-size="13" fill="#fff">📖 第6頁：背對太陽噴水，自己造彩虹！</text>
<text x="14" y="314" font-size="12" fill="#f4d9a8">💧：「絕對不可以直接看太陽喔！」</text>
</svg>
