<svg xmlns="http://www.w3.org/2000/svg" xmlns:xlink="http://www.w3.org/1999/xlink" viewBox="0 0 520 320" font-family="'Microsoft JhengHei','Noto Sans TC',sans-serif">
<rect width="520" height="320" fill="#eaf1fb"/>
<rect x="0" y="0" width="520" height="278" fill="#eef1f5" opacity="0.6"/>
<ellipse cx="260" cy="252" rx="230" ry="22" fill="#00000010"/>
<!-- monster with paint buckets -->
<g transform="translate(360,120)"><image xlink:href="../characters/monster.svg" href="../characters/monster.svg" x="0" y="0" width="92" height="92"/></g>
<g>
  <rect x="330" y="210" width="26" height="26" rx="3" fill="#e23b3b"/>
  <rect x="362" y="210" width="26" height="26" rx="3" fill="#f2c60f"/>
  <rect x="394" y="210" width="26" height="26" rx="3" fill="#3a7bd5"/>
  <text x="375" y="256" text-anchor="middle" font-size="11" fill="#888">七桶顏料？✗</text>
</g>
<!-- bear with prism correcting -->
<g transform="translate(45,150)"><image xlink:href="../characters/bear.svg" href="../characters/bear.svg" x="0" y="0" width="92" height="92"/></g>
<polygon points="150,150 150,195 185,188 172,162" fill="#d8ecf7" stroke="#7fb0d6" stroke-width="2"/>
<g stroke-width="4">
  <line x1="185" y1="172" x2="260" y2="150" stroke="#e23b3b"/>
  <line x1="185" y1="174" x2="260" y2="165" stroke="#4caf50"/>
  <line x1="185" y1="176" x2="260" y2="180" stroke="#7b41c9"/>
</g>
<circle cx="40" cy="40" r="22" fill="#6b4f3a"/><text x="40" y="47" text-anchor="middle" font-size="19" fill="#fff" font-weight="bold">5</text>
<rect x="0" y="278" width="520" height="42" fill="#6b4f3a"/>
<text x="14" y="297" font-size="13" fill="#fff">📖 第5頁：顏色不是加上去的。</text>
<text x="14" y="314" font-size="12" fill="#f4d9a8">👾「天空倒了七桶顏料！」🐻「是分出來的！」</text>
</svg>
