<svg xmlns="http://www.w3.org/2000/svg" xmlns:xlink="http://www.w3.org/1999/xlink" viewBox="0 0 520 320" font-family="'Microsoft JhengHei','Noto Sans TC',sans-serif">
<rect width="520" height="320" fill="#eaf1fb"/>
<rect x="0" y="0" width="520" height="278" fill="#d6e6f7" opacity="0.6"/>
<ellipse cx="260" cy="252" rx="230" ry="22" fill="#00000010"/>
<!-- big rainbow -->
<g fill="none" stroke-width="9">
  <path d="M150 240 A150 150 0 0 1 450 240" stroke="#e23b3b"/>
  <path d="M162 240 A138 138 0 0 1 438 240" stroke="#f0821e"/>
  <path d="M174 240 A126 126 0 0 1 426 240" stroke="#f2c60f"/>
  <path d="M186 240 A114 114 0 0 1 414 240" stroke="#4caf50"/>
  <path d="M198 240 A102 102 0 0 1 402 240" stroke="#3a7bd5"/>
  <path d="M210 240 A90 90 0 0 1 390 240" stroke="#7b41c9"/>
</g>
<circle cx="455" cy="70" r="24" fill="#f7d84a"/>
<!-- fox -->
<g transform="translate(55,140)"><image xlink:href="../characters/fox.svg" href="../characters/fox.svg" x="0" y="0" width="86" height="86"/></g>
<circle cx="40" cy="40" r="22" fill="#6b4f3a"/><text x="40" y="47" text-anchor="middle" font-size="19" fill="#fff" font-weight="bold">1</text>
<rect x="0" y="278" width="520" height="42" fill="#6b4f3a"/>
<text x="14" y="297" font-size="13" fill="#fff">📖 第1頁：雨後天空掛起七彩大橋。</text>
<text x="14" y="314" font-size="12" fill="#f4d9a8">🦊：「這麼多顏色是誰畫上去的？」</text>
</svg>
