<svg xmlns="http://www.w3.org/2000/svg" xmlns:xlink="http://www.w3.org/1999/xlink" viewBox="0 0 520 320" font-family="'Microsoft JhengHei','Noto Sans TC',sans-serif">
<rect width="520" height="320" fill="#cfe4f2"/>
<rect x="0" y="205" width="520" height="73" fill="#8ab890" opacity="0.5"/>
<!-- wind turbines -->
<g>
<line x1="320" y1="205" x2="320" y2="110" stroke="#e8e8e8" stroke-width="6"/><circle cx="320" cy="110" r="6" fill="#ccc"/>
<g stroke="#f0f0f0" stroke-width="6"><line x1="320" y1="110" x2="320" y2="78"/><line x1="320" y1="110" x2="348" y2="126"/><line x1="320" y1="110" x2="292" y2="126"/></g>
<line x1="410" y1="205" x2="410" y2="135" stroke="#e8e8e8" stroke-width="5"/><circle cx="410" cy="135" r="5" fill="#ccc"/>
<g stroke="#f0f0f0" stroke-width="5"><line x1="410" y1="135" x2="410" y2="112"/><line x1="410" y1="135" x2="430" y2="147"/><line x1="410" y1="135" x2="390" y2="147"/></g>
</g>
<!-- fox on bus looking -->
<g transform="translate(75,130)"><image xlink:href="../characters/fox.svg" href="../characters/fox.svg" x="0" y="0" width="96" height="96"/></g>
<circle cx="45" cy="40" r="22" fill="#c0a060"/><text x="45" y="47" text-anchor="middle" font-size="19" fill="#fff" font-weight="bold">1</text>
<rect x="0" y="278" width="520" height="42" fill="#4a5a4a"/>
<text x="14" y="297" font-size="13" fill="#fff">📖 第1頁：校外教學路上，看見山海邊的大風車。</text>
<text x="14" y="314" font-size="12" fill="#f4d9a8">🦊：「那是給誰乘涼的嗎？」</text>
</svg>
