<svg xmlns="http://www.w3.org/2000/svg" xmlns:xlink="http://www.w3.org/1999/xlink" viewBox="0 0 520 320" font-family="'Microsoft JhengHei','Noto Sans TC',sans-serif">
<rect width="520" height="320" fill="#efe0ea"/>
<rect x="0" y="210" width="520" height="68" fill="#8a5a34" opacity="0.3"/>
<!-- monster surprised -->
<g transform="translate(40,140)"><image xlink:href="../characters/monster.svg" href="../characters/monster.svg" x="0" y="0" width="92" height="92"/></g>
<text x="150" y="110" font-size="26" fill="#a24a8a" font-weight="bold">?!</text>
<!-- bear pointing at jar -->
<g transform="translate(380,135)"><image xlink:href="../characters/bear.svg" href="../characters/bear.svg" x="0" y="0" width="90" height="90"/></g>
<!-- layered jar center -->
<g>
<path d="M235 90 L235 210 q0 16 16 16 L300 226 q16 0 16 -16 L316 90 z" fill="#e8f2f6" stroke="#88b8c8" stroke-width="3"/>
<path d="M235 90 L316 90" stroke="#88b8c8" stroke-width="3"/>
<path d="M235 150 L316 150 L316 185 L235 185 z" fill="#b98a63"/>
<path d="M235 185 L316 185 L316 200 L235 200 z" fill="#cf9f55"/>
<path d="M235 200 L316 200 L316 210 q0 16 16 16 L300 226 q16 0 16 -16 z" fill="#b07a3a"/>
<path d="M258 128 q8 -6 18 -2 q-3 10 -13 10 q-6 -3 -5 -8 z" fill="#8aa843" stroke="#5f7a26" stroke-width="1"/>
</g>
<circle cx="45" cy="40" r="22" fill="#6b4f3a"/><text x="45" y="47" text-anchor="middle" font-size="19" fill="#fff" font-weight="bold">6</text>
<rect x="0" y="278" width="520" height="42" fill="#6b4f3a"/>
<text x="14" y="297" font-size="13" fill="#fff">📖 第6頁：土壤不是一坨泥巴，是很多東西組成的。</text>
<text x="14" y="314" font-size="12" fill="#f4d9a8">👾「土都一樣啦！」🐻「你看，它分成好幾層喔！」</text>
</svg>
