<svg xmlns="http://www.w3.org/2000/svg" xmlns:xlink="http://www.w3.org/1999/xlink" viewBox="0 0 520 320" font-family="'Microsoft JhengHei','Noto Sans TC',sans-serif">
<rect width="520" height="320" fill="#e6ecc9"/>
<rect x="0" y="200" width="520" height="78" fill="#7a5230"/>
<!-- beetle -->
<g transform="translate(45,135)"><image xlink:href="../characters/beetle.svg" href="../characters/beetle.svg" x="0" y="0" width="92" height="92"/></g>
<!-- leaf turning into humus (arrow) -->
<path d="M210 120 q16 -14 34 -2 q-4 18 -24 18 q-14 -6 -10 -16 z" fill="#8aa843" stroke="#5f7a26" stroke-width="1.5"/>
<path d="M230 130 q16 -14 34 -2 q-4 18 -24 18 q-14 -6 -10 -16 z" fill="#c99a3a" stroke="#8a6420" stroke-width="1.5"/>
<path d="M270 140 L340 165" stroke="#5a4a3a" stroke-width="4" marker-end="url(#a4)"/>
<defs><marker id="a4" markerWidth="12" markerHeight="12" refX="4" refY="4" orient="auto"><path d="M0 8 L8 4 L0 0 z" fill="#5a4a3a"/></marker></defs>
<ellipse cx="390" cy="175" rx="55" ry="30" fill="#4b3218"/>
<text x="390" y="180" text-anchor="middle" font-size="13" fill="#f4d9a8" font-weight="bold">黑腐植質</text>
<!-- worm helping -->
<path d="M300 195 q20 -12 36 -2 q12 8 24 2" fill="none" stroke="#c56a7a" stroke-width="7" stroke-linecap="round"/>
<circle cx="45" cy="40" r="22" fill="#6b4f3a"/><text x="45" y="47" text-anchor="middle" font-size="19" fill="#fff" font-weight="bold">4</text>
<rect x="0" y="278" width="520" height="42" fill="#6b4f3a"/>
<text x="14" y="297" font-size="13" fill="#fff">📖 第4頁：落葉爛掉變成土壤的營養補給包。</text>
<text x="14" y="314" font-size="12" fill="#f4d9a8">🪲：「蚯蚓和微生物幫忙分解！」</text>
</svg>
