<svg xmlns="http://www.w3.org/2000/svg" xmlns:xlink="http://www.w3.org/1999/xlink" viewBox="0 0 520 320" font-family="'Microsoft JhengHei','Noto Sans TC',sans-serif">
<rect width="520" height="320" fill="#d3ebe6"/>
<rect x="0" y="210" width="520" height="68" fill="#8a5a34" opacity="0.3"/>
<!-- drop leader -->
<g transform="translate(45,140)"><image xlink:href="../characters/drop.svg" href="../characters/drop.svg" x="0" y="0" width="92" height="92"/></g>
<!-- labelled soil components board -->
<rect x="180" y="70" width="300" height="150" rx="12" fill="#fff" stroke="#88b8c8" stroke-width="2"/>
<circle cx="215" cy="105" r="12" fill="#d8b06a"/><text x="240" y="110" font-size="13" fill="#5a3d12">砂（粗）</text>
<circle cx="215" cy="140" r="6" fill="#c98f66"/><text x="240" y="145" font-size="13" fill="#6b4326">黏土（細）</text>
<rect x="205" y="168" width="20" height="12" fill="#4b3218"/><text x="240" y="180" font-size="13" fill="#4b3218">腐植質（養分）</text>
<circle cx="370" cy="105" r="9" fill="#bfe0ef" stroke="#7fb0d6"/><text x="392" y="110" font-size="13" fill="#2a6a8a">空氣·水</text>
<path d="M360 138 q12 -8 22 -2 q10 6 20 2" fill="none" stroke="#c56a7a" stroke-width="6" stroke-linecap="round"/><text x="392" y="145" font-size="13" fill="#a24a5a">小生物</text>
<circle cx="45" cy="40" r="22" fill="#6b4f3a"/><text x="45" y="47" text-anchor="middle" font-size="19" fill="#fff" font-weight="bold">3</text>
<rect x="0" y="278" width="520" height="42" fill="#6b4f3a"/>
<text x="14" y="297" font-size="13" fill="#fff">📖 第3頁：土壤是好多東西的大家庭。</text>
<text x="14" y="314" font-size="12" fill="#f4d9a8">💧：「砂、黏土、腐植質都在裡面！」</text>
</svg>
