<svg xmlns="http://www.w3.org/2000/svg" xmlns:xlink="http://www.w3.org/1999/xlink" viewBox="0 0 520 320" font-family="'Microsoft JhengHei','Noto Sans TC',sans-serif">
<rect width="520" height="320" fill="#dbeef4"/>
<rect x="0" y="210" width="520" height="68" fill="#8a5a34" opacity="0.3"/>
<!-- drop -->
<g transform="translate(45,150)"><image xlink:href="../characters/drop.svg" href="../characters/drop.svg" x="0" y="0" width="86" height="86"/></g>
<!-- jar with layers -->
<g>
<path d="M300 70 L300 220 q0 18 18 18 L392 238 q18 0 18 -18 L410 70 z" fill="#e8f2f6" stroke="#88b8c8" stroke-width="3"/>
<path d="M300 70 L410 70" stroke="#88b8c8" stroke-width="3"/>
<path d="M300 120 L410 120 L410 190 L300 190 z" fill="#c9a98a" opacity="0.5"/>
<path d="M300 175 L410 175 L410 195 L300 195 z" fill="#b98a63"/>
<path d="M300 195 L410 195 L410 210 L300 210 z" fill="#cf9f55"/>
<path d="M300 210 L410 210 L410 220 q0 18 18 18 L392 238 q18 0 18 -18 z" fill="#b07a3a"/>
<g fill="#8a5a2a"><circle cx="335" cy="222" r="5"/><circle cx="370" cy="224" r="6"/></g>
<path d="M325 110 q8 -6 18 -2 q-3 10 -13 10 q-6 -3 -5 -8 z" fill="#8aa843" stroke="#5f7a26" stroke-width="1"/>
<text x="440" y="130" font-size="11" fill="#6b4326">黏土</text>
<text x="440" y="205" font-size="11" fill="#5a3d12">砂</text>
<text x="440" y="100" font-size="11" fill="#5f7a26">浮葉</text>
</g>
<circle cx="45" cy="40" r="22" fill="#6b4f3a"/><text x="45" y="47" text-anchor="middle" font-size="19" fill="#fff" font-weight="bold">5</text>
<rect x="0" y="278" width="520" height="42" fill="#6b4f3a"/>
<text x="14" y="297" font-size="13" fill="#fff">📖 第5頁：泡水靜置，土壤分成好幾層。</text>
<text x="14" y="314" font-size="12" fill="#f4d9a8">💧：「粗砂沉在下、黏土在上！」</text>
</svg>
