<svg xmlns="http://www.w3.org/2000/svg" xmlns:xlink="http://www.w3.org/1999/xlink" viewBox="0 0 520 320" font-family="'Microsoft JhengHei','Noto Sans TC',sans-serif">
<rect width="520" height="320" fill="#efe3cf"/>
<rect x="0" y="205" width="520" height="73" fill="#8a5a34" opacity="0.25"/>
<!-- big magnifier circle showing soil contents -->
<circle cx="330" cy="140" r="95" fill="#a9754a"/>
<circle cx="330" cy="140" r="95" fill="none" stroke="#5a4a3a" stroke-width="8"/>
<line x1="398" y1="208" x2="430" y2="240" stroke="#5a4a3a" stroke-width="10" stroke-linecap="round"/>
<g fill="#d8b06a" stroke="#a5813f" stroke-width="1"><circle cx="300" cy="130" r="14"/><circle cx="360" cy="160" r="11"/><circle cx="315" cy="175" r="9"/></g>
<path d="M350 110 q10 -8 22 -2 q-4 12 -16 12 q-8 -4 -6 -10 z" fill="#8aa843" stroke="#5f7a26" stroke-width="1"/>
<path d="M285 165 q20 -12 36 -2 q12 8 24 2" fill="none" stroke="#c56a7a" stroke-width="7" stroke-linecap="round"/>
<circle cx="300" cy="110" r="4" fill="#4b3218"/><circle cx="345" cy="180" r="4" fill="#4b3218"/>
<!-- fox observing -->
<g transform="translate(50,150)"><image xlink:href="../characters/fox.svg" href="../characters/fox.svg" x="0" y="0" width="90" height="90"/></g>
<circle cx="45" cy="40" r="22" fill="#6b4f3a"/><text x="45" y="47" text-anchor="middle" font-size="19" fill="#fff" font-weight="bold">2</text>
<rect x="0" y="278" width="520" height="42" fill="#6b4f3a"/>
<text x="14" y="297" font-size="13" fill="#fff">📖 第2頁：放大鏡下，土裡有石頭、砂、爛葉、小蟲！</text>
<text x="14" y="314" font-size="12" fill="#f4d9a8">🦊：「還有這麼多不一樣的東西！」</text>
</svg>
