<svg xmlns="http://www.w3.org/2000/svg" xmlns:xlink="http://www.w3.org/1999/xlink" viewBox="0 0 520 320" font-family="'Microsoft JhengHei','Noto Sans TC',sans-serif">
<rect width="520" height="320" fill="#d8ecc4"/>
<rect x="0" y="205" width="520" height="73" fill="#8a5a34"/>
<ellipse cx="260" cy="250" rx="240" ry="20" fill="#00000010"/>
<!-- flower bed -->
<g><ellipse cx="400" cy="235" rx="90" ry="26" fill="#7a5230"/>
<circle cx="360" cy="215" r="7" fill="#e57ba0"/><circle cx="410" cy="210" r="7" fill="#f2c94c"/><circle cx="450" cy="220" r="7" fill="#e57ba0"/>
<line x1="360" y1="222" x2="360" y2="235" stroke="#4a7030" stroke-width="3"/><line x1="410" y1="217" x2="410" y2="235" stroke="#4a7030" stroke-width="3"/><line x1="450" y1="227" x2="450" y2="238" stroke="#4a7030" stroke-width="3"/></g>
<!-- bear with tools -->
<g transform="translate(60,120)"><image xlink:href="../characters/bear.svg" href="../characters/bear.svg" x="0" y="0" width="100" height="100"/></g>
<!-- fox -->
<g transform="translate(180,140)"><image xlink:href="../characters/fox.svg" href="../characters/fox.svg" x="0" y="0" width="82" height="82"/></g>
<!-- magnifier icon -->
<circle cx="300" cy="150" r="16" fill="#bfe0ef" stroke="#5a4a3a" stroke-width="3"/><line x1="311" y1="161" x2="324" y2="174" stroke="#5a4a3a" stroke-width="4"/>
<circle cx="45" cy="40" r="22" fill="#6b4f3a"/><text x="45" y="47" text-anchor="middle" font-size="19" fill="#fff" font-weight="bold">1</text>
<rect x="0" y="278" width="520" height="42" fill="#6b4f3a"/>
<text x="14" y="297" font-size="13" fill="#fff">📖 第1頁：黑熊老師帶大家到花圃，發鏟子和放大鏡。</text>
<text x="14" y="314" font-size="12" fill="#f4d9a8">🦊：「泥土有什麼好看的？」</text>
</svg>
