<svg xmlns="http://www.w3.org/2000/svg" xmlns:xlink="http://www.w3.org/1999/xlink" viewBox="0 0 520 320" font-family="'Microsoft JhengHei','Noto Sans TC',sans-serif">
<rect width="520" height="320" fill="#eef8ee"/>
<rect x="0" y="0" width="520" height="278" fill="#ffffff" opacity="0.18"/>
<ellipse cx="235" cy="250" rx="210" ry="26" fill="#00000010"/>
<g transform="translate(0,-26)"><rect x="0" y="236" width="520" height="104" fill="#bfe3a8"/><rect x="0" y="236" width="520" height="8" fill="#00000018"/><circle cx="130" cy="190" r="4" fill="#c9b24a"/><line x1="130" y1="190" x2="146" y2="190" stroke="#cfe3d8" stroke-width="1.5"/><circle cx="146" cy="190" r="2" fill="#fff"/><line x1="130" y1="190" x2="144" y2="198" stroke="#cfe3d8" stroke-width="1.5"/><circle cx="144" cy="198" r="2" fill="#fff"/><line x1="130" y1="190" x2="138" y2="204" stroke="#cfe3d8" stroke-width="1.5"/><circle cx="138" cy="204" r="2" fill="#fff"/><line x1="130" y1="190" x2="130" y2="206" stroke="#cfe3d8" stroke-width="1.5"/><circle cx="130" cy="206" r="2" fill="#fff"/><line x1="130" y1="190" x2="122" y2="204" stroke="#cfe3d8" stroke-width="1.5"/><circle cx="122" cy="204" r="2" fill="#fff"/><line x1="130" y1="190" x2="116" y2="198" stroke="#cfe3d8" stroke-width="1.5"/><circle cx="116" cy="198" r="2" fill="#fff"/><line x1="130" y1="190" x2="114" y2="190" stroke="#cfe3d8" stroke-width="1.5"/><circle cx="114" cy="190" r="2" fill="#fff"/><line x1="130" y1="190" x2="116" y2="182" stroke="#cfe3d8" stroke-width="1.5"/><circle cx="116" cy="182" r="2" fill="#fff"/><line x1="130" y1="190" x2="122" y2="176" stroke="#cfe3d8" stroke-width="1.5"/><circle cx="122" cy="176" r="2" fill="#fff"/><line x1="130" y1="190" x2="130" y2="174" stroke="#cfe3d8" stroke-width="1.5"/><circle cx="130" cy="174" r="2" fill="#fff"/><line x1="130" y1="190" x2="138" y2="176" stroke="#cfe3d8" stroke-width="1.5"/><circle cx="138" cy="176" r="2" fill="#fff"/><line x1="130" y1="190" x2="144" y2="182" stroke="#cfe3d8" stroke-width="1.5"/><circle cx="144" cy="182" r="2" fill="#fff"/><circle cx="200" cy="205" r="10" fill="#8a6a3f"/><line x1="200" y1="205" x2="216" y2="205" stroke="#8a6a3f" stroke-width="1.5"/><line x1="200" y1="205" x2="214" y2="213" stroke="#8a6a3f" stroke-width="1.5"/><line x1="200" y1="205" x2="208" y2="219" stroke="#8a6a3f" stroke-width="1.5"/><line x1="200" y1="205" x2="200" y2="221" stroke="#8a6a3f" stroke-width="1.5"/><line x1="200" y1="205" x2="192" y2="219" stroke="#8a6a3f" stroke-width="1.5"/><line x1="200" y1="205" x2="186" y2="213" stroke="#8a6a3f" stroke-width="1.5"/><line x1="200" y1="205" x2="184" y2="205" stroke="#8a6a3f" stroke-width="1.5"/><line x1="200" y1="205" x2="186" y2="197" stroke="#8a6a3f" stroke-width="1.5"/><line x1="200" y1="205" x2="192" y2="191" stroke="#8a6a3f" stroke-width="1.5"/><line x1="200" y1="205" x2="200" y2="189" stroke="#8a6a3f" stroke-width="1.5"/><line x1="200" y1="205" x2="208" y2="191" stroke="#8a6a3f" stroke-width="1.5"/><line x1="200" y1="205" x2="214" y2="197" stroke="#8a6a3f" stroke-width="1.5"/></g>
<g transform="translate(0,-14)"><image xlink:href="../characters/fox.svg" href="../characters/fox.svg" x="326" y="120" width="80" height="80"/><image xlink:href="../characters/drop.svg" href="../characters/drop.svg" x="414" y="120" width="80" height="80"/></g>
<circle cx="40" cy="40" r="22" fill="#6b4f3a"/><text x="40" y="47" text-anchor="middle" font-size="19" fill="#fff" font-weight="bold">6</text>
<rect x="0" y="278" width="520" height="42" fill="#6b4f3a"/>
<text x="14" y="297" font-size="13" fill="#fff">📖 第6頁：看構造猜旅行方式，好好玩！</text>
<text x="14" y="314" font-size="12" fill="#f4d9a8">🦊「有翅膀的靠風！」💧「別採不認識的果實喔！」</text>
</svg>
