<svg xmlns="http://www.w3.org/2000/svg" xmlns:xlink="http://www.w3.org/1999/xlink" viewBox="0 0 520 320" font-family="'Microsoft JhengHei','Noto Sans TC',sans-serif">
<rect width="520" height="320" fill="#eef8ee"/>
<path d="M94 236 l6 -30 h40 l6 30 z" fill="#c98a5a"/><rect x="92" y="196" width="56" height="12" rx="3" fill="#a86f3f"/><path d="M120 196 v-24" stroke="#5aa469" stroke-width="5"/><path d="M120 178 q-12 -6 -18 2" fill="#5aa469"/><path d="M120 174 q12 -6 18 2" fill="#5aa469"/><path d="M124 236 l6 -30 h40 l6 30 z" fill="#c98a5a"/><rect x="122" y="196" width="56" height="12" rx="3" fill="#a86f3f"/><path d="M150 196 v-24" stroke="#5aa469" stroke-width="5"/><path d="M150 178 q-12 -6 -18 2" fill="#5aa469"/><path d="M150 174 q12 -6 18 2" fill="#5aa469"/><path d="M214 236 l6 -30 h40 l6 30 z" fill="#c98a5a"/><rect x="212" y="196" width="56" height="12" rx="3" fill="#a86f3f"/><path d="M240 196 v-46" stroke="#5aa469" stroke-width="6"/><path d="M240 164 q-22 -8 -30 -26 q20 3 30 20" fill="#5aa469"/><path d="M240 156 q22 -8 30 -26 q-20 3 -30 20" fill="#5aa469"/><text x="135" y="150" text-anchor="middle" font-size="12" fill="#c0392b">擠</text><text x="240" y="150" text-anchor="middle" font-size="12" fill="#2f7d3a">分散</text>
<image xlink:href="../characters/monster.svg" href="../characters/monster.svg" x="322" y="150" width="74" height="74"/><image xlink:href="../characters/bear.svg" href="../characters/bear.svg" x="410" y="150" width="74" height="74"/>
<circle cx="40" cy="40" r="22" fill="#6b4f3a"/><text x="40" y="47" text-anchor="middle" font-size="19" fill="#fff" font-weight="bold">5</text>
<rect x="0" y="278" width="520" height="42" fill="#6b4f3a"/>
<text x="14" y="297" font-size="13" fill="#fff">📖 第5頁：種子為什麼要跑那麼遠？</text>
<text x="14" y="314" font-size="12" fill="#f4d9a8">👾「留原地最安全！」🐻「擠在一起會搶陽光養分！」</text>
</svg>
