<svg xmlns="http://www.w3.org/2000/svg" xmlns:xlink="http://www.w3.org/1999/xlink" viewBox="0 0 520 320" font-family="'Microsoft JhengHei','Noto Sans TC',sans-serif">
<rect width="520" height="320" fill="#eef8ee"/>
<rect x="0" y="0" width="520" height="278" fill="#ffffff" opacity="0.18"/>
<ellipse cx="235" cy="250" rx="210" ry="26" fill="#00000010"/>
<g transform="translate(0,-26)"><circle cx="180" cy="130" r="4" fill="#c9b24a"/><line x1="180" y1="130" x2="196" y2="130" stroke="#cfe3d8" stroke-width="1.5"/><circle cx="196" cy="130" r="2" fill="#fff"/><line x1="180" y1="130" x2="194" y2="138" stroke="#cfe3d8" stroke-width="1.5"/><circle cx="194" cy="138" r="2" fill="#fff"/><line x1="180" y1="130" x2="188" y2="144" stroke="#cfe3d8" stroke-width="1.5"/><circle cx="188" cy="144" r="2" fill="#fff"/><line x1="180" y1="130" x2="180" y2="146" stroke="#cfe3d8" stroke-width="1.5"/><circle cx="180" cy="146" r="2" fill="#fff"/><line x1="180" y1="130" x2="172" y2="144" stroke="#cfe3d8" stroke-width="1.5"/><circle cx="172" cy="144" r="2" fill="#fff"/><line x1="180" y1="130" x2="166" y2="138" stroke="#cfe3d8" stroke-width="1.5"/><circle cx="166" cy="138" r="2" fill="#fff"/><line x1="180" y1="130" x2="164" y2="130" stroke="#cfe3d8" stroke-width="1.5"/><circle cx="164" cy="130" r="2" fill="#fff"/><line x1="180" y1="130" x2="166" y2="122" stroke="#cfe3d8" stroke-width="1.5"/><circle cx="166" cy="122" r="2" fill="#fff"/><line x1="180" y1="130" x2="172" y2="116" stroke="#cfe3d8" stroke-width="1.5"/><circle cx="172" cy="116" r="2" fill="#fff"/><line x1="180" y1="130" x2="180" y2="114" stroke="#cfe3d8" stroke-width="1.5"/><circle cx="180" cy="114" r="2" fill="#fff"/><line x1="180" y1="130" x2="188" y2="116" stroke="#cfe3d8" stroke-width="1.5"/><circle cx="188" cy="116" r="2" fill="#fff"/><line x1="180" y1="130" x2="194" y2="122" stroke="#cfe3d8" stroke-width="1.5"/><circle cx="194" cy="122" r="2" fill="#fff"/><text x="180" y="190" text-anchor="middle" font-size="12" fill="#5aa469">蒲公英隨風飄</text></g>
<g transform="translate(0,-14)"><image xlink:href="../characters/fox.svg" href="../characters/fox.svg" x="402" y="120" width="80" height="80"/></g>
<circle cx="40" cy="40" r="22" fill="#6b4f3a"/><text x="40" y="47" text-anchor="middle" font-size="19" fill="#fff" font-weight="bold">2</text>
<rect x="0" y="278" width="520" height="42" fill="#6b4f3a"/>
<text x="14" y="297" font-size="13" fill="#fff">📖 第2頁：蒲公英像小雨傘飄得好遠。</text>
<text x="14" y="314" font-size="12" fill="#f4d9a8">🦊：「它們會自己旅行？」</text>
</svg>
