<svg xmlns="http://www.w3.org/2000/svg" xmlns:xlink="http://www.w3.org/1999/xlink" viewBox="0 0 520 320" font-family="'Microsoft JhengHei','Noto Sans TC',sans-serif">
<rect width="520" height="320" fill="#eef8ee"/>
<circle cx="120" cy="150" r="10" fill="#8a6a3f"/><line x1="120" y1="150" x2="136" y2="150" stroke="#8a6a3f" stroke-width="1.5"/><line x1="120" y1="150" x2="134" y2="158" stroke="#8a6a3f" stroke-width="1.5"/><line x1="120" y1="150" x2="128" y2="164" stroke="#8a6a3f" stroke-width="1.5"/><line x1="120" y1="150" x2="120" y2="166" stroke="#8a6a3f" stroke-width="1.5"/><line x1="120" y1="150" x2="112" y2="164" stroke="#8a6a3f" stroke-width="1.5"/><line x1="120" y1="150" x2="106" y2="158" stroke="#8a6a3f" stroke-width="1.5"/><line x1="120" y1="150" x2="104" y2="150" stroke="#8a6a3f" stroke-width="1.5"/><line x1="120" y1="150" x2="106" y2="142" stroke="#8a6a3f" stroke-width="1.5"/><line x1="120" y1="150" x2="112" y2="136" stroke="#8a6a3f" stroke-width="1.5"/><line x1="120" y1="150" x2="120" y2="134" stroke="#8a6a3f" stroke-width="1.5"/><line x1="120" y1="150" x2="128" y2="136" stroke="#8a6a3f" stroke-width="1.5"/><line x1="120" y1="150" x2="134" y2="142" stroke="#8a6a3f" stroke-width="1.5"/><circle cx="146" cy="170" r="10" fill="#8a6a3f"/><line x1="146" y1="170" x2="162" y2="170" stroke="#8a6a3f" stroke-width="1.5"/><line x1="146" y1="170" x2="160" y2="178" stroke="#8a6a3f" stroke-width="1.5"/><line x1="146" y1="170" x2="154" y2="184" stroke="#8a6a3f" stroke-width="1.5"/><line x1="146" y1="170" x2="146" y2="186" stroke="#8a6a3f" stroke-width="1.5"/><line x1="146" y1="170" x2="138" y2="184" stroke="#8a6a3f" stroke-width="1.5"/><line x1="146" y1="170" x2="132" y2="178" stroke="#8a6a3f" stroke-width="1.5"/><line x1="146" y1="170" x2="130" y2="170" stroke="#8a6a3f" stroke-width="1.5"/><line x1="146" y1="170" x2="132" y2="162" stroke="#8a6a3f" stroke-width="1.5"/><line x1="146" y1="170" x2="138" y2="156" stroke="#8a6a3f" stroke-width="1.5"/><line x1="146" y1="170" x2="146" y2="154" stroke="#8a6a3f" stroke-width="1.5"/><line x1="146" y1="170" x2="154" y2="156" stroke="#8a6a3f" stroke-width="1.5"/><line x1="146" y1="170" x2="160" y2="162" stroke="#8a6a3f" stroke-width="1.5"/><circle cx="172" cy="150" r="10" fill="#8a6a3f"/><line x1="172" y1="150" x2="188" y2="150" stroke="#8a6a3f" stroke-width="1.5"/><line x1="172" y1="150" x2="186" y2="158" stroke="#8a6a3f" stroke-width="1.5"/><line x1="172" y1="150" x2="180" y2="164" stroke="#8a6a3f" stroke-width="1.5"/><line x1="172" y1="150" x2="172" y2="166" stroke="#8a6a3f" stroke-width="1.5"/><line x1="172" y1="150" x2="164" y2="164" stroke="#8a6a3f" stroke-width="1.5"/><line x1="172" y1="150" x2="158" y2="158" stroke="#8a6a3f" stroke-width="1.5"/><line x1="172" y1="150" x2="156" y2="150" stroke="#8a6a3f" stroke-width="1.5"/><line x1="172" y1="150" x2="158" y2="142" stroke="#8a6a3f" stroke-width="1.5"/><line x1="172" y1="150" x2="164" y2="136" stroke="#8a6a3f" stroke-width="1.5"/><line x1="172" y1="150" x2="172" y2="134" stroke="#8a6a3f" stroke-width="1.5"/><line x1="172" y1="150" x2="180" y2="136" stroke="#8a6a3f" stroke-width="1.5"/><line x1="172" y1="150" x2="186" y2="142" stroke="#8a6a3f" stroke-width="1.5"/><circle cx="198" cy="170" r="10" fill="#8a6a3f"/><line x1="198" y1="170" x2="214" y2="170" stroke="#8a6a3f" stroke-width="1.5"/><line x1="198" y1="170" x2="212" y2="178" stroke="#8a6a3f" stroke-width="1.5"/><line x1="198" y1="170" x2="206" y2="184" stroke="#8a6a3f" stroke-width="1.5"/><line x1="198" y1="170" x2="198" y2="186" stroke="#8a6a3f" stroke-width="1.5"/><line x1="198" y1="170" x2="190" y2="184" stroke="#8a6a3f" stroke-width="1.5"/><line x1="198" y1="170" x2="184" y2="178" stroke="#8a6a3f" stroke-width="1.5"/><line x1="198" y1="170" x2="182" y2="170" stroke="#8a6a3f" stroke-width="1.5"/><line x1="198" y1="170" x2="184" y2="162" stroke="#8a6a3f" stroke-width="1.5"/><line x1="198" y1="170" x2="190" y2="156" stroke="#8a6a3f" stroke-width="1.5"/><line x1="198" y1="170" x2="198" y2="154" stroke="#8a6a3f" stroke-width="1.5"/><line x1="198" y1="170" x2="206" y2="156" stroke="#8a6a3f" stroke-width="1.5"/><line x1="198" y1="170" x2="212" y2="162" stroke="#8a6a3f" stroke-width="1.5"/><text x="180" y="200" text-anchor="middle" font-size="12" fill="#8a6a3f">襪子黏滿刺球</text>
<image xlink:href="../characters/fox.svg" href="../characters/fox.svg" x="398" y="150" width="74" height="74"/>
<circle cx="40" cy="40" r="22" fill="#6b4f3a"/><text x="40" y="47" text-anchor="middle" font-size="19" fill="#fff" font-weight="bold">1</text>
<rect x="0" y="278" width="520" height="42" fill="#6b4f3a"/>
<text x="14" y="297" font-size="13" fill="#fff">📖 第1頁：脫鞋一看，黏了好多帶刺的小種子。</text>
<text x="14" y="314" font-size="12" fill="#f4d9a8">🦊：「這些小刺球是誰放的？」</text>
</svg>
