<svg xmlns="http://www.w3.org/2000/svg" xmlns:xlink="http://www.w3.org/1999/xlink" viewBox="0 0 520 320" font-family="'Microsoft JhengHei','Noto Sans TC',sans-serif">
<rect width="520" height="320" fill="#eef7ec"/>
<rect x="0" y="0" width="520" height="278" fill="#e4f1de" opacity="0.7"/>
<ellipse cx="260" cy="250" rx="230" ry="24" fill="#00000010"/>
<!-- two dishes to compare -->
<g transform="translate(300,180)">
  <ellipse cx="0" cy="10" rx="44" ry="14" fill="#fff" stroke="#c9b98a"/>
  <path d="M-14 8 q-2 -14 2 -20" stroke="#4d9a3a" stroke-width="3" fill="none"/>
  <text x="0" y="36" text-anchor="middle" font-size="11" fill="#3a7d3a">A</text>
</g>
<g transform="translate(410,180)">
  <ellipse cx="0" cy="10" rx="44" ry="14" fill="#fff" stroke="#c9b98a"/>
  <circle cx="-10" cy="8" r="5" fill="#8fbf5a"/><circle cx="8" cy="10" r="5" fill="#8fbf5a"/>
  <text x="0" y="36" text-anchor="middle" font-size="11" fill="#a86a2a">B</text>
</g>
<!-- magnifier -->
<g transform="translate(200,110)"><circle cx="0" cy="0" r="22" fill="none" stroke="#6b4f3a" stroke-width="4"/><line x1="16" y1="16" x2="34" y2="34" stroke="#6b4f3a" stroke-width="5"/></g>
<g transform="translate(60,110)"><image xlink:href="../characters/bear.svg" href="../characters/bear.svg" x="0" y="0" width="96" height="96"/></g>
<circle cx="40" cy="40" r="22" fill="#6b4f3a"/><text x="40" y="47" text-anchor="middle" font-size="19" fill="#fff" font-weight="bold">3</text>
<rect x="0" y="278" width="520" height="42" fill="#6b4f3a"/>
<text x="14" y="297" font-size="13" fill="#fff">📖 第3頁：科學偵探用公平實驗找答案。</text>
<text x="14" y="314" font-size="12" fill="#f4d9a8">🐻：「每次只改一個條件，其他一樣！」</text>
</svg>
