<svg xmlns="http://www.w3.org/2000/svg" xmlns:xlink="http://www.w3.org/1999/xlink" viewBox="0 0 520 320" font-family="'Microsoft JhengHei','Noto Sans TC',sans-serif">
<rect width="520" height="320" fill="#eef7ec"/>
<rect x="0" y="0" width="520" height="278" fill="#e4f1de" opacity="0.7"/>
<ellipse cx="260" cy="250" rx="230" ry="24" fill="#00000010"/>
<!-- bright dish with sun -->
<g transform="translate(250,120)">
  <circle cx="0" cy="-20" r="16" fill="#ffe08a" stroke="#e0a52a" stroke-width="2"/>
  <g stroke="#e0a52a" stroke-width="2"><line x1="0" y1="-42" x2="0" y2="-38"/><line x1="18" y1="-20" x2="22" y2="-20"/><line x1="-18" y1="-20" x2="-22" y2="-20"/></g>
  <ellipse cx="0" cy="40" rx="40" ry="13" fill="#fff" stroke="#c9b98a"/>
  <path d="M-10 38 q-2 -16 2 -22" stroke="#4d9a3a" stroke-width="3" fill="none"/>
  <text x="0" y="66" text-anchor="middle" font-size="11" fill="#3a7d3a">亮處：發芽🌱</text>
</g>
<!-- dark box dish -->
<g transform="translate(400,120)">
  <rect x="-42" y="-10" width="84" height="60" rx="6" fill="#7a6a58" opacity="0.85"/>
  <ellipse cx="0" cy="42" rx="40" ry="13" fill="#d8cdbe" stroke="#a89a88"/>
  <path d="M-10 40 q-2 -16 2 -22" stroke="#4d9a3a" stroke-width="3" fill="none"/>
  <text x="0" y="70" text-anchor="middle" font-size="11" fill="#6a5a48">暗盒：也發芽🌱</text>
</g>
<g transform="translate(50,110)"><image xlink:href="../characters/monster.svg" href="../characters/monster.svg" x="0" y="0" width="90" height="90"/></g>
<circle cx="40" cy="40" r="22" fill="#6b4f3a"/><text x="40" y="47" text-anchor="middle" font-size="19" fill="#fff" font-weight="bold">4</text>
<rect x="0" y="278" width="520" height="42" fill="#6b4f3a"/>
<text x="14" y="297" font-size="13" fill="#fff">📖 第4頁：亮的暗的都發芽了！</text>
<text x="14" y="314" font-size="12" fill="#f4d9a8">👾「沒太陽怎麼發芽？」🐻「證明不需要光！」</text>
</svg>
