<svg xmlns="http://www.w3.org/2000/svg" xmlns:xlink="http://www.w3.org/1999/xlink" viewBox="0 0 520 320" font-family="'Microsoft JhengHei','Noto Sans TC',sans-serif">
<rect width="520" height="320" fill="#eef8ee"/>
<circle cx="170" cy="150" r="10" fill="#8a6a3f"/><line x1="170" y1="150" x2="186" y2="150" stroke="#8a6a3f" stroke-width="1.5"/><line x1="170" y1="150" x2="184" y2="158" stroke="#8a6a3f" stroke-width="1.5"/><line x1="170" y1="150" x2="178" y2="164" stroke="#8a6a3f" stroke-width="1.5"/><line x1="170" y1="150" x2="170" y2="166" stroke="#8a6a3f" stroke-width="1.5"/><line x1="170" y1="150" x2="162" y2="164" stroke="#8a6a3f" stroke-width="1.5"/><line x1="170" y1="150" x2="156" y2="158" stroke="#8a6a3f" stroke-width="1.5"/><line x1="170" y1="150" x2="154" y2="150" stroke="#8a6a3f" stroke-width="1.5"/><line x1="170" y1="150" x2="156" y2="142" stroke="#8a6a3f" stroke-width="1.5"/><line x1="170" y1="150" x2="162" y2="136" stroke="#8a6a3f" stroke-width="1.5"/><line x1="170" y1="150" x2="170" y2="134" stroke="#8a6a3f" stroke-width="1.5"/><line x1="170" y1="150" x2="178" y2="136" stroke="#8a6a3f" stroke-width="1.5"/><line x1="170" y1="150" x2="184" y2="142" stroke="#8a6a3f" stroke-width="1.5"/><text x="170" y="200" text-anchor="middle" font-size="12" fill="#8a6a3f">種子搭便車</text>
<image xlink:href="../characters/bear.svg" href="../characters/bear.svg" x="398" y="150" width="74" height="74"/>
<circle cx="40" cy="40" r="22" fill="#6b4f3a"/><text x="40" y="47" text-anchor="middle" font-size="19" fill="#fff" font-weight="bold">3</text>
<rect x="0" y="278" width="520" height="42" fill="#6b4f3a"/>
<text x="14" y="297" font-size="13" fill="#fff">📖 第3頁：「你剛剛當了種子的計程車喔！」</text>
<text x="14" y="314" font-size="12" fill="#f4d9a8">🐻：「鉤刺勾住你，搭便車去旅行！」</text>
</svg>
