<svg xmlns="http://www.w3.org/2000/svg" xmlns:xlink="http://www.w3.org/1999/xlink" viewBox="0 0 520 320" font-family="'Microsoft JhengHei','Noto Sans TC',sans-serif">
<rect width="520" height="320" fill="#25304a"/>
<rect x="0" y="205" width="520" height="73" fill="#1a2236"/>
<!-- dark christmas light string -->
<path d="M250 100 q30 26 60 0 q30 26 60 0 q30 26 60 0" fill="none" stroke="#556" stroke-width="2"/>
<circle cx="265" cy="108" r="9" fill="#667" stroke="#889"/>
<circle cx="325" cy="108" r="9" fill="#667" stroke="#889"/>
<line x1="318" y1="101" x2="332" y2="115" stroke="#c0402a" stroke-width="2.5"/><line x1="332" y1="101" x2="318" y2="115" stroke="#c0402a" stroke-width="2.5"/>
<circle cx="385" cy="108" r="9" fill="#667" stroke="#889"/>
<circle cx="445" cy="108" r="9" fill="#667" stroke="#889"/>
<text x="325" y="145" text-anchor="middle" font-size="11" fill="#c98" >一顆鬆掉</text>
<!-- fox -->
<g transform="translate(70,130)"><image xlink:href="../characters/fox.svg" href="../characters/fox.svg" x="0" y="0" width="96" height="96"/></g>
<circle cx="45" cy="40" r="22" fill="#c0a060"/><text x="45" y="47" text-anchor="middle" font-size="19" fill="#fff" font-weight="bold">1</text>
<rect x="0" y="278" width="520" height="42" fill="#3a2f20"/>
<text x="14" y="297" font-size="13" fill="#fff">📖 第1頁：一顆鬆掉，整串聖誕燈都不亮。</text>
<text x="14" y="314" font-size="12" fill="#f4d9a8">🦊：「為什麼一顆壞、整串黑？」</text>
</svg>
