<svg xmlns="http://www.w3.org/2000/svg" xmlns:xlink="http://www.w3.org/1999/xlink" viewBox="0 0 520 320" font-family="'Microsoft JhengHei','Noto Sans TC',sans-serif">
<rect width="520" height="320" fill="#e8f2ea"/>
<rect x="0" y="0" width="520" height="278" fill="#cfe6d2" opacity="0.5"/>
<ellipse cx="260" cy="252" rx="230" ry="22" fill="#00000010"/>
<!-- leaf shelter with snail returned -->
<path d="M300 210 Q360 150 440 175 Q400 220 320 222 Z" fill="#7fbf6f" stroke="#4d8c4d" stroke-width="2"/>
<g transform="translate(365,196)"><circle r="18" fill="#d9a15a" stroke="#a9743a" stroke-width="2"/><path d="M-16 6 q-10 0 -14 -8" stroke="#e7c9a0" stroke-width="6" fill="none" stroke-linecap="round"/></g>
<text x="360" y="160" font-size="12" fill="#4d8c4d">放回潮溼的家</text>
<!-- water drop (washing hands) sparkle -->
<g transform="translate(210,175)" opacity="0.85">
  <path d="M0 -14 C10 0 8 14 0 14 C-8 14 -10 0 0 -14 Z" fill="#9fd0ec" stroke="#5aa0c0"/>
</g>
<text x="210" y="215" text-anchor="middle" font-size="11" fill="#5aa0c0">記得洗手</text>
<!-- drop character -->
<g transform="translate(48,120)"><image xlink:href="../characters/drop.svg" href="../characters/drop.svg" x="0" y="0" width="88" height="88"/></g>
<circle cx="40" cy="40" r="22" fill="#6b4f3a"/><text x="40" y="47" text-anchor="middle" font-size="19" fill="#fff" font-weight="bold">6</text>
<rect x="0" y="278" width="520" height="42" fill="#6b4f3a"/>
<text x="14" y="297" font-size="13" fill="#fff">📖 第6頁：輕輕觀察，再送牠們回家。</text>
<text x="14" y="314" font-size="12" fill="#f4d9a8">💧：「不要灑鹽、看完放回去、記得洗手！」</text>
</svg>
