<svg xmlns="http://www.w3.org/2000/svg" xmlns:xlink="http://www.w3.org/1999/xlink" viewBox="0 0 520 320" font-family="'Microsoft JhengHei','Noto Sans TC',sans-serif">
<rect width="520" height="320" fill="#161c34"/>
<rect x="0" y="205" width="520" height="73" fill="#2a3050"/>
<!-- big dipper -->
<g fill="#fff8d0"><circle cx="250" cy="80" r="4"/><circle cx="295" cy="72" r="4.5"/><circle cx="340" cy="82" r="4"/><circle cx="375" cy="105" r="4.5"/><circle cx="368" cy="150" r="4"/><circle cx="318" cy="155" r="5"/><circle cx="278" cy="130" r="4"/></g>
<polyline points="250,80 295,72 340,82 375,105 368,150 318,155 278,130 340,82" fill="none" stroke="#7a8ac0" stroke-width="1.5" stroke-dasharray="4 3"/>
<text x="320" y="185" text-anchor="middle" font-size="12" fill="#9ab0e0">北斗七星（大勺子）</text>
<!-- bear pointing -->
<g transform="translate(65,125)"><image xlink:href="../characters/bear.svg" href="../characters/bear.svg" x="0" y="0" width="96" height="96"/></g>
<circle cx="45" cy="40" r="22" fill="#6b4f3a"/><text x="45" y="47" text-anchor="middle" font-size="19" fill="#fff" font-weight="bold">3</text>
<rect x="0" y="278" width="520" height="42" fill="#3a2f20"/>
<text x="14" y="297" font-size="13" fill="#fff">📖 第3頁：那七顆星像個大勺子，是北斗七星。</text>
<text x="14" y="314" font-size="12" fill="#f4d9a8">🦊：「真的像湯勺！」</text>
</svg>
