<svg xmlns="http://www.w3.org/2000/svg" xmlns:xlink="http://www.w3.org/1999/xlink" viewBox="0 0 520 320" font-family="'Microsoft JhengHei','Noto Sans TC',sans-serif">
<rect width="520" height="320" fill="#fdf3e0"/>
<circle cx="240" cy="58" r="22" fill="#f4b400"/><g stroke="#f4b400" stroke-width="3" stroke-linecap="round"><line x1="266" y1="58" x2="274" y2="58"/><line x1="258" y1="76" x2="264" y2="82"/><line x1="240" y1="84" x2="240" y2="92"/><line x1="222" y1="76" x2="216" y2="82"/><line x1="214" y1="58" x2="206" y2="58"/><line x1="222" y1="40" x2="216" y2="34"/><line x1="240" y1="32" x2="240" y2="24"/><line x1="258" y1="40" x2="264" y2="34"/></g><rect x="0" y="236" width="520" height="104" fill="#cdb187"/><rect x="0" y="236" width="520" height="8" fill="#00000018"/><rect x="196" y="176" width="8" height="60" fill="#8a6a3f"/><polygon points="196,236 204,236 230,252 222,252" fill="#7c6a4a" opacity="0.5"/><text x="200" y="150" text-anchor="middle" font-size="12" fill="#a8531e">中午·影子最短</text>
<image xlink:href="../characters/fox.svg" href="../characters/fox.svg" x="398" y="150" width="74" height="74"/>
<circle cx="40" cy="40" r="22" fill="#6b4f3a"/><text x="40" y="47" text-anchor="middle" font-size="19" fill="#fff" font-weight="bold">2</text>
<rect x="0" y="278" width="520" height="42" fill="#6b4f3a"/>
<text x="14" y="297" font-size="13" fill="#fff">📖 第2頁：中午影子好短，太陽最高。</text>
<text x="14" y="314" font-size="12" fill="#f4d9a8">🦊：「影子跑去哪了？」</text>
</svg>
