<svg xmlns="http://www.w3.org/2000/svg" xmlns:xlink="http://www.w3.org/1999/xlink" viewBox="0 0 520 320" font-family="'Microsoft JhengHei','Noto Sans TC',sans-serif">
<rect width="520" height="320" fill="#fdf3e0"/>
<rect x="0" y="0" width="520" height="278" fill="#ffffff" opacity="0.18"/>
<ellipse cx="235" cy="250" rx="210" ry="26" fill="#00000010"/>
<g transform="translate(0,-26)"><circle cx="90" cy="110" r="20" fill="#f4b400"/><g stroke="#f4b400" stroke-width="3" stroke-linecap="round"><line x1="114" y1="110" x2="122" y2="110"/><line x1="107" y1="127" x2="113" y2="133"/><line x1="90" y1="134" x2="90" y2="142"/><line x1="73" y1="127" x2="67" y2="133"/><line x1="66" y1="110" x2="58" y2="110"/><line x1="73" y1="93" x2="67" y2="87"/><line x1="90" y1="86" x2="90" y2="78"/><line x1="107" y1="93" x2="113" y2="87"/></g><rect x="0" y="236" width="520" height="104" fill="#cdb187"/><rect x="0" y="236" width="520" height="8" fill="#00000018"/><rect x="226" y="176" width="8" height="60" fill="#8a6a3f"/><polygon points="226,236 234,236 354,252 346,252" fill="#7c6a4a" opacity="0.5"/><text x="230" y="150" text-anchor="middle" font-size="12" fill="#a8531e">早上·長影子</text></g>
<g transform="translate(0,-14)"><image xlink:href="../characters/fox.svg" href="../characters/fox.svg" x="402" y="120" width="80" height="80"/></g>
<circle cx="40" cy="40" r="22" fill="#6b4f3a"/><text x="40" y="47" text-anchor="middle" font-size="19" fill="#fff" font-weight="bold">1</text>
<rect x="0" y="278" width="520" height="42" fill="#6b4f3a"/>
<text x="14" y="297" font-size="13" fill="#fff">📖 第1頁：早上的影子長長的，指向一邊。</text>
<text x="14" y="314" font-size="12" fill="#f4d9a8">🦊：「早安，影子先生！」</text>
</svg>
