<svg xmlns="http://www.w3.org/2000/svg" xmlns:xlink="http://www.w3.org/1999/xlink" viewBox="0 0 520 320" font-family="'Microsoft JhengHei','Noto Sans TC',sans-serif">
<rect width="520" height="320" fill="#fdf3e0"/>
<rect x="0" y="0" width="520" height="278" fill="#ffffff" opacity="0.18"/>
<ellipse cx="235" cy="250" rx="210" ry="26" fill="#00000010"/>
<g transform="translate(0,-26)"><circle cx="350" cy="110" r="20" fill="#f4b400"/><g stroke="#f4b400" stroke-width="3" stroke-linecap="round"><line x1="374" y1="110" x2="382" y2="110"/><line x1="367" y1="127" x2="373" y2="133"/><line x1="350" y1="134" x2="350" y2="142"/><line x1="333" y1="127" x2="327" y2="133"/><line x1="326" y1="110" x2="318" y2="110"/><line x1="333" y1="93" x2="327" y2="87"/><line x1="350" y1="86" x2="350" y2="78"/><line x1="367" y1="93" x2="373" y2="87"/></g><rect x="0" y="236" width="520" height="104" fill="#cdb187"/><rect x="0" y="236" width="520" height="8" fill="#00000018"/><rect x="196" y="176" width="8" height="60" fill="#8a6a3f"/><polygon points="196,236 204,236 84,252 76,252" fill="#7c6a4a" opacity="0.5"/><text x="150" y="150" text-anchor="middle" font-size="11" fill="#a8531e">下午·影子轉向變長</text></g>
<g transform="translate(0,-14)"><image xlink:href="../characters/fox.svg" href="../characters/fox.svg" x="402" y="120" width="80" height="80"/></g>
<circle cx="40" cy="40" r="22" fill="#6b4f3a"/><text x="40" y="47" text-anchor="middle" font-size="19" fill="#fff" font-weight="bold">3</text>
<rect x="0" y="278" width="520" height="42" fill="#6b4f3a"/>
<text x="14" y="297" font-size="13" fill="#fff">📖 第3頁：影子又變長，還換了方向！</text>
<text x="14" y="314" font-size="12" fill="#f4d9a8">🦊：「是不是有人偷偷移動它？」</text>
</svg>
