<svg xmlns="http://www.w3.org/2000/svg" xmlns:xlink="http://www.w3.org/1999/xlink" viewBox="0 0 520 320" font-family="'Microsoft JhengHei','Noto Sans TC',sans-serif">
<rect width="520" height="320" fill="#fdf3e0"/>
<circle cx="70" cy="90" r="18" fill="#f4b400"/><g stroke="#f4b400" stroke-width="3" stroke-linecap="round"><line x1="92" y1="90" x2="100" y2="90"/><line x1="86" y1="106" x2="91" y2="111"/><line x1="70" y1="112" x2="70" y2="120"/><line x1="54" y1="106" x2="49" y2="111"/><line x1="48" y1="90" x2="40" y2="90"/><line x1="54" y1="74" x2="49" y2="69"/><line x1="70" y1="68" x2="70" y2="60"/><line x1="86" y1="74" x2="91" y2="69"/></g><circle cx="210" cy="150" r="42" fill="#2f6b8a" stroke="#5a9fd0" stroke-width="2"/><path d="M190 136 q14 6 8 22 q-14 10 4 24 M220 132 q-6 20 14 22" fill="#4f9a52" opacity="0.85"/><path d="M210 102 a48 48 0 0 1 29 21" fill="none" stroke="#ffb347" stroke-width="3"/><text x="210" y="215" text-anchor="middle" font-size="12" fill="#a8531e">其實是地球自轉</text>
<image xlink:href="../characters/beetle.svg" href="../characters/beetle.svg" x="398" y="150" width="74" height="74"/>
<circle cx="40" cy="40" r="22" fill="#6b4f3a"/><text x="40" y="47" text-anchor="middle" font-size="19" fill="#fff" font-weight="bold">4</text>
<rect x="0" y="278" width="520" height="42" fill="#6b4f3a"/>
<text x="14" y="297" font-size="13" fill="#fff">📖 第4頁：不是太陽在跑，是地球在轉！</text>
<text x="14" y="314" font-size="12" fill="#f4d9a8">🪲：「地球像陀螺一天轉一圈。」</text>
</svg>
