<svg xmlns="http://www.w3.org/2000/svg" xmlns:xlink="http://www.w3.org/1999/xlink" viewBox="0 0 520 320" font-family="'Microsoft JhengHei','Noto Sans TC',sans-serif">
<rect width="520" height="320" fill="#dcecf2"/>
<rect x="0" y="150" width="520" height="128" fill="#e6d8a8" opacity="0.9"/>
<path d="M400 150 h120 v128 h-120 Z" fill="#7fc0d8"/>
<ellipse cx="260" cy="255" rx="230" ry="20" fill="#00000010"/>
<!-- sandcastle -->
<g transform="translate(300,205)">
  <rect x="-30" y="0" width="60" height="30" fill="#d8c078"/>
  <rect x="-30" y="-14" width="14" height="16" fill="#d8c078"/>
  <rect x="16" y="-14" width="14" height="16" fill="#d8c078"/>
  <rect x="-6" y="-20" width="12" height="22" fill="#d8c078"/>
</g>
<!-- shells -->
<circle cx="230" cy="230" r="5" fill="#f0e0c0" stroke="#c9a24a"/>
<path d="M355 235 a7 5 0 1 0 0.1 0" fill="#f5d0d8" stroke="#c090a0"/>
<!-- fox -->
<g transform="translate(60,135)"><image xlink:href="../characters/fox.svg" href="../characters/fox.svg" x="0" y="0" width="90" height="90"/></g>
<circle cx="40" cy="40" r="22" fill="#6b4f3a"/><text x="40" y="47" text-anchor="middle" font-size="19" fill="#fff" font-weight="bold">1</text>
<rect x="0" y="278" width="520" height="42" fill="#6b4f3a"/>
<text x="14" y="297" font-size="13" fill="#fff">📖 第1頁：早上的沙灘又寬又長。</text>
<text x="14" y="314" font-size="12" fill="#f4d9a8">🦊：「好多貝殼，我來堆沙堡！」</text>
</svg>
