<svg xmlns="http://www.w3.org/2000/svg" xmlns:xlink="http://www.w3.org/1999/xlink" viewBox="0 0 520 320" font-family="'Microsoft JhengHei','Noto Sans TC',sans-serif">
<rect width="520" height="320" fill="#dcecec"/>
<rect x="0" y="0" width="520" height="278" fill="#eaf4f4" opacity="0.6"/>
<ellipse cx="260" cy="252" rx="230" ry="22" fill="#00000010"/>
<!-- bowl top view with pepper fleeing -->
<circle cx="330" cy="165" r="80" fill="#cdeaf2" stroke="#5aa8bf" stroke-width="2"/>
<g fill="#3a2f20"><circle cx="330" cy="105" r="2.5"/><circle cx="385" cy="130" r="2.5"/><circle cx="400" cy="180" r="2.5"/><circle cx="360" cy="220" r="2.5"/><circle cx="290" cy="220" r="2.5"/><circle cx="262" cy="175" r="2.5"/><circle cx="280" cy="125" r="2.5"/></g>
<g stroke="#c0392b" stroke-width="1.8">
  <path d="M330 150 v-30" marker-end="url(#a)"/><path d="M345 160 l28 -18" marker-end="url(#a)"/><path d="M345 172 l30 6" marker-end="url(#a)"/><path d="M315 172 l-28 6" marker-end="url(#a)"/>
</g>
<circle cx="330" cy="165" r="9" fill="#f0c0a0" stroke="#d0a080"/>
<defs><marker id="a" markerWidth="8" markerHeight="8" refX="5" refY="4" orient="auto"><path d="M0 0 L5 4 L0 8 z" fill="#c0392b"/></marker></defs>
<text x="330" y="270" text-anchor="middle" font-size="11" fill="#c0392b">胡椒粉逃走</text>
<!-- drop character -->
<g transform="translate(45,150)"><image xlink:href="../characters/drop.svg" href="../characters/drop.svg" x="0" y="0" width="90" height="90"/></g>
<circle cx="40" cy="40" r="22" fill="#6b4f3a"/><text x="40" y="47" text-anchor="middle" font-size="19" fill="#fff" font-weight="bold">5</text>
<rect x="0" y="278" width="520" height="42" fill="#6b4f3a"/>
<text x="14" y="297" font-size="13" fill="#fff">📖 第5頁：一點肥皂，膜就破了。</text>
<text x="14" y="314" font-size="12" fill="#f4d9a8">💧：「胡椒粉逃走了，浮針也沉了！」</text>
</svg>
