<svg xmlns="http://www.w3.org/2000/svg" xmlns:xlink="http://www.w3.org/1999/xlink" viewBox="0 0 520 320" font-family="'Microsoft JhengHei','Noto Sans TC',sans-serif">
<rect width="520" height="320" fill="#dcecec"/>
<rect x="0" y="170" width="520" height="108" fill="#bfe4ef" opacity="0.85"/>
<ellipse cx="260" cy="255" rx="230" ry="20" fill="#00000010"/>
<line x1="180" y1="185" x2="520" y2="185" stroke="#5aa8bf" stroke-width="3"/>
<!-- water strider -->
<g transform="translate(340,180)">
  <ellipse cx="0" cy="0" rx="26" ry="6" fill="#7a6a4a" stroke="#5a4a30"/>
  <g stroke="#5a4a30" stroke-width="2" fill="none"><path d="M-14 2 Q-40 12 -50 24"/><path d="M14 2 Q40 12 50 24"/><path d="M-8 3 Q-24 16 -30 26"/><path d="M8 3 Q24 16 30 26"/></g>
</g>
<text x="380" y="150" font-size="11" fill="#3a7a8a">水黽在水面滑行</text>
<!-- fox lying watching -->
<g transform="translate(55,150)"><image xlink:href="../characters/fox.svg" href="../characters/fox.svg" x="0" y="0" width="90" height="90"/></g>
<circle cx="40" cy="40" r="22" fill="#6b4f3a"/><text x="40" y="47" text-anchor="middle" font-size="19" fill="#fff" font-weight="bold">1</text>
<rect x="0" y="278" width="520" height="42" fill="#6b4f3a"/>
<text x="14" y="297" font-size="13" fill="#fff">📖 第1頁：小蟲在水面上溜冰，卻不會沉。</text>
<text x="14" y="314" font-size="12" fill="#f4d9a8">🦊：「牠怎麼在水上走都不會沉？」</text>
</svg>
