<svg xmlns="http://www.w3.org/2000/svg" xmlns:xlink="http://www.w3.org/1999/xlink" viewBox="0 0 520 320" font-family="'Microsoft JhengHei','Noto Sans TC',sans-serif">
<rect width="520" height="320" fill="#e6eef2"/>
<rect x="0" y="0" width="520" height="278" fill="#eef4f4" opacity="0.6"/>
<ellipse cx="260" cy="252" rx="230" ry="22" fill="#00000010"/>
<!-- bottle filter layered -->
<path d="M300 90 h90 v60 l-27 26 v-18 h-36 v18 l-27 -26 Z" fill="#eaf4f7" stroke="#7fb0d6" stroke-width="2"/>
<rect x="302" y="92" width="86" height="20" fill="#c9a06a" opacity="0.8"/>
<rect x="310" y="112" width="70" height="14" fill="#f0f0f0"/><text x="398" y="123" font-size="9" fill="#888">棉花</text>
<rect x="316" y="126" width="58" height="14" fill="#e0d0a0"/><text x="398" y="137" font-size="9" fill="#a08050">細沙</text>
<rect x="322" y="140" width="46" height="12" fill="#b0b0b0"/><text x="398" y="150" font-size="9" fill="#777">石頭</text>
<line x1="345" y1="176" x2="345" y2="215" stroke="#7fc0d8" stroke-width="3" stroke-dasharray="2 5"/>
<path d="M320 220 h50 l-7 42 h-36 Z" fill="#dff1f8" stroke="#7fb0d6"/>
<path d="M324 240 h42 l-5 22 h-32 Z" fill="#bfe4ef"/>
<!-- drop -->
<g transform="translate(45,150)"><image xlink:href="../characters/drop.svg" href="../characters/drop.svg" x="0" y="0" width="92" height="92"/></g>
<circle cx="40" cy="40" r="22" fill="#6b4f3a"/><text x="40" y="47" text-anchor="middle" font-size="19" fill="#fff" font-weight="bold">5</text>
<rect x="0" y="278" width="520" height="42" fill="#6b4f3a"/>
<text x="14" y="297" font-size="13" fill="#fff">📖 第5頁：層層過濾，水變清澈了。</text>
<text x="14" y="314" font-size="12" fill="#f4d9a8">💧：「濾出來的水也不能喝喔！」</text>
</svg>
