<svg xmlns="http://www.w3.org/2000/svg" viewBox="0 0 520 320" font-family="'Microsoft JhengHei','Noto Sans TC',sans-serif">
  <rect width="520" height="320" fill="#f3eefa"/>
  <!-- hot tea with white steam -->
  <path d="M60 200 L120 200 L114 250 L66 250 Z" fill="#8a5f36"/>
  <ellipse cx="90" cy="200" rx="30" ry="6" fill="#a8683c"/>
  <path d="M78 190 q-8 -20 4 -34 M90 188 q-8 -20 4 -34 M102 190 q-8 -20 4 -34" stroke="#d8d0c4" stroke-width="5" fill="none" stroke-linecap="round"/>
  <text x="90" y="275" text-anchor="middle" font-size="11" fill="#6b4f3a">熱茶的白煙</text>
  <image href="../characters/monster.svg" x="150" y="120" width="86" height="86"/>
  <rect x="240" y="90" width="200" height="34" rx="14" fill="#fff" stroke="#8a56c2" stroke-width="2"/>
  <text x="340" y="112" text-anchor="middle" font-size="13" fill="#6f3fb0">「白煙就是水蒸氣！」</text>
  <image href="../characters/bear.svg" x="410" y="150" width="86" height="86"/>
  <rect x="240" y="188" width="200" height="30" rx="14" fill="#f3e9dd" stroke="#6b4f3a" stroke-width="2"/>
  <text x="340" y="208" text-anchor="middle" font-size="12" fill="#6b4f3a">「水蒸氣看不見喔！」</text>
  <rect x="0" y="278" width="520" height="42" fill="#6b4f3a"/>
  <text x="16" y="298" font-size="14" fill="#fff">📖 第4頁：迷思怪獸又認錯了。</text>
  <text x="16" y="314" font-size="12" fill="#f4d9a8">👾「白煙就是水蒸氣！」🐻「真正的水蒸氣看不見！」</text>
</svg>
