<svg xmlns="http://www.w3.org/2000/svg" xmlns:xlink="http://www.w3.org/1999/xlink" viewBox="0 0 520 320" font-family="'Microsoft JhengHei','Noto Sans TC',sans-serif">
<rect width="520" height="320" fill="#eaf4fb"/>
<rect x="0" y="0" width="520" height="278" fill="#ffffff" opacity="0.18"/>
<ellipse cx="235" cy="250" rx="210" ry="26" fill="#00000010"/>
<g transform="translate(0,-26)"><ellipse cx="160" cy="210" rx="50" ry="17" fill="#bfe0f5" stroke="#7fb0d6" stroke-width="2"/><g fill="#7fb0d6" opacity="0.6"><circle cx="160" cy="150" r="2.4"/><circle cx="155" cy="152" r="2.4"/><circle cx="166" cy="142" r="2.4"/><circle cx="156" cy="165" r="2.4"/><circle cx="156" cy="130" r="2.4"/><circle cx="175" cy="170" r="2.4"/><circle cx="134" cy="136" r="2.4"/><circle cx="195" cy="152" r="2.4"/></g><text x="160" y="120" text-anchor="middle" font-size="11" fill="#2f5b7c">變成看不見的水氣</text></g>
<g transform="translate(0,-14)"><image xlink:href="../characters/bear.svg" href="../characters/bear.svg" x="402" y="120" width="80" height="80"/></g>
<circle cx="40" cy="40" r="22" fill="#6b4f3a"/><text x="40" y="47" text-anchor="middle" font-size="19" fill="#fff" font-weight="bold">3</text>
<rect x="0" y="278" width="520" height="42" fill="#6b4f3a"/>
<text x="14" y="297" font-size="13" fill="#fff">📖 第3頁：水變成看不見的水蒸氣，飛進空氣裡。</text>
<text x="14" y="314" font-size="12" fill="#f4d9a8">🐻：「這叫蒸發，太陽讓它更快。」</text>
</svg>
