<svg xmlns="http://www.w3.org/2000/svg" xmlns:xlink="http://www.w3.org/1999/xlink" viewBox="0 0 520 320" font-family="'Microsoft JhengHei','Noto Sans TC',sans-serif">
<rect width="520" height="320" fill="#eaf4fb"/>
<circle cx="430" cy="58" r="22" fill="#f4b400"/><g stroke="#f4b400" stroke-width="3" stroke-linecap="round"><line x1="456" y1="58" x2="464" y2="58"/><line x1="448" y1="76" x2="454" y2="82"/><line x1="430" y1="84" x2="430" y2="92"/><line x1="412" y1="76" x2="406" y2="82"/><line x1="404" y1="58" x2="396" y2="58"/><line x1="412" y1="40" x2="406" y2="34"/><line x1="430" y1="32" x2="430" y2="24"/><line x1="448" y1="40" x2="454" y2="34"/></g><rect x="0" y="232" width="520" height="108" fill="#c9b58a"/><rect x="0" y="232" width="520" height="8" fill="#00000018"/><ellipse cx="180" cy="218" rx="25" ry="8" fill="#bfe0f5" stroke="#7fb0d6" stroke-width="2"/><text x="180" y="150" text-anchor="middle" font-size="12" fill="#2f5b7c">水窪不見了？</text>
<image xlink:href="../characters/fox.svg" href="../characters/fox.svg" x="398" y="150" width="74" height="74"/>
<circle cx="40" cy="40" r="22" fill="#6b4f3a"/><text x="40" y="47" text-anchor="middle" font-size="19" fill="#fff" font-weight="bold">2</text>
<rect x="0" y="278" width="520" height="42" fill="#6b4f3a"/>
<text x="14" y="297" font-size="13" fill="#fff">📖 第2頁：沒人舀走，水窪卻不見了。</text>
<text x="14" y="314" font-size="12" fill="#f4d9a8">🦊：「水到底跑哪去了？」</text>
</svg>
