<svg xmlns="http://www.w3.org/2000/svg" xmlns:xlink="http://www.w3.org/1999/xlink" viewBox="0 0 520 320" font-family="'Microsoft JhengHei','Noto Sans TC',sans-serif">
<rect width="520" height="320" fill="#eaf4fb"/>
<rect x="0" y="0" width="520" height="278" fill="#ffffff" opacity="0.18"/>
<ellipse cx="235" cy="250" rx="210" ry="26" fill="#00000010"/>
<g transform="translate(0,-26)"><circle cx="70" cy="60" r="22" fill="#f4b400"/><g stroke="#f4b400" stroke-width="3" stroke-linecap="round"><line x1="96" y1="60" x2="104" y2="60"/><line x1="88" y1="78" x2="94" y2="84"/><line x1="70" y1="86" x2="70" y2="94"/><line x1="52" y1="78" x2="46" y2="84"/><line x1="44" y1="60" x2="36" y2="60"/><line x1="52" y1="42" x2="46" y2="36"/><line x1="70" y1="34" x2="70" y2="26"/><line x1="88" y1="42" x2="94" y2="36"/></g><g><ellipse cx="210" cy="90" rx="46" ry="24" fill="#ffffff"/><ellipse cx="180" cy="98" rx="26" ry="16" fill="#ffffff"/><ellipse cx="240" cy="98" rx="28" ry="16" fill="#ffffff"/></g><g stroke="#2f7fc1" stroke-width="3" stroke-linecap="round"><line x1="175" y1="120" x2="170" y2="138"/><line x1="193" y1="120" x2="188" y2="138"/><line x1="211" y1="120" x2="206" y2="138"/><line x1="229" y1="120" x2="224" y2="138"/></g><rect x="0" y="250" width="520" height="90" fill="#7fbfe6"/><path d="M0 250 q30 -8 60 0 t60 0 t60 0 t60 0 t60 0 t60 0 t60 0 t60 0 t60 0" fill="none" stroke="#5aa3d6" stroke-width="2"/></g>
<g transform="translate(0,-14)"><image xlink:href="../characters/drop.svg" href="../characters/drop.svg" x="402" y="120" width="80" height="80"/></g>
<circle cx="40" cy="40" r="22" fill="#6b4f3a"/><text x="40" y="47" text-anchor="middle" font-size="19" fill="#fff" font-weight="bold">6</text>
<rect x="0" y="278" width="520" height="42" fill="#6b4f3a"/>
<text x="14" y="297" font-size="13" fill="#fff">📖 第6頁：水一直在旅行：蒸發、成雲、落雨、回到海。</text>
<text x="14" y="314" font-size="12" fill="#f4d9a8">💧「蒸發和凝結，讓水在天地間循環！」</text>
</svg>
