<svg xmlns="http://www.w3.org/2000/svg" xmlns:xlink="http://www.w3.org/1999/xlink" viewBox="0 0 520 320" font-family="'Microsoft JhengHei','Noto Sans TC',sans-serif">
<rect width="520" height="320" fill="#dcecf7"/>
<rect x="0" y="200" width="520" height="78" fill="#c8b878" opacity="0.7"/>
<ellipse cx="260" cy="252" rx="230" ry="22" fill="#00000010"/>
<!-- empty open field with flag flapping, no trees -->
<line x1="330" y1="90" x2="330" y2="230" stroke="#8a8a8a" stroke-width="5"/>
<path d="M330 94 q40 8 66 0 q-16 16 0 26 q-34 -6 -66 2 Z" fill="#e2554d" stroke="#a8352d" stroke-width="2"/>
<g stroke="#7fb8e0" stroke-width="3" fill="none" opacity="0.8">
  <path d="M180 140 q60 -10 120 0" marker-end="url(#a)"/>
  <path d="M180 175 q60 -10 120 0" marker-end="url(#a)"/>
</g>
<defs><marker id="a" markerWidth="11" markerHeight="11" refX="8" refY="4" orient="auto"><path d="M0 0 L8 4 L0 8 z" fill="#7fb8e0"/></marker></defs>
<text x="380" y="150" font-size="11" fill="#3a8ac0">沒有樹也有風</text>
<!-- monster -->
<g transform="translate(45,145)"><image xlink:href="../characters/monster.svg" href="../characters/monster.svg" x="0" y="0" width="92" height="92"/></g>
<text x="150" y="120" font-size="16">❓</text>
<circle cx="40" cy="40" r="22" fill="#6b4f3a"/><text x="40" y="47" text-anchor="middle" font-size="19" fill="#fff" font-weight="bold">6</text>
<rect x="0" y="278" width="520" height="42" fill="#6b4f3a"/>
<text x="14" y="297" font-size="13" fill="#fff">📖 第6頁：是風讓樹搖，不是樹搖出風。</text>
<text x="14" y="314" font-size="12" fill="#f4d9a8">👾「樹搖才有風！」🐻「沒有樹的操場也有風呀！」</text>
</svg>
