<svg xmlns="http://www.w3.org/2000/svg" xmlns:xlink="http://www.w3.org/1999/xlink" viewBox="0 0 520 320" font-family="'Microsoft JhengHei','Noto Sans TC',sans-serif">
<rect width="520" height="320" fill="#dcecf7"/>
<rect x="0" y="200" width="520" height="78" fill="#a8c878" opacity="0.7"/>
<ellipse cx="260" cy="252" rx="230" ry="22" fill="#00000010"/>
<!-- kite falling -->
<g transform="translate(360,120)">
  <path d="M0 0 l22 22 l-22 22 l-22 -22 Z" fill="#f2c94c" stroke="#c99a1a" stroke-width="2"/>
  <path d="M0 44 q4 24 -8 40" stroke="#c99a1a" stroke-width="2" fill="none"/>
</g>
<path d="M360 90 q-10 -14 6 -24" stroke="#999" stroke-width="1.5" fill="none" stroke-dasharray="3 3" marker-end="url(#d)"/>
<text x="400" y="90" font-size="11" fill="#999">風停·下墜</text>
<defs><marker id="d" markerWidth="9" markerHeight="9" refX="4" refY="6" orient="auto"><path d="M0 0 L4 8 L8 0 z" fill="#999"/></marker></defs>
<!-- fox holding string -->
<g transform="translate(60,140)"><image xlink:href="../characters/fox.svg" href="../characters/fox.svg" x="0" y="0" width="90" height="90"/></g>
<line x1="150" y1="175" x2="352" y2="140" stroke="#8a8a8a" stroke-width="1"/>
<circle cx="40" cy="40" r="22" fill="#6b4f3a"/><text x="40" y="47" text-anchor="middle" font-size="19" fill="#fff" font-weight="bold">1</text>
<rect x="0" y="278" width="520" height="42" fill="#6b4f3a"/>
<text x="14" y="297" font-size="13" fill="#fff">📖 第1頁：把風箏帶上天的力量，看不見也抓不到。</text>
<text x="14" y="314" font-size="12" fill="#f4d9a8">🦊：「那股力量到底是什麼？」</text>
</svg>
