<svg xmlns="http://www.w3.org/2000/svg" xmlns:xlink="http://www.w3.org/1999/xlink" viewBox="0 0 520 320" font-family="'Microsoft JhengHei','Noto Sans TC',sans-serif">
<rect width="520" height="320" fill="#dcecf7"/>
<rect x="0" y="200" width="520" height="78" fill="#a8c878" opacity="0.7"/>
<ellipse cx="260" cy="252" rx="230" ry="22" fill="#00000010"/>
<!-- flag -->
<line x1="300" y1="90" x2="300" y2="230" stroke="#8a6a4a" stroke-width="5"/>
<path d="M300 94 q34 8 60 0 q-14 16 0 26 q-30 -6 -60 2 Z" fill="#e2554d" stroke="#a8352d" stroke-width="2"/>
<!-- tree bending same direction -->
<path d="M430 230 q8 -60 24 -84" stroke="#7a5a3a" stroke-width="8" fill="none"/>
<circle cx="460" cy="140" r="28" fill="#7fbf5f" stroke="#5a9a3a" stroke-width="2"/>
<path d="M460 120 q16 -4 28 4" stroke="#5a9a3a" stroke-width="3" fill="none"/>
<text x="380" y="110" font-size="12" fill="#3a8ac0">→ 風向 →</text>
<!-- bear -->
<g transform="translate(45,145)"><image xlink:href="../characters/bear.svg" href="../characters/bear.svg" x="0" y="0" width="92" height="92"/></g>
<circle cx="40" cy="40" r="22" fill="#6b4f3a"/><text x="40" y="47" text-anchor="middle" font-size="19" fill="#fff" font-weight="bold">4</text>
<rect x="0" y="278" width="520" height="42" fill="#6b4f3a"/>
<text x="14" y="297" font-size="13" fill="#fff">📖 第4頁：看旗子、樹葉，就知道風往哪吹。</text>
<text x="14" y="314" font-size="12" fill="#f4d9a8">🐻：「旗子飄的方向告訴我們風向。」</text>
</svg>
