<svg xmlns="http://www.w3.org/2000/svg" viewBox="0 0 120 120">
  <circle cx="60" cy="60" r="60" fill="#f0e8fa"/>
  <!-- horns -->
  <path d="M40 30 L34 12 L50 26 Z" fill="#6f3fb0"/><path d="M80 30 L86 12 L70 26 Z" fill="#6f3fb0"/>
  <!-- body -->
  <path d="M30 58 Q30 30 60 30 Q90 30 90 58 L90 84 Q90 100 60 100 Q30 100 30 84 Z" fill="#8a56c2"/>
  <!-- belly -->
  <ellipse cx="60" cy="80" rx="22" ry="16" fill="#a678d6"/>
  <!-- big goofy eye + small eye -->
  <circle cx="50" cy="56" r="14" fill="#fff"/><circle cx="52" cy="58" r="6.5" fill="#2d2a26"/><circle cx="54" cy="55" r="2" fill="#fff"/>
  <circle cx="76" cy="54" r="9" fill="#fff"/><circle cx="77" cy="56" r="4.2" fill="#2d2a26"/><circle cx="78.3" cy="54" r="1.3" fill="#fff"/>
  <!-- silly grin with one tooth -->
  <path d="M44 78 Q60 92 78 76" stroke="#4a2670" stroke-width="3" fill="none" stroke-linecap="round"/>
  <path d="M58 84 l3 7 l4 -6 Z" fill="#fff"/>
</svg>
